<?xml version="1.0" encoding="UTF-8"?>
<!DOCTYPE svg PUBLIC "-//W3C//DTD SVG 1.1//EN" "http://www.w3.org/Graphics/SVG/1.1/DTD/svg11.dtd">
<!-- Creator: CorelDRAW X7 -->
<svg xmlns="http://www.w3.org/2000/svg" xml:space="preserve" width="100px" height="100px" version="1.1" style="shape-rendering:geometricPrecision; text-rendering:geometricPrecision; image-rendering:optimizeQuality; fill-rule:evenodd; clip-rule:evenodd"
viewBox="0 0 1000000 1000000"
 xmlns:xlink="http://www.w3.org/1999/xlink">
 <defs>
  <style type="text/css">
   <![CDATA[
    .fil0 {fill:#FEFEFE;fill-rule:nonzero}
   ]]>
  </style>
 </defs>
 <g id="Слой_x0020_1">
  <metadata id="CorelCorpID_0Corel-Layer"/>
  <path class="fil0" d="M65032 210758c84449,-27426 154300,-53694 218907,-82678 64276,-28843 124572,-60969 190124,-100182l30106 -17977 30331 17800c67064,39378 129757,72874 194813,102851 64489,29705 130843,55677 205655,80186l30780 10074 4311 28973c21142,141320 -19217,287672 -96769,414665 -82536,135166 -207970,249510 -346573,313195l47 83 -1654 768 -25110 11563 -25110 -11563 -1654 -768 47 -83c-138603,-63685 -264037,-178029 -346573,-313195 -77552,-126993 -117911,-273345 -96769,-414665l4358 -29067 30733 -9980zm441074 -84355l0 751198c107836,-56965 204982,-149930 271432,-258781 62197,-101847 97087,-216852 88134,-328184 -66969,-22984 -127643,-47268 -186568,-74410 -57473,-26480 -113718,-55926 -172998,-89823z"/>
 </g>
</svg>
