<?xml version="1.0" encoding="UTF-8"?>
<!DOCTYPE svg PUBLIC "-//W3C//DTD SVG 1.1//EN" "http://www.w3.org/Graphics/SVG/1.1/DTD/svg11.dtd">
<!-- Creator: CorelDRAW X7 -->
<svg xmlns="http://www.w3.org/2000/svg" xml:space="preserve" width="278px" height="174px" version="1.1" style="shape-rendering:geometricPrecision; text-rendering:geometricPrecision; image-rendering:optimizeQuality; fill-rule:evenodd; clip-rule:evenodd"
viewBox="0 0 2780000 1739986"
 xmlns:xlink="http://www.w3.org/1999/xlink">
 <defs>
  <style type="text/css">
   <![CDATA[
    .fil0 {fill:#5B5B5B}
   ]]>
  </style>
 </defs>
 <g id="Слой_x0020_1">
  <metadata id="CorelCorpID_0Corel-Layer"/>
  <path class="fil0" d="M248623 738760c531641,-458648 1062869,-601621 1594238,-422376l264167 -264167c35905,-35906 94146,-35906 130052,0 35905,35906 35905,94158 0,130064l-209435 209434c172289,82359 344601,198568 516936,349077 59351,74575 60083,145701 0,213249 -520751,474050 -1041135,650779 -1561709,482447l-251269 251281c-35906,35906 -94158,35906 -130064,0 -35906,-35905 -35906,-94158 0,-130063l195863 -195852c-182895,-88146 -365813,-219544 -548779,-396404 -72709,-68941 -81803,-143670 0,-226690zm1576498 -144520l-197234 197233c6921,827 13973,1264 21142,1264 97949,0 177355,-79383 177355,-177356 0,-7157 -448,-14208 -1263,-21141zm-567370 567381l-149705 149705c83043,51934 181182,81981 286348,81981 298690,0 540841,-242151 540841,-540853 0,-65989 -11834,-129225 -33472,-187679 10358,37394 15909,76749 15909,117438 0,242446 -196536,438995 -438994,438995 -80564,0 -156037,-21709 -220927,-59587zm-287080 26941l150946 -150922c-51579,-71953 -81934,-160147 -81934,-255427 0,-242458 196537,-439006 438995,-439006 68410,0 133146,15649 190855,43559 -80622,-47729 -174674,-75154 -275139,-75154 -298703,0 -540842,242139 -540842,540842 0,127028 43807,243828 117119,336108zm511881 -511869l227788 -227789c-19110,-7051 -39768,-10890 -61311,-10890 -97973,0 -177367,79418 -177367,177367 0,21556 3850,42213 10890,61312z"/>
 </g>
</svg>
