<?xml version="1.0" encoding="UTF-8"?>
<!DOCTYPE svg PUBLIC "-//W3C//DTD SVG 1.1//EN" "http://www.w3.org/Graphics/SVG/1.1/DTD/svg11.dtd">
<!-- Creator: CorelDRAW X7 -->
<svg xmlns="http://www.w3.org/2000/svg" xml:space="preserve" width="100px" height="100px" version="1.1" style="shape-rendering:geometricPrecision; text-rendering:geometricPrecision; image-rendering:optimizeQuality; fill-rule:evenodd; clip-rule:evenodd"
viewBox="0 0 1000000 1000000"
 xmlns:xlink="http://www.w3.org/1999/xlink">
 <defs>
  <style type="text/css">
   <![CDATA[
    .fil0 {fill:#2B2A29}
   ]]>
  </style>
 </defs>
 <g id="Слой_x0020_1">
  <metadata id="CorelCorpID_0Corel-Layer"/>
  <path class="fil0" d="M469764 248104c-138226,16016 -252546,136537 -234865,292904 15284,135237 135155,251353 292562,233376 134859,-15390 250525,-137044 233187,-291439 -15083,-134257 -135982,-252805 -290884,-234841zm-4418 97985c-100170,21107 -151714,112678 -133442,200518 16866,81130 99757,151087 200541,130359 78993,-16240 153462,-98587 131080,-200671 -17221,-78544 -96024,-151749 -198179,-130206zm-180155 -345687l429618 0c78367,0 149576,32031 201167,83622 51591,51591 83622,122800 83622,201167l0 429618c0,78367 -32020,149588 -83622,201179 -51591,51590 -122800,83610 -201167,83610l-429618 0c-78367,0 -149588,-32020 -201179,-83610 -51590,-51591 -83610,-122812 -83610,-201179l0 -429618c0,-78367 32020,-149576 83610,-201167 51591,-51602 122812,-83622 201179,-83622zm429618 98398l-429618 0c-51201,0 -97796,20988 -131599,54792 -33804,33803 -54792,80398 -54792,131599l0 429618c0,51201 20988,97796 54792,131599 33803,33804 80398,54792 131599,54792l429618 0c51201,0 97796,-20988 131599,-54792 33804,-33803 54792,-80398 54792,-131599l0 -429618c0,-51201 -20988,-97796 -54792,-131599 -33803,-33804 -80398,-54792 -131599,-54792zm47811 80965c31453,0 56953,25500 56953,56965 0,31453 -25500,56953 -56953,56953 -31453,0 -56953,-25500 -56953,-56953 0,-31465 25500,-56965 56953,-56965z"/>
 </g>
</svg>
