<?xml version="1.0" encoding="UTF-8"?>
<!DOCTYPE svg PUBLIC "-//W3C//DTD SVG 1.1//EN" "http://www.w3.org/Graphics/SVG/1.1/DTD/svg11.dtd">
<!-- Creator: CorelDRAW X7 -->
<svg xmlns="http://www.w3.org/2000/svg" xml:space="preserve" width="60px" height="60px" version="1.1" style="shape-rendering:geometricPrecision; text-rendering:geometricPrecision; image-rendering:optimizeQuality; fill-rule:evenodd; clip-rule:evenodd"
viewBox="0 0 600000 600000"
 xmlns:xlink="http://www.w3.org/1999/xlink">
 <defs>
  <style type="text/css">
   <![CDATA[
    .fil1 {fill:#6EB535}
    .fil0 {fill:#FEFEFE}
    .fil2 {fill:#FEFEFE;fill-rule:nonzero}
   ]]>
  </style>
 </defs>
 <g id="Слой_x0020_1">
  <metadata id="CorelCorpID_0Corel-Layer"/>
  <path class="fil0" d="M207150 111985l41635 71211 76657 -24698 -20906 69334c-3036,-284 -6107,-425 -9213,-425 -6757,0 -13383,661 -19785,1925 -14020,-23080 -39403,-38494 -68388,-38494 -44151,0 -79964,35789 -79964,79952 0,25844 12272,48817 31289,63440 -8788,9543 -15745,20741 -20399,33001l-49206 15863 23599 -78310 -72593 -33994 72156 -36663 -23162 -75629 79302 23033 38978 -69546zm1264 99582c19453,0 36745,9284 47659,23682 -30627,12780 -53766,40100 -60640,73456 -7619,3047 -14753,6992 -21284,11670 -15438,-10808 -25537,-28738 -25537,-49018 0,-33025 26777,-59790 59802,-59790zm86909 39841c40537,0 73845,30922 77637,70467 8197,-6638 18638,-10630 30013,-10630 25099,0 45675,19394 47541,44021 4169,-862 8492,-1323 12910,-1323 34915,0 63215,28300 63215,63215 0,34915 -28300,63203 -63215,63203 -827,0 -1654,-11 -2469,-47 -1783,295 -3602,449 -5469,449l-212252 0c-3201,402 -6461,614 -9768,614 -3319,0 -6591,-212 -9804,-614 -4417,-59 -8646,-992 -12508,-2634 -32198,-9591 -55691,-39427 -55691,-74755 0,-37560 26552,-68908 61904,-76338 1252,-41978 35671,-75628 77956,-75628z"/>
  <g id="_773347968">
   <rect class="fil1" x="-12" y="-11" width="600024" height="600024"/>
   <path class="fil2" d="M454423 115788c-36745,39155 -109468,52915 -188724,76928 -122804,37206 -166943,118765 -145517,219635 58479,-102063 142683,-159361 255849,-159774 -102725,38399 -213989,122249 -228092,219398 235167,99099 338600,-228623 306484,-356187z"/>
  </g>
 </g>
</svg>
