<?xml version="1.0" encoding="UTF-8"?>
<!DOCTYPE svg PUBLIC "-//W3C//DTD SVG 1.1//EN" "http://www.w3.org/Graphics/SVG/1.1/DTD/svg11.dtd">
<!-- Creator: CorelDRAW X7 -->
<svg xmlns="http://www.w3.org/2000/svg" xml:space="preserve" width="100px" height="100px" version="1.1" style="shape-rendering:geometricPrecision; text-rendering:geometricPrecision; image-rendering:optimizeQuality; fill-rule:evenodd; clip-rule:evenodd"
viewBox="0 0 1000000 1000000"
 xmlns:xlink="http://www.w3.org/1999/xlink">
 <defs>
  <style type="text/css">
   <![CDATA[
    .fil0 {fill:#FEFEFE}
   ]]>
  </style>
 </defs>
 <g id="Слой_x0020_1">
  <metadata id="CorelCorpID_0Corel-Layer"/>
  <path class="fil0" d="M500000 30071c259537,0 469929,210392 469929,469929 0,259537 -210392,469929 -469929,469929 -259537,0 -469929,-210392 -469929,-469929 0,-259537 210392,-469929 469929,-469929zm-293235 492913c-20551,-21354 -19878,-55358 1477,-75898 21354,-20551 55347,-19890 75898,1477l164245 169997 267475 -276805c20551,-21355 54544,-22028 75898,-1477 21355,20552 22028,54544 1477,75899l-306168 316845 -1465 1476c-21366,20551 -55358,19890 -75910,-1476l-202927 -210038z"/>
 </g>
</svg>
