<?xml version="1.0" encoding="UTF-8"?>
<!DOCTYPE svg PUBLIC "-//W3C//DTD SVG 1.1//EN" "http://www.w3.org/Graphics/SVG/1.1/DTD/svg11.dtd">
<!-- Creator: CorelDRAW X7 -->
<svg xmlns="http://www.w3.org/2000/svg" xml:space="preserve" width="210mm" height="297mm" version="1.1" style="shape-rendering:geometricPrecision; text-rendering:geometricPrecision; image-rendering:optimizeQuality; fill-rule:evenodd; clip-rule:evenodd"
viewBox="0 0 21000 29700"
 xmlns:xlink="http://www.w3.org/1999/xlink">
 <defs>
  <style type="text/css">
   <![CDATA[
    .fil0 {fill:#FEFEFE}
   ]]>
  </style>
 </defs>
 <g id="Слой_x0020_1">
  <metadata id="CorelCorpID_0Corel-Layer"/>
  <path class="fil0" d="M8108 12834l4784 0c248,0 451,203 451,451l0 823 -2511 1172 -8 4c-116,64 -231,99 -346,100 -116,1 -235,-31 -358,-100l-8 -4 -2455 -1156 0 -839c0,-248 203,-451 451,-451zm386 3597l0 -467 164 0 0 173 127 -173 185 0 -160 191 164 276 -180 0 -89 -150 -47 57 0 93 -164 0zm758 11c-73,0 -135,-24 -184,-71 -48,-48 -73,-105 -73,-173 0,-68 25,-125 74,-173 49,-48 111,-71 185,-71 74,0 135,23 184,71 49,47 73,105 73,173 0,67 -24,125 -74,172 -49,48 -111,72 -185,72zm2 -139c29,0 53,-10 71,-30 18,-20 26,-45 26,-75 0,-29 -9,-54 -28,-74 -19,-21 -43,-32 -71,-32 -29,0 -53,11 -71,31 -17,20 -26,45 -26,75 0,29 9,53 28,74 19,21 43,31 71,31zm326 266l0 -605 164 0 0 62c40,-48 87,-72 142,-72 57,0 106,22 146,66 41,45 61,104 61,177 0,73 -20,133 -60,177 -40,45 -89,67 -147,67 -56,0 -103,-22 -142,-67l0 195 -164 0zm256 -265c27,0 49,-10 68,-30 18,-20 27,-46 27,-78 0,-30 -9,-56 -27,-76 -19,-19 -41,-29 -68,-29 -27,0 -49,10 -68,30 -18,20 -27,46 -27,77 0,30 9,56 27,76 19,20 41,30 68,30zm466 267c-52,0 -102,-13 -151,-40l51 -115c28,17 52,25 72,25 16,0 29,-6 38,-19l-183 -458 172 0 93 281 88 -281 168 0 -171 456c-20,55 -44,94 -70,117 -25,23 -61,34 -107,34zm402 -140l0 -467 455 0 0 467 -164 0 0 -335 -127 0 0 335 -164 0zm898 95l0 -95 -355 0 0 -467 164 0 0 335 128 0 0 -335 164 0 0 335 54 0 -15 227 -140 0zm203 -95l0 -467 164 0 0 467 -164 0zm-4 -509l0 -121 171 0 0 121 -171 0zm226 509l110 -163c-58,-27 -86,-74 -86,-141 0,-47 14,-84 43,-111 33,-35 84,-52 153,-52l259 0 0 467 -165 0 0 -135 -37 0 -89 135 -188 0zm250 -249l64 0 0 -95 -64 0c-40,0 -61,16 -61,49 0,31 21,46 61,46zm-3095 -1743c-172,0 -315,-51 -428,-152l141 -168c91,73 190,110 296,110 70,0 105,-22 105,-66 0,-19 -11,-35 -31,-47 -21,-13 -62,-26 -123,-40 -56,-13 -102,-26 -138,-39 -36,-12 -71,-29 -106,-51 -34,-21 -60,-48 -76,-81 -17,-33 -25,-73 -25,-119 0,-86 32,-157 96,-211 64,-54 150,-82 258,-82 150,0 275,41 376,122l-127 179c-85,-60 -170,-90 -256,-90 -29,0 -52,5 -67,17 -16,11 -24,26 -24,44 0,21 11,37 32,50 21,12 63,25 126,39 115,25 200,59 257,101 56,42 84,104 84,186 0,92 -34,165 -101,218 -67,53 -156,80 -269,80zm690 -16l0 -692 -274 0 0 -222 801 0 0 222 -274 0 0 692 -253 0zm1411 -120c-95,92 -212,138 -352,138 -140,0 -257,-46 -351,-137 -93,-92 -140,-205 -140,-338 0,-132 47,-245 141,-337 95,-92 212,-138 352,-138 141,0 257,46 351,138 94,91 140,204 140,337 0,132 -47,245 -141,337zm-350 -90c69,0 125,-24 168,-72 43,-48 65,-106 65,-175 0,-68 -22,-126 -67,-174 -44,-49 -100,-73 -168,-73 -68,0 -124,24 -167,72 -43,48 -64,106 -64,175 0,68 22,126 66,174 44,49 99,73 167,73zm623 210l0 -914 392 0c117,0 209,29 277,86 69,57 103,136 103,238 0,104 -36,185 -108,243 -73,57 -168,86 -285,86l-125 0 0 261 -254 0zm254 -460l120 0c45,0 80,-10 106,-32 26,-22 39,-52 39,-89 0,-39 -13,-69 -39,-89 -26,-21 -61,-31 -108,-31l-118 0 0 241zm1533 429l0 1600 -1274 -1005 1274 -595zm0 1929l0 94c0,248 -203,451 -451,451l-4784 0c-248,0 -451,-203 -451,-451l0 -148 1475 -1164 865 408c162,90 323,132 483,130 159,-1 314,-46 465,-130l862 -402 1536 1212zm-5686 -383l0 -1529 1214 572 -1214 957z"/>
 </g>
</svg>
