<?xml version="1.0" encoding="UTF-8"?>
<!DOCTYPE svg PUBLIC "-//W3C//DTD SVG 1.1//EN" "http://www.w3.org/Graphics/SVG/1.1/DTD/svg11.dtd">
<!-- Creator: CorelDRAW X7 -->
<svg xmlns="http://www.w3.org/2000/svg" xml:space="preserve" width="100px" height="100px" version="1.1" style="shape-rendering:geometricPrecision; text-rendering:geometricPrecision; image-rendering:optimizeQuality; fill-rule:evenodd; clip-rule:evenodd"
viewBox="0 0 1000000 1000000"
 xmlns:xlink="http://www.w3.org/1999/xlink">
 <defs>
  <style type="text/css">
   <![CDATA[
    .fil0 {fill:#FEFEFE}
   ]]>
  </style>
 </defs>
 <g id="Слой_x0020_1">
  <metadata id="CorelCorpID_0Corel-Layer"/>
  <path class="fil0" d="M403385 414960c48508,28004 65127,90024 37122,138533 -28004,48508 -90036,65114 -138544,37122 -48496,-28004 -65115,-90036 -37111,-138533 28005,-48508 90037,-65126 138533,-37122zm123840 -87072c29669,29564 50799,65788 62327,104777l75367 0c23598,50469 22393,95268 23,135225l-73902 0c-5480,19997 -13571,39615 -24413,58418 -10654,18449 -23316,34996 -37572,49536l36768 63685c-33272,44056 -72425,66190 -117095,67619l-37205 -64430c-39863,9780 -82205,9697 -123048,-1311l-37949 65741c-46690,-5610 -84769,-30248 -117108,-67619l39072 -67677c-27934,-29741 -47587,-65611 -58076,-103962l-80091 0c-17870,-45366 -17823,-90437 0,-135213l81438 -12c5409,-18260 13027,-36178 22972,-53410 10134,-17563 22134,-33402 35564,-47445l-40879 -70796c31583,-34453 69899,-58146 117108,-67595l40500 70158c38150,-9827 78638,-10607 117981,-1382l39709 -68776c46052,10394 84934,33177 117107,67607l-38598 66862zm286785 351830c30508,0 55253,24732 55253,55252 0,30520 -24745,55265 -55253,55265 -30520,0 -55264,-24745 -55264,-55265 0,-30520 24744,-55252 55264,-55252zm34713 -74823c22063,5881 41894,17208 57957,32468l35564 -20539c24886,17386 36520,38858 36839,63803l-34867 20138c2870,10914 4394,22382 4394,34205 0,11611 -1465,22867 -4217,33615l34690 20031c-3697,29859 -16146,50965 -36839,63804l-35115 -20256c-16134,15484 -36130,26965 -58406,32894l0 41374c-23563,10063 -48248,8811 -73678,0l0 -42579c-21295,-6437 -40334,-18000 -55736,-33248l-37784 21815c-20799,-16535 -33047,-37807 -36839,-63804l38422 -22181c-2422,-10098 -3709,-20634 -3709,-31465 0,-11055 1347,-21791 3862,-32067l-38575 -22276c5516,-24862 17138,-46500 36839,-63803l38221 22075c15331,-15036 34217,-26422 55299,-32800l0 -43276c24568,-7630 49111,-7476 73678,0l0 42072zm-34713 -395862c30508,0 55253,24733 55253,55253 0,30519 -24745,55252 -55253,55252 -30520,0 -55264,-24733 -55264,-55252 0,-30520 24744,-55253 55264,-55253zm34713 -74835c22063,5882 41894,17209 57957,32480l35564 -20539c24886,17386 36520,38859 36839,63792l-34867 20150c2870,10913 4394,22382 4394,34205 0,11598 -1465,22866 -4217,33614l34690 20032c-3697,29858 -16146,50965 -36839,63803l-35115 -20256c-16134,15473 -36130,26965 -58406,32882l0 41375c-23563,10075 -48248,8823 -73678,0l0 -42579c-21295,-6426 -40334,-17989 -55736,-33237l-37784 21815c-20799,-16535 -33047,-37807 -36839,-63803l38422 -22182c-2422,-10098 -3709,-20634 -3709,-31464 0,-11056 1347,-21792 3862,-32079l-38575 -22276c5516,-24863 17138,-46489 36839,-63792l38221 22063c15331,-15024 34217,-26410 55299,-32788l0 -43275c24568,-7630 49111,-7477 73678,0l0 42059z"/>
 </g>
</svg>
