<?xml version="1.0" encoding="UTF-8"?>
<!DOCTYPE svg PUBLIC "-//W3C//DTD SVG 1.1//EN" "http://www.w3.org/Graphics/SVG/1.1/DTD/svg11.dtd">
<!-- Creator: CorelDRAW X7 -->
<svg xmlns="http://www.w3.org/2000/svg" xml:space="preserve" width="100px" height="100px" version="1.1" style="shape-rendering:geometricPrecision; text-rendering:geometricPrecision; image-rendering:optimizeQuality; fill-rule:evenodd; clip-rule:evenodd"
viewBox="0 0 1000000 1000000"
 xmlns:xlink="http://www.w3.org/1999/xlink">
 <defs>
  <style type="text/css">
   <![CDATA[
    .fil0 {fill:#2B2A29}
   ]]>
  </style>
 </defs>
 <g id="Слой_x0020_1">
  <metadata id="CorelCorpID_0Corel-Layer"/>
  <path class="fil0" d="M500000 12071c269471,0 487929,218458 487929,487929 0,269471 -218458,487929 -487929,487929 -269471,0 -487929,-218458 -487929,-487929 0,-269471 218458,-487929 487929,-487929zm-231226 452649c143233,-59870 278589,-117828 425696,-164245 9496,-3000 30142,-7937 25819,17020l-36142 322479c-12283,112831 -20327,140103 -117332,80339 -29149,-17965 -135804,-83989 -147839,-106312 -40831,-24815 149930,-156745 178359,-209636 -37984,17315 -113008,70560 -141473,89883 -83576,56729 -116694,92883 -185789,70938 -29433,-9367 -75379,-20174 -94253,-38044 -13134,-28205 74599,-54520 92954,-62422z"/>
 </g>
</svg>
