<?xml version="1.0" encoding="UTF-8"?>
<!DOCTYPE svg PUBLIC "-//W3C//DTD SVG 1.1//EN" "http://www.w3.org/Graphics/SVG/1.1/DTD/svg11.dtd">
<!-- Creator: CorelDRAW X7 -->
<svg xmlns="http://www.w3.org/2000/svg" xml:space="preserve" width="100px" height="100px" version="1.1" style="shape-rendering:geometricPrecision; text-rendering:geometricPrecision; image-rendering:optimizeQuality; fill-rule:evenodd; clip-rule:evenodd"
viewBox="0 0 1000000 1000000"
 xmlns:xlink="http://www.w3.org/1999/xlink">
 <defs>
  <style type="text/css">
   <![CDATA[
    .fil0 {fill:#2B2A29}
   ]]>
  </style>
 </defs>
 <g id="Слой_x0020_1">
  <metadata id="CorelCorpID_0Corel-Layer"/>
  <path class="fil0" d="M594194 855432c29126,-14988 88937,-55512 109359,-75024 51024,-48804 79418,-79501 118335,-141568 38670,-61690 69733,-141533 83233,-214443 8504,-45992 4559,-100843 11906,-138473 29386,-23434 87804,-73844 100194,-106029 -29835,8835 -82619,30355 -115017,28441 35799,-20740 73394,-62221 88867,-113469 -27626,10370 -112678,59989 -139844,43382 -10913,-6673 -23693,-24969 -55937,-40559 -86800,-42001 -206317,-16784 -264050,62457 -39626,54378 -51449,98930 -39957,178903 -93130,-5717 -189048,-32764 -258391,-72993 -92151,-53457 -83222,-52252 -140163,-106890l-31181 -31312c-886,-1004 -3650,-3968 -4689,-4901 -9863,-8977 6543,2019 -9544,-7075 -11220,45933 -41220,84591 -16724,168084 7370,25122 19276,46642 31972,64465 29127,40914 37300,32799 49406,51591 -34606,-1335 -64807,-11091 -90331,-24922 -10181,76572 44374,145856 99509,183167 24626,16666 41457,16855 66980,28560 -37476,10086 -54142,6389 -91925,4181 22393,84898 104599,140741 196974,147804 -75214,63863 -184844,96225 -310397,88879 31253,31618 139679,69732 193785,81827 131907,29492 298574,7158 417630,-54083z"/>
 </g>
</svg>
