<?xml version="1.0" encoding="UTF-8"?>
<!DOCTYPE svg PUBLIC "-//W3C//DTD SVG 1.1//EN" "http://www.w3.org/Graphics/SVG/1.1/DTD/svg11.dtd">
<!-- Creator: CorelDRAW X7 -->
<svg xmlns="http://www.w3.org/2000/svg" xml:space="preserve" width="100px" height="100px" version="1.1" style="shape-rendering:geometricPrecision; text-rendering:geometricPrecision; image-rendering:optimizeQuality; fill-rule:evenodd; clip-rule:evenodd"
viewBox="0 0 1000000 1000000"
 xmlns:xlink="http://www.w3.org/1999/xlink">
 <defs>
  <style type="text/css">
   <![CDATA[
    .fil0 {fill:#2B2A29}
   ]]>
  </style>
 </defs>
 <g id="Слой_x0020_1">
  <metadata id="CorelCorpID_0Corel-Layer"/>
  <path class="fil0" d="M146706 163064c237829,-21283 472421,-19842 704391,0 67666,5776 113163,56351 123485,123486 23115,150237 23871,292088 0,424704 -12035,66851 -55890,116835 -123485,123485 -234805,23114 -469598,23870 -704391,0 -67572,-6862 -114249,-56197 -123497,-123485 -20244,-147356 -20859,-289101 0,-424704 10335,-67135 55843,-117438 123497,-123486zm491838 339440l-117627 67902 -117615 67914 0 -135816 0 -135828 117615 67914 117627 67914z"/>
 </g>
</svg>
