<?xml version="1.0" encoding="UTF-8"?>
<!DOCTYPE svg PUBLIC "-//W3C//DTD SVG 1.1//EN" "http://www.w3.org/Graphics/SVG/1.1/DTD/svg11.dtd">
<!-- Creator: CorelDRAW X7 -->
<svg xmlns="http://www.w3.org/2000/svg" xml:space="preserve" width="2480px" height="3508px" version="1.1" style="shape-rendering:geometricPrecision; text-rendering:geometricPrecision; image-rendering:optimizeQuality; fill-rule:evenodd; clip-rule:evenodd"
viewBox="0 0 2480 3507"
 xmlns:xlink="http://www.w3.org/1999/xlink">
 <defs>
  <style type="text/css">
   <![CDATA[
    .fil0 {fill:#FEFEFE}
   ]]>
  </style>
 </defs>
 <g id="Слой_x0020_1">
  <metadata id="CorelCorpID_0Corel-Layer"/>
  <g id="_622706160">
   <path class="fil0" d="M1494 1666l27 0 0 175 -27 0 0 52 -535 0 0 -279 535 0 0 52zm-484 -9l434 0 11 0 0 51 27 0 0 12 0 68 0 12 -27 0 0 39 0 11 -11 0 -434 0 -12 0 0 -11 0 -170 0 -12 12 0z"/>
   <polygon class="fil0" points="1024,1681 1103,1681 1103,1827 1024,1827 "/>
   <polygon class="fil0" points="1133,1681 1212,1681 1212,1827 1133,1827 "/>
   <polygon class="fil0" points="1242,1681 1321,1681 1321,1827 1242,1827 "/>
   <polygon class="fil0" points="1351,1681 1430,1681 1430,1827 1351,1827 "/>
  </g>
 </g>
</svg>
