<?xml version="1.0" encoding="UTF-8"?>
<!DOCTYPE svg PUBLIC "-//W3C//DTD SVG 1.1//EN" "http://www.w3.org/Graphics/SVG/1.1/DTD/svg11.dtd">
<!-- Creator: CorelDRAW X7 -->
<svg xmlns="http://www.w3.org/2000/svg" xml:space="preserve" width="210mm" height="297mm" version="1.1" style="shape-rendering:geometricPrecision; text-rendering:geometricPrecision; image-rendering:optimizeQuality; fill-rule:evenodd; clip-rule:evenodd"
viewBox="0 0 21000 29700"
 xmlns:xlink="http://www.w3.org/1999/xlink">
 <defs>
  <style type="text/css">
   <![CDATA[
    .fil0 {fill:#FEFEFE}
   ]]>
  </style>
 </defs>
 <g id="Слой_x0020_1">
  <metadata id="CorelCorpID_0Corel-Layer"/>
  <path class="fil0" d="M12654 9276l229 0 0 1477 -229 0 0 443 -4537 0 0 -2362 4537 0 0 442zm-4101 -81l3671 0 100 0 0 431 223 0 0 100 0 577 0 100 -223 0 0 331 0 100 -100 0 -3671 0 -100 0 0 -100 0 -1439 0 -100 100 0z"/>
  <polygon class="fil0" points="8671,9395 9341,9395 9341,10634 8671,10634 "/>
  <polygon class="fil0" points="9595,9395 10265,9395 10265,10634 9595,10634 "/>
  <polygon class="fil0" points="10519,9395 11189,9395 11189,10634 10519,10634 "/>
  <polygon class="fil0" points="11443,9395 12112,9395 12112,10634 11443,10634 "/>
</g>
</svg>
