<?xml version="1.0" encoding="UTF-8"?>
<!DOCTYPE svg PUBLIC "-//W3C//DTD SVG 1.1//EN" "http://www.w3.org/Graphics/SVG/1.1/DTD/svg11.dtd">
<!-- Creator: CorelDRAW X7 -->
<svg xmlns="http://www.w3.org/2000/svg" xml:space="preserve" width="2480px" height="3508px" version="1.1" style="shape-rendering:geometricPrecision; text-rendering:geometricPrecision; image-rendering:optimizeQuality; fill-rule:evenodd; clip-rule:evenodd"
viewBox="0 0 2480 3507"
 xmlns:xlink="http://www.w3.org/1999/xlink">
 <defs>
  <style type="text/css">
   <![CDATA[
    .fil1 {fill:#FEFEFE}
    .fil0 {fill:#6AC2EE}
   ]]>
  </style>
 </defs>
 <g id="Слой_x0020_1">
  <metadata id="CorelCorpID_0Corel-Layer"/>
  <g id="_620262320">
   <rect class="fil0" x="799" y="1313" width="881" height="881"/>
   <path class="fil1" d="M1104 1478l61 104 112 -36 -30 102c-5,-1 -9,-1 -14,-1 -10,0 -20,1 -29,3 -21,-34 -58,-57 -100,-57 -65,0 -118,53 -118,118 0,38 18,72 46,93 -13,14 -23,30 -30,48l-72 24 35 -115 -107 -50 110 -58 -38 -107 121 33 53 -101zm1 146c29,0 54,13 70,35 -45,18 -78,59 -89,107 -11,5 -21,11 -31,18 -23,-16 -37,-43 -37,-72 0,-49 39,-88 87,-88zm128 58c60,0 109,46 114,104 12,-10 28,-16 44,-16 37,0 67,29 70,65 6,-1 13,-2 19,-2 51,0 93,42 93,93 0,51 -42,93 -93,93 -1,0 -2,0 -4,0 -2,0 -5,0 -8,0l-311 0c-5,1 -10,1 -15,1 -5,0 -9,0 -14,-1 -7,0 -13,-1 -18,-4 -48,-14 -82,-58 -82,-109 0,-56 39,-102 91,-113 1,-61 52,-111 114,-111z"/>
  </g>
 </g>
</svg>
