<svg width="60" height="60" xmlns="http://www.w3.org/2000/svg">
 <defs>
  <style type="text/css">
   <![CDATA[
    .fil1 {fill:#FEFEFE}
    .fil0 {fill:#6AC2EE}
   ]]>
  </style>
 </defs>
 <g>
  <title>background</title>
  <rect fill="#000000" id="canvas_background" height="62" width="62" y="-1" x="-1"/>
 </g>
 <g>
  <title>Layer 1</title>
  <g stroke="null" id="Слой_x0020_1">
   <metadata stroke="null" transform="translate(0,-0.5405328273773193) translate(-1,0) translate(0.4371797442436218,0) translate(0,1) translate(0,-5.960464477539063e-8) translate(0,0.11812758445739746) translate(-4.324262619018555,-2.1621313095092773) translate(3.0769155025482178,-141.53811645507812) translate(-46.15373229980469,3.0769155025482178) translate(-295.3838806152344,-13.84611988067627) translate(-64.61522674560547,-109.23049926757812) translate(1.887420654296875,0) translate(0,14.96575927734375) translate(-21.538410186767578,-275.3839416503906) translate(0,-0.078369140625) translate(16.92303466796875,115.38433074951172) translate(-388.5050964355469,-472.61444091796875) translate(1,1) translate(-696.9060668945312,-861.1195068359375) translate(1,1) translate(232.97105407714844,5.883107662200928) translate(0,-420.5447998046875) translate(1216.515869140625,0) translate(-1633.0316162109375,0) translate(1680,2194) scale(0.053312622010707855,0.0453011617064476) translate(-1680,-2194) translate(27188.4375,38396.984375) scale(1,1.3537800312042236) translate(-27188.4375,-38396.984375) translate(27188.4375,28362.79296875) scale(1.2004108428955078,1) translate(-27188.4375,-28362.79296875) translate(22649.27734375,28362.79296875) scale(1) translate(-22649.27734375,-28362.79296875) translate(22649.27734375,28362.79296875) scale(1,1.0653318166732788) translate(-22649.27734375,-28362.79296875) translate(5720.19677734375,6240.1064453125) scale(1.3001527786254883) translate(-5720.19677734375,-6240.1064453125) translate(3590.279052734375,1805.3057861328125) scale(2.951813220977783,2.6446099281311035) translate(-3590.279052734375,-1805.3057861328125) translate(13.63400650024414,621.0006713867188) scale(0.4525339603424072,0.5413690805435181) translate(-13.63400650024414,-621.0006713867188) translate(911.1281127929688,1147.0928955078125) scale(0.5443689823150635,0.4974423348903656) translate(-911.1281127929688,-1147.0928955078125) translate(29.917892456054688,2356.842041015625) scale(0.9711382985115051,1.0288652181625366) translate(-29.917892456054688,-2356.842041015625) translate(83.17271423339844,16.77293586730957) scale(1.0522092580795288,1) translate(-83.17271423339844,-16.77293586730957) translate(9.10329818725586,-17.963804244995117) scale(1.0793899297714233,1) translate(-9.10329818725586,17.963804244995117) translate(8.433743476867676,-17.963804244995117) scale(1,1.0985718965530396) translate(-8.433743476867676,17.963804244995117) translate(1.6167723515536636e-7,6.533082341775298e-8) scale(1.0091938972473145,1) translate(-1.6167723515536636e-7,-6.533082341775298e-8) translate(1.6020385373849422e-7,-7.904975891113281) scale(1.0182201862335205,1) translate(-1.6020385373849422e-7,7.904975891113281) " id="CorelCorpID_0Corel-Layer"/>
   <g stroke="null" id="_620262320">
    <rect stroke="null" id="svg_1" height="60.241728" width="60.414551" y="-0.540533" x="0" class="fil0"/>
    <path stroke="null" id="svg_2" d="m20.915367,10.74197l4.183073,7.111396l7.680397,-2.461637l-2.057249,6.974638c-0.342875,-0.068379 -0.617175,-0.068379 -0.96005,-0.068379c-0.68575,0 -1.371499,0.068379 -1.988674,0.205136c-1.440074,-2.324879 -3.977348,-3.897592 -6.857497,-3.897592c-4.457373,0 -8.091847,3.624077 -8.091847,8.068699c0,2.598395 1.23435,4.923274 3.154449,6.359229c-0.891475,0.957303 -1.577224,2.051364 -2.057249,3.282183l-4.937398,1.641091l2.400124,-7.863563l-7.337522,-3.41894l7.543247,-3.965971l-2.605849,-7.316532l8.297572,2.256501l3.634474,-6.906259zm0.068575,9.983306c1.988674,0 3.703049,0.888924 4.800248,2.393258c-3.085874,1.230819 -5.348848,4.03435 -6.103173,7.316532c-0.754325,0.341894 -1.440074,0.752167 -2.125824,1.230819c-1.577224,-1.094061 -2.537274,-2.940289 -2.537274,-4.923274c0,-3.350562 2.674424,-6.017335 5.966023,-6.017335zm8.777596,3.965971c4.114498,0 7.474672,3.145425 7.817547,7.111396c0.8229,-0.683788 1.920099,-1.094061 3.017299,-1.094061c2.537274,0 4.594523,1.982985 4.800248,4.444622c0.41145,-0.068379 0.891475,-0.136758 1.302924,-0.136758c3.497324,0 6.377472,2.87191 6.377472,6.359229c0,3.487319 -2.880149,6.359229 -6.377472,6.359229c-0.068575,0 -0.13715,0 -0.2743,0c-0.13715,0 -0.342875,0 -0.5486,0l-21.326816,0c-0.342875,0.068379 -0.68575,0.068379 -1.028625,0.068379c-0.342875,0 -0.617175,0 -0.96005,-0.068379c-0.480025,0 -0.891475,-0.068379 -1.23435,-0.273515c-3.291599,-0.957303 -5.623148,-3.965971 -5.623148,-7.45329c0,-3.829213 2.674424,-6.974638 6.240323,-7.726805c0.068575,-4.171107 3.565899,-7.590047 7.817547,-7.590047z" class="fil1"/>
   </g>
  </g>
 </g>
</svg>