<svg width="59.99999999999999" height="59.99999999999999" xmlns="http://www.w3.org/2000/svg">
 <defs>
  <style type="text/css">
   <![CDATA[
    .fil0 {fill:#green}
   ]]>
  </style>
 </defs>
 <g>
  <title>background</title>
  <rect fill="none" id="canvas_background" height="62" width="62" y="-1" x="-1"/>
 </g>
 <g>
  <title>Layer 1</title>
  <g stroke="null" id="Слой_x0020_1">
   <metadata stroke="null" transform="translate(0,16.392248153686523) translate(2.5894031524658203,0) translate(-1.4704432487487793,0) translate(1.4704432487487793,0) translate(0,-1291) translate(-297,0) translate(-662,-323) translate(1.4704432487487793,0) scale(0.2752441465854645) translate(-1.4704432487487793,0) translate(-4.547473508864641e-13,0) scale(0.3821156322956085) translate(4.547473508864641e-13,0) translate(1.8189894035458565e-12,1.8189894035458565e-12) scale(0.9274687170982361) translate(-1.8189894035458565e-12,-1.8189894035458565e-12) " id="CorelCorpID_0Corel-Layer"/>
   <g stroke="null" id="_622706160">
    <path class="fil0" stroke="null" id="svg_1" d="m54.776838,21.464672l2.633758,0l0,17.070656l-2.633758,0l0,5.072424l-52.187435,0l0,-27.215503l52.187435,0l0,5.072424zm-47.212558,-0.877919l42.335227,0l1.073013,0l0,4.974877l2.633758,0l0,1.170559l0,6.633169l0,1.170559l-2.633758,0l0,3.804318l0,1.073013l-1.073013,0l-42.335227,0l-1.170559,0l0,-1.073013l0,-16.582923l0,-1.170559l1.170559,0z" class="fil0"/>
    <polygon class="fil0" stroke="null" id="svg_2" points="8.929932594299316,22.927871227264404 16.63611602783203,22.927871227264404 16.63611602783203,37.16967582702637 8.929932594299316,37.16967582702637 " class="fil0"/>
    <polygon class="fil0" stroke="null" id="svg_3" points="19.56251335144043,22.927871227264404 27.268695831298828,22.927871227264404 27.268695831298828,37.16967582702637 19.56251335144043,37.16967582702637 " class="fil0"/>
    <polygon class="fil0" stroke="null" id="svg_4" points="30.195091247558594,22.927871227264404 37.901268005371094,22.927871227264404 37.901268005371094,37.16967582702637 30.195091247558594,37.16967582702637 " class="fil0"/>
    <polygon class="fil0" stroke="null" id="svg_5" points="40.827674865722656,22.927871227264404 48.533851623535156,22.927871227264404 48.533851623535156,37.16967582702637 40.827674865722656,37.16967582702637 " class="fil0"/>
   </g>
  </g>
 </g>
</svg>