<?xml version="1.0" encoding="UTF-8"?>
<!DOCTYPE svg PUBLIC "-//W3C//DTD SVG 1.1//EN" "http://www.w3.org/Graphics/SVG/1.1/DTD/svg11.dtd">
<!-- Creator: CorelDRAW X7 -->
<svg xmlns="http://www.w3.org/2000/svg" xml:space="preserve" width="300px" height="300px" version="1.1" style="shape-rendering:geometricPrecision; text-rendering:geometricPrecision; image-rendering:optimizeQuality; fill-rule:evenodd; clip-rule:evenodd"
viewBox="0 0 3000000 3000000"
 xmlns:xlink="http://www.w3.org/1999/xlink">
 <defs>
  <style type="text/css">
   <![CDATA[
    .str0 {stroke:#FEFEFE;stroke-width:9000.07}
    .fil0 {fill:#FEFEFE}
   ]]>
  </style>
 </defs>
 <g id="Слой_x0020_1">
  <metadata id="CorelCorpID_0Corel-Layer"/>
  <path class="fil0 str0" d="M1799294 426936l-7040 7583 -19453 -8315c-46606,-19937 -64158,-41303 -78461,-58737 -11965,-14551 -20043,-24389 -82158,-18732 -25630,61524 -10181,78485 28760,121029 6768,7393 14292,15590 20162,22216l47 -47c82784,93202 138214,148029 189769,199053 70075,69319 133383,131918 245116,269553 84993,104658 113340,219521 97099,332577 -17327,120686 -85784,238526 -190159,338731 -44929,43170 -73500,62127 -99461,79359 -21201,14091 -40607,26953 -66709,52985l-1984 1984 -2268 1548 -199100 136690c-120261,366888 -100218,368802 -103241,753903 6378,42225 13051,86245 21012,141332l-36 0c4796,29079 -8043,52571 -30673,68516 -12083,8493 -27189,14658 -43571,17823l0 24c-15473,3024 -32398,3449 -49194,945l-118 0c-42780,-6414 -85229,-31843 -103241,-82961l-330 -1063c-71162,-227601 -12532,-627005 45248,-840125l5941 -22016c-107198,31854 -203139,97241 -287660,154867l-3921 2681 -284034 217124 -57815 44209 9661 -72201c19004,-141663 55619,-272624 103631,-392035 54815,-136324 124430,-257588 199726,-362707 46725,-65269 119422,-151171 194458,-230305 68717,-72497 139679,-139419 194671,-179695 20906,-15295 44941,-33189 68575,-52039 23056,-18390 45473,-37560 63521,-55714l4689 -4712 5952 -2256c31713,-12059 64796,-7996 92458,6094l-24 48c13630,6921 26079,16394 36249,27413l-71 71c10441,11292 18779,24390 24130,38410l47 -24c9732,25571 9957,54331 -3992,81792l-1087 2150 -1736 2327c-21402,28524 -67666,67583 -122623,113942 -69756,58831 -154265,130158 -213651,201155 -18272,21827 -38268,44067 -59056,67217 -62457,69567 -133040,148076 -176470,237167 19914,-7902 38764,-15945 57379,-23906 69402,-29634 136182,-58169 246568,-75508 92068,-14433 145443,-50587 241455,-115631 22217,-15059 46453,-31500 66178,-44528 49264,-32551 89776,-68575 120544,-106713 41575,-51485 65552,-106867 69875,-162864 4287,-55595 -10772,-112595 -47150,-167659 -23044,-34878 -54650,-69130 -95210,-101882 -52028,-42013 -190135,-182683 -298526,-311424 -77587,-92139 -140918,-179978 -150048,-226242 -22914,-115808 19772,-207651 90343,-266471 33237,-27697 72686,-47906 114143,-59599 41528,-11681 85418,-15011 127619,-9023 88737,12650 169879,65965 207155,168355l6307 17316 -7594 8161c32811,40276 87284,123426 142855,213876 84603,137729 172395,293175 189651,338932l15756 41693 -30980 -32103 -427905 -443614z"/>
 </g>
</svg>
