<?xml version="1.0" encoding="UTF-8"?>
<!DOCTYPE svg PUBLIC "-//W3C//DTD SVG 1.1//EN" "http://www.w3.org/Graphics/SVG/1.1/DTD/svg11.dtd">
<!-- Creator: CorelDRAW X7 -->
<svg xmlns="http://www.w3.org/2000/svg" xml:space="preserve" width="378px" height="304px" version="1.1" style="shape-rendering:geometricPrecision; text-rendering:geometricPrecision; image-rendering:optimizeQuality; fill-rule:evenodd; clip-rule:evenodd"
viewBox="0 0 3780000 3040011"
 xmlns:xlink="http://www.w3.org/1999/xlink">
 <defs>
  <style type="text/css">
   <![CDATA[
    .fil0 {fill:#FEFEFE;fill-rule:nonzero}
   ]]>
  </style>
 </defs>
 <g id="Слой_x0020_1">
  <metadata id="CorelCorpID_0Corel-Layer"/>
  <path class="fil0" d="M3047795 547657l258970 416802 260151 418727c33933,54496 17232,126190 -37264,160123 -19158,11894 -40418,17575 -61406,17539l0 178 -127442 0 34524 55618 328727 529054c33933,54497 17220,126178 -37264,160112 -19170,11893 -40430,17586 -61418,17551l0 177 -180285 0 335991 540700c33886,54497 17185,126214 -37312,160112 -19157,11893 -40417,17586 -61406,17586l0 177 -714429 0 -714465 0c-64288,0 -116434,-52145 -116434,-116469 0,-24909 7854,-48035 21224,-66992l44741 -71965 370242 -107c66107,0 130737,-18531 186887,-53445 165060,-102745 216155,-322159 113552,-487290l-151560 -243947c149907,-107233 193147,-315947 94572,-474593l-196679 -316549c108391,-101056 142891,-262089 84001,-399074l165213 -265915c33898,-54496 105615,-71197 160112,-37299 16323,10169 29268,23752 38457,39189zm-1109192 -492948l258958 416766 260163 418739c33933,54485 17232,126178 -37264,160111 -19158,11894 -40429,17575 -61406,17540l0 177 -127453 0 34535 55619 328715 529054c33933,54496 17232,126190 -37264,160123 -19158,11894 -40418,17575 -61406,17540l0 177 -180296 0 335954 540700c33934,54496 17233,126225 -37264,160111 -19157,11941 -40429,17587 -61406,17587l0 177 -714476 0 -714430 0c-64288,0 -116422,-52146 -116422,-116434 0,-24945 7854,-48071 21189,-67016l332518 -535125 -180297 0c-64287,0 -116433,-52146 -116433,-116434 0,-24945 7866,-48036 21236,-67016l325242 -523444 34536 -55619 -127454 0c-64276,0 -116422,-52146 -116422,-116422 0,-24957 7855,-48047 21225,-67028l256690 -413117 260152 -418691c33898,-54497 105626,-71198 160123,-37264 16311,10134 29256,23716 38457,39189zm-1006459 492948l110327 177556 -18496 29729c-38882,58205 -59646,126497 -59646,196678 0,102355 43512,194612 112985,259242l-190466 306581c-38882,58216 -59658,126496 -59658,196678 0,118607 58430,223667 148017,287919l-145383 234013c-38882,58182 -59622,126497 -59622,196643 0,195450 158611,354062 354061,354062l472975 0 48154 77480c33886,54497 17185,126214 -37311,160112 -19122,11893 -40382,17586 -61406,17586l0 177 -714430 0 -714429 0c-64324,0 -116470,-52145 -116470,-116469 0,-24909 7890,-48035 21225,-66992l332518 -535114 -180297 0c-64276,0 -116457,-52146 -116457,-116434 0,-24945 7890,-48035 21225,-67016l325289 -523444 34524 -55618 -127442 0c-64323,0 -116469,-52146 -116469,-116434 0,-24945 7901,-48071 21236,-67016l256714 -413117 260128 -418692c33933,-54496 105615,-71197 160111,-37299 16359,10169 29304,23752 38493,39189z"/>
 </g>
</svg>
