<?xml version="1.0" encoding="UTF-8"?>
<!DOCTYPE svg PUBLIC "-//W3C//DTD SVG 1.1//EN" "http://www.w3.org/Graphics/SVG/1.1/DTD/svg11.dtd">
<!-- Creator: CorelDRAW X7 -->
<svg xmlns="http://www.w3.org/2000/svg" xml:space="preserve" width="100px" height="100px" version="1.1" style="shape-rendering:geometricPrecision; text-rendering:geometricPrecision; image-rendering:optimizeQuality; fill-rule:evenodd; clip-rule:evenodd"
viewBox="0 0 1000000 1000000"
 xmlns:xlink="http://www.w3.org/1999/xlink">
 <defs>
  <style type="text/css">
   <![CDATA[
    .fil0 {fill:#FEFEFE}
   ]]>
  </style>
 </defs>
 <g id="Слой_x0020_1">
  <metadata id="CorelCorpID_0Corel-Layer"/>
  <path class="fil0" d="M500000 30071c259537,0 469929,210392 469929,469929 0,259537 -210392,469929 -469929,469929 -259537,0 -469929,-210392 -469929,-469929 0,-259537 210392,-469929 469929,-469929zm-293235 492913c-20551,-21354 -19878,-55358 1477,-75898 21354,-20551 55347,-19890 75898,1477l164245 169997 267475 -276805c20551,-21355 54544,-22028 75898,-1477 21355,20552 22028,54544 1477,75899l-306168 316845 -1465 1476c-21366,20551 -55358,19890 -75910,-1476l-202927 -210038z"/>
  <path class="fil0" d="M328621 17717l328113 0c29303,0 53268,24000 53268,53268l0 17764c0,29279 -24001,53280 -53268,53280l-7997 0 0 5326 0 250691 276251 378145 5114 7004 1807 8256c11669,53469 6402,97336 -16949,130903 -23551,33862 -63142,54012 -119670,59610l-3130 308 -803 0 -289715 0 -3284 0 -289715 0 -791 0 -3142 -308c-56540,-5598 -96119,-25736 -119670,-59610 -23351,-33567 -28642,-77422 -16949,-130903l1748 -7961 4855 -6826 269470 -378310 0 -250999 0 -5326 -15543 0c-29292,0 -53268,-23977 -53268,-53280l0 -17764c0,-29304 23964,-53268 53268,-53268zm-25819 577138l390192 0 -116930 -160064 -7867 -10748 0 -13004 0 -223419 -143493 0 0 223419 0 12697 -7547 10582 -114355 160537z"/>
 </g>
</svg>
