<?xml version="1.0" encoding="UTF-8"?>
<!DOCTYPE svg PUBLIC "-//W3C//DTD SVG 1.1//EN" "http://www.w3.org/Graphics/SVG/1.1/DTD/svg11.dtd">
<!-- Creator: CorelDRAW X7 -->
<svg xmlns="http://www.w3.org/2000/svg" xml:space="preserve" width="1562px" height="331px" version="1.1" style="shape-rendering:geometricPrecision; text-rendering:geometricPrecision; image-rendering:optimizeQuality; fill-rule:evenodd; clip-rule:evenodd"
viewBox="0 0 15620000 3309995"
 xmlns:xlink="http://www.w3.org/1999/xlink">
 <defs>
  <style type="text/css">
   <![CDATA[
    .str0 {stroke:#fff;stroke-width:59055.2}
    .fil1 {fill:none}
    .fil0 {fill:#fff}
   ]]>
  </style>
 </defs>
 <g id="Слой_x0020_1">
  <metadata id="CorelCorpID_0Corel-Layer"/>
  <polygon class="fil0" points="11993303,906828 11997201,899103 12001099,891343 12005965,883607 12009863,875859 12014729,869091 12019583,861343 12023469,853584 12028335,845847 12586867,845847 12581032,852615 12575186,860375 12570320,867143 12564485,874891 12558650,882627 12553784,890375 12548918,898135 12543084,906828 "/>
  <polygon class="fil0" points="11934921,1037529 11937851,1029781 11940768,1022044 11943685,1014284 11945634,1007517 11948551,999769 11952437,992032 11955366,984284 11958272,977517 12506091,977517 12502217,984284 12499288,992032 12496371,998800 12493454,1006560 12490536,1014284 12487619,1022044 12484690,1029781 12481772,1037529 "/>
  <polygon class="fil0" points="11905725,1168218 11906717,1162407 11907685,1156596 11908654,1149828 11909622,1144017 11910591,1138218 11911583,1131426 11912551,1125627 11913520,1118848 11914488,1117867 11914488,1115942 11914488,1114974 11914488,1113037 11915457,1112068 11915457,1111100 11915457,1109174 11916449,1108194 12462308,1108194 12461339,1109174 12461339,1110143 12461339,1111100 12460371,1113037 12460371,1114017 12460371,1114974 12460371,1115942 12459402,1116911 12458434,1123690 12457442,1130458 12455505,1136269 12454536,1143060 12453568,1149828 12452576,1155627 12451607,1162407 12450639,1168218 "/>
  <polygon class="fil0" points="11899890,1298907 11899890,1292127 11899890,1285360 11898921,1277612 11898921,1269863 11898921,1262127 11898921,1254367 11899890,1246643 11899890,1238883 12442843,1238883 12442843,1246643 12441875,1254367 12441875,1262127 12441875,1269863 12441875,1276643 12441875,1284379 12441875,1292127 12442843,1298907 "/>
  <polygon class="fil0" points="11923252,1430564 11921315,1422828 11919355,1416037 11917418,1408301 11915457,1400553 11913520,1393785 11912551,1386037 11910591,1378301 11908654,1369584 12449670,1369584 12450639,1377320 12452576,1385068 12453568,1392805 12455505,1400553 12457442,1408301 12459402,1416037 12461339,1422828 12463300,1430564 "/>
  <polygon class="fil0" points="11968004,1561254 11966067,1555454 11963138,1548663 11961201,1542864 11958272,1537053 11956335,1530285 11954386,1524462 11951469,1517694 11949520,1510927 11948551,1509946 11948551,1508978 11948551,1507053 11947571,1506084 11947571,1505104 11946603,1503167 11946603,1502210 11945634,1501242 12490536,1501242 12494422,1508978 12498320,1516726 12503186,1525442 12507060,1532210 12511926,1539970 12516792,1547706 12521658,1554474 12527517,1561254 "/>
  <polygon class="fil0" points="13034470,1893309 13027643,1897171 13020840,1900077 13014025,1902994 13008190,1906856 13001375,1909762 12994560,1912679 12987757,1915573 12980954,1918478 12954663,1929120 12927426,1937837 12900178,1944616 12873911,1949447 12846663,1953333 12820395,1956226 12794127,1958163 12767836,1959132 12716281,1959132 12666651,1957207 12618969,1956226 12574217,1956226 12532383,1956226 12489556,1955258 12468154,1954289 12446741,1952364 12425339,1949447 12403938,1946541 12382524,1942679 12361123,1937837 12339721,1933006 12319276,1927195 12298843,1920404 12278410,1911687 12257977,1902994 12238512,1893309 "/>
  <polygon class="fil0" points="13237832,1762620 13227131,1770368 13217399,1779073 13207667,1786821 13196966,1793588 13186253,1801336 13176521,1809073 13165820,1815864 13155120,1822632 12143162,1822632 12141201,1821663 12139264,1819738 12138296,1817789 12136347,1815864 12134398,1813915 12132449,1811990 12130512,1810053 12128563,1807147 12123697,1802305 12118831,1796506 12113965,1790695 12109111,1784872 12104244,1779073 12100347,1774230 12095481,1768419 12090615,1762620 "/>
  <polygon class="fil0" points="13375998,1631919 13369183,1639667 13362380,1647403 13354596,1655163 13347781,1662911 13340010,1669679 13333183,1677427 13325411,1685163 13317616,1691954 12038067,1691954 12033201,1685163 12028335,1677427 12023469,1669679 12019583,1662911 12014729,1655163 12010831,1647403 12005965,1639667 12002067,1631919 12606332,1631919 12611198,1634836 12616064,1636761 12620930,1639667 12625796,1641604 12630662,1643553 12635528,1645478 12641363,1647403 12646229,1649352 12662753,1653226 12680281,1656120 12698753,1656120 12716281,1655163 12733796,1651277 12752281,1646447 12770765,1639667 12788292,1631919 "/>
  <polygon class="fil0" points="13476214,1501242 13471348,1508978 13466482,1515757 13461628,1523494 13455793,1531254 13450927,1538990 13445092,1546738 13440226,1553506 13434391,1561254 12882674,1561254 12889478,1554474 12896281,1547706 12902139,1539970 12908942,1532210 12914777,1525442 12921592,1516726 12927426,1508978 12934230,1501242 "/>
  <polygon class="fil0" points="13546277,1369584 13542392,1377320 13539474,1385068 13535577,1392805 13532659,1400553 13528773,1408301 13524876,1415080 13520978,1422828 13517081,1430564 12978025,1430564 12981923,1422828 12985820,1416037 12989694,1408301 12993592,1400553 12997489,1392805 13000407,1385068 13004293,1377320 13007222,1369584 "/>
  <polygon class="fil0" points="13587155,1238883 13586187,1241800 13586187,1244694 13585195,1246643 13585195,1249537 13584226,1252442 13583258,1255336 13583258,1257285 13582289,1260178 13581321,1265021 13579360,1269863 13578392,1274694 13577423,1279537 13575463,1284379 13574494,1289222 13573525,1294064 13571588,1298907 13033478,1298907 13034470,1293096 13036407,1287297 13038344,1281486 13040304,1275686 13041273,1268895 13043210,1263084 13044202,1257285 13046139,1250493 13046139,1249537 13047108,1247600 13047108,1246643 13047108,1244694 13048076,1243726 13048076,1241800 13048076,1240820 13049045,1238883 "/>
  <polygon class="fil0" points="13603691,1108194 13602722,1115942 13602722,1122710 13602722,1130458 13601754,1138218 13600762,1145954 13600762,1152733 13599793,1160470 13598825,1168218 13061706,1168218 13062675,1160470 13063643,1152733 13064635,1144985 13064635,1138218 13065604,1130458 13066572,1122710 13066572,1114974 13067541,1108194 "/>
  <polygon class="fil0" points="13595896,977517 13597856,984284 13598825,992032 13598825,999769 13599793,1007517 13600762,1014284 13601754,1022044 13601754,1029781 13602722,1037529 13068509,1037529 13067541,1029781 13067541,1022044 13066572,1014284 13065604,1006560 13065604,998800 13064635,992032 13063643,984284 13062675,977517 "/>
  <polygon class="fil0" points="13564762,845847 13567691,853584 13569628,861343 13571588,868111 13574494,875859 13576455,883607 13578392,891343 13580329,899103 13582289,906828 13045171,906828 13042241,898135 13039336,890375 13036407,882627 13032509,874891 13029604,867143 13025706,860375 13021808,853584 13017923,845847 "/>
  <polygon class="fil0" points="13506380,715158 13510277,722906 13514175,729674 13518073,737434 13521947,745158 13525844,752918 13529742,759686 13533640,767434 13536545,775170 12955655,775170 12945923,769371 12937159,762603 12927426,756792 12916726,751950 12906993,747107 12896281,743233 12884611,739359 12872942,735485 12859312,732591 12845682,729674 12833044,727749 12819426,727749 12805796,727749 12792166,727749 12779529,729674 12765899,731623 12753249,734516 12739631,738391 12726981,743233 12714344,748076 12701682,753875 12689021,760666 12676383,767434 12664702,775170 12077953,775170 12083811,767434 12090615,760666 12096449,752918 12102284,745158 12108130,737434 12114945,729674 12120780,722906 12127583,715158 "/>
  <polygon class="fil0" points="13412966,584481 13418825,591249 13424659,598997 13431462,606733 13437297,613524 13443132,621260 13448978,629009 13454813,636745 13460647,644493 12194729,644493 12202512,636745 12210296,629009 12219060,621260 12226843,613524 12234615,606733 12243378,598997 12252142,591249 12259914,584481 "/>
  <polygon class="fil0" points="13263131,452811 13269935,457654 13276750,462497 13283553,467339 13291348,472182 13298151,477024 13304954,482823 13311781,487666 13318584,493465 13321513,495402 13324419,498308 13327348,500245 13330277,503150 13333183,506067 13336112,507993 13339017,510898 13341947,513792 12351390,513792 12357225,508961 12363060,505075 12369886,501225 12375721,496382 12381556,492508 12388359,488634 12394205,484760 12400040,479918 12405875,477024 12411709,473138 12417544,470233 12422410,466359 12428245,463465 12434103,459591 12439938,456697 12444804,452811 "/>
  <polygon class="fil0" points="12957592,336638 12977056,341481 12996521,346323 13015974,351166 13035438,356965 13054903,362776 13075336,369567 13094789,375367 13115222,383103 12591733,383103 12616064,373441 12641363,364725 12665682,356965 12690013,350197 12714344,343418 12738651,338575 12762981,333733 12786332,329870 12809694,327922 12832064,325996 12854446,325028 12875848,325028 12897273,326965 12917694,328890 12938127,331807 "/>
  <polygon class="fil0" points="10784798,1893309 10774097,1960100 11324834,1960100 11335535,1893309 "/>
  <polygon class="fil0" points="10805231,1762620 10795499,1822632 11347204,1822632 11356937,1762620 "/>
  <polygon class="fil0" points="10826621,1631919 10816901,1691954 11367637,1691954 11377370,1631919 "/>
  <polygon class="fil0" points="10848046,1501242 10838314,1561254 11388071,1561254 11397803,1501242 "/>
  <polygon class="fil0" points="10869448,1369584 10859716,1430564 11409496,1430564 11419216,1369584 "/>
  <polygon class="fil0" points="10889881,1238883 10880149,1298907 11429917,1298907 11439649,1238883 "/>
  <polygon class="fil0" points="10911294,1108194 10901562,1168218 11451319,1168218 11460082,1108194 "/>
  <polygon class="fil0" points="10932696,977517 10922964,1037529 11471752,1037529 11481484,977517 "/>
  <polygon class="fil0" points="10954098,845847 10944365,906828 11492197,906828 11501917,845847 "/>
  <polygon class="fil0" points="10475361,715158 10461743,772276 10596034,775170 11999138,775170 12011800,715158 "/>
  <polygon class="fil0" points="10504558,584481 10490928,644493 12027366,644493 12040016,584481 "/>
  <polygon class="fil0" points="10534723,452811 10520125,513792 12055583,513792 12069213,452811 "/>
  <polygon class="fil0" points="12095481,331807 10561971,331807 10550290,383103 12083811,383103 "/>
  <polygon class="fil0" points="10616467,1893309 10630086,1960100 10097821,1960100 10087120,1893309 "/>
  <polygon class="fil0" points="10588239,1762620 10600900,1822632 10076420,1822632 10066687,1762620 "/>
  <polygon class="fil0" points="10476329,1238883 10488991,1298907 10013172,1298907 10002471,1238883 "/>
  <polygon class="fil0" points="10448125,1108194 10460774,1168218 9990801,1168218 9980101,1108194 "/>
  <polygon class="fil0" points="10419908,977517 10432546,1037529 9967439,1037529 9956738,977517 "/>
  <polygon class="fil0" points="10391680,845847 10405310,906828 9944077,906828 9933376,845847 "/>
  <polygon class="fil0" points="9700829,383103 9726128,331807 10281731,328890 10292432,383103 "/>
  <polygon class="fil0" points="9632714,513792 9663848,452811 10307999,452811 10320660,513792 "/>
  <polygon class="fil0" points="9564600,644493 9595746,584481 10336227,584481 10348865,644493 "/>
  <polygon class="fil0" points="9497466,775170 9528600,715158 10364444,715158 10377081,775170 "/>
  <polygon class="fil0" points="9429352,906828 9460486,845847 9928522,845847 9901286,906828 "/>
  <polygon class="fil0" points="9362206,1037529 9393340,977517 9869160,977517 9840943,1037529 "/>
  <polygon class="fil0" points="9294092,1168218 9325238,1108194 9808841,1108194 9781581,1168218 "/>
  <polygon class="fil0" points="9226958,1298907 9258092,1238883 9749478,1238883 9722230,1298907 "/>
  <polygon class="fil0" points="9158844,1430564 9189978,1369584 9690128,1369584 9683301,1386037 10028738,1386037 10025821,1369584 10504558,1369584 10517219,1430564 "/>
  <polygon class="fil0" points="9090730,1561254 9122844,1501242 10531806,1501242 10545424,1561254 "/>
  <polygon class="fil0" points="9023584,1691954 9054730,1631919 10560011,1631919 10572672,1691954 "/>
  <polygon class="fil0" points="8955481,1822632 8986615,1762620 9508167,1762620 9480919,1822632 "/>
  <polygon class="fil0" points="9417659,1965900 8882501,1965900 8919470,1893309 9449785,1893309 "/>
  <polygon class="fil0" points="14678897,1893309 14647763,1964943 14358759,1964943 14349038,1893309 "/>
  <polygon class="fil0" points="14737279,1762620 14711011,1822632 14339306,1822632 14331522,1762620 "/>
  <polygon class="fil0" points="14795661,1631919 14768413,1691954 14321802,1691954 14314007,1631919 "/>
  <polygon class="fil0" points="14853074,1501242 14826794,1561254 14304274,1561254 14296503,1501242 "/>
  <polygon class="fil0" points="14911468,1369584 14884208,1430564 14286770,1430564 14278007,1369584 "/>
  <polygon class="fil0" points="14968858,1238883 14942590,1298907 14269243,1298907 14260491,1238883 "/>
  <polygon class="fil0" points="15503071,1893309 15503071,1961057 14997086,1958163 14997086,1893309 "/>
  <polygon class="fil0" points="15503071,1762620 15503071,1822632 14997086,1822632 14997086,1762620 "/>
  <polygon class="fil0" points="15503071,1631919 15503071,1691954 14998054,1691954 14998054,1631919 "/>
  <polygon class="fil0" points="15502079,1501242 15502079,1561254 14998054,1561254 14999023,1501242 "/>
  <polygon class="fil0" points="15502079,1369584 15502079,1430564 14999023,1430564 14999023,1369584 "/>
  <polygon class="fil0" points="15502079,1238883 15502079,1298907 14999023,1298907 14999992,1238883 "/>
  <polygon class="fil0" points="14959125,383103 14983456,331807 15500142,327922 15500142,383103 "/>
  <polygon class="fil0" points="14897838,513792 14926043,452811 15500142,452811 15500142,513792 "/>
  <polygon class="fil0" points="14836527,644493 14864743,584481 15500142,584481 15500142,644493 "/>
  <polygon class="fil0" points="14775227,775170 14803456,715158 15501110,715158 15501110,775170 "/>
  <polygon class="fil0" points="14712948,906828 14741176,845847 15501110,845847 15501110,906828 "/>
  <polygon class="fil0" points="14651660,1037529 14679877,977517 15501110,977517 15501110,1037529 "/>
  <polygon class="fil0" points="14017231,383103 14035727,327922 14549483,331807 14556286,383103 "/>
  <polygon class="fil0" points="13971498,513792 13992900,452811 14567011,452811 14575751,513792 "/>
  <polygon class="fil0" points="13925754,644493 13947179,584481 14585483,584481 14594247,644493 "/>
  <polygon class="fil0" points="13880034,775170 13901447,715158 14604948,715158 14613700,775170 "/>
  <polygon class="fil0" points="13834301,906828 13855703,845847 14623432,845847 14632196,906828 "/>
  <polygon class="fil0" points="13788569,1037529 13809971,977517 14642897,977517 14650692,1037529 "/>
  <polygon class="fil0" points="13742825,1168218 13764250,1108194 15501110,1108194 15502079,1168218 14250758,1168218 14249790,1159513 14246873,1168218 "/>
  <polygon class="fil0" points="13697104,1298907 13718506,1238883 14222554,1238883 14201128,1298907 "/>
  <polygon class="fil0" points="13651372,1430564 13672774,1369584 14176810,1369584 14156376,1430564 "/>
  <polygon class="fil0" points="13605628,1561254 13627041,1501242 14132046,1501242 14110644,1561254 "/>
  <polygon class="fil0" points="13559896,1691954 13581321,1631919 14086313,1631919 14065880,1691954 "/>
  <polygon class="fil0" points="13514175,1822632 13535577,1762620 14041561,1762620 14020160,1822632 "/>
  <polygon class="fil0" points="13973447,1958163 13467462,1958163 13489844,1893309 13995829,1893309 "/>
  <path class="fil0" d="M7700795 1476320l0 -174626 -11610 -16370 -31158 -15909 -56799 -19075 12 -24 -58181 -15768 -50540 -5692 -555 -119 -58677 -8563 -43972 -944 -58217 944 -50020 6579 -52571 10477 -52464 13263 -46465 17103 -66295 24567 -38433 25299 -36662 30638 -59 0 -33992 28205 -34193 39484 -23480 44173 -18851 45721 -12000 53598 -5893 40665 0 47457 2952 37973 7843 35078 16122 45449 15815 44658 25512 39638 26078 30897 36851 29032 -24 35 30414 23823 0 0 39756 28973 36767 16819 1181 649 39544 22299 41397 12048 0 11 37512 10205 46654 6697 -12 24 49949 6567 48591 0 47303 0 55228 -4725 118 -59 48579 -3815 52654 -11905 47811 -17233 0 12 49157 -20740 -23 -35 39118 -17930 20882 -14019 0 -353906 -315024 0 0 139228 86716 4122 5552 260 4169 3425 24709 20327 4311 3544 921 5255 5149 29044 473 2657 -532 2611 -5149 25169 -921 4500 -3508 3295 -22654 21295 -1937 1819 -2303 1051 -38079 17434 -1996 909 -2374 378 -48378 7736 -1394 225 -1665 -48 -33980 -968 -1122 -59 -92658 -8717 -850 -82 -1016 -213 -46323 -9673 -1878 -390 -1488 -673 -39118 -17410 -910 -401 -519 -307 -39130 -22264 -1052 -603 -1252 -1039 -26763 -22264 -1205 -992 -980 -1228 -21615 -27118 -826 -1040 -485 -838 -27791 -48402 -1169 -2031 -449 -2185 -8244 -39697 -177 -863 -71 -1240 -2055 -36779 -59 -1122 59 -756 4122 -50351 130 -1488 555 -1736 11327 -34854 744 -2304 1252 -1736 29858 -41622 768 -1075 1157 -1086 33969 -31961 1452 -1370 1914 -1028 48378 -26137 1264 -685 862 -308 42201 -15484 897 -331 780 -200 69000 -17433 1417 -367 1500 -106 53540 -3874 1039 -71 1571 130 45307 3874 118 0 51461 4843 992 94 945 201 63460 13476 0 -35 51485 9673 1594 307 1890 815 59433 25571 58004 14173zm31902 6768l0 12579 -19937 14468 -79276 -19358 -1323 -319 -1287 -555 -58843 -25323 -49866 -9378 -378 -118 -62905 -13358 -50469 -4748 12 -12 -43607 -3732 -50988 3697 -66768 16866 -40452 14846 -45213 24425 -31347 29493 -27850 38799 -10004 30803 -3933 48106 1913 34418 7607 36638 26149 45543 19807 24839 24308 20220 37559 21378 36708 16346 43441 9071 91382 8599 31619 897 44610 -7133 33791 -15461 17221 -16181 3696 -18059 -3744 -21130 -16240 -13359 -96378 -4570 -15201 -733 0 -14220 0 -168449 0 -15012 15957 0 346937 0 15957 0 0 15012 0 376583 0 7665 -6732 4524 -28831 19358 -1228 827 -1016 461 -40146 18401 -496 177 -50445 21296 -815 342 -48378 17433 -567 213 -1429 319 -55594 12579 -1524 342 -850 59 -49418 3886 -11 -47 -56469 4819 -1382 118 -59 0 -47350 0 -49430 0 -826 0 -1347 -177 -51484 -6768 -177 0 -47363 -6780 -708 -106 -1347 -366 -39106 -10642 -248 -59 -43252 -12602 -1854 -532 -1642 -933 -40217 -22677 -37866 -17327 -1311 -602 -1429 -1040 -41173 -30011 -437 -343 -30886 -24213 -71 0 -38079 -30000 -1240 -980 -1004 -1193 -27791 -32917 -697 -827 -484 -756 -26788 -41622 -779 -1217 -650 -1830 -16465 -46477 -16476 -46452 -354 -1004 -142 -638 -8220 -36803 -248 -1075 -71 -910 -3095 -39697 -59 -1051 0 -48401 0 -697 189 -1299 6165 -42579 189 -1063 12367 -55193 259 -1158 485 -1181 19547 -47421 224 -532 402 -767 24709 -46477 826 -1535 1052 -1217 36023 -41622 803 -909 1016 -839 34961 -29020 -24 -23 37063 -30980 390 -331 1098 -721 41185 -27118 1654 -1086 1654 -615 67937 -25157 47362 -17445 886 -319 791 -201 53528 -13547 815 -165 53527 -10666 1122 -177 51473 -6768 756 -106 1181 -12 59716 -968 555 0 45296 968 1063 24 1051 154 59150 8633 11 -35 51473 5799 933 106 1559 426 60732 16452 993 237 57649 19358 851 283 1393 709 36036 18402 3484 1783 2185 3083 16465 23232 2681 3791 0 4477 0 185870zm-1671533 73288l0 -166111 15082 83 401871 0 1311 0 1523 295 35032 6768 3366 649 2811 2103 23362 17433 1323 992 851 945 17504 19358 3047 3366 673 4489 3898 26137 342 2339 -401 2350 -4867 28075 -661 3815 -2528 3095 -16535 20338 -1807 2221 -2551 1405 -26280 14528 -1653 909 -1524 437 -34063 9685 -827 166 -38917 8716 -1843 414 -1464 0 -360993 0 -15082 0 0 -15000zm30165 -136016l0 121004 344445 0 36272 -8114 0 -12 32527 -9248 22075 -12201 12213 -15000 3791 -21910 -2870 -19311 -13618 -15047 -19205 -14338 -30141 -5823 -385489 0zm-252792 -203445l236446 189 531 0 497221 7759 1807 24 1382 331 49618 11610 1394 319 1264 555 33082 14516 650 354 25299 12591 1299 649 874 650 29197 21283 792 579 803 768 30153 29043 532 532 25299 27118 1358 1453 945 1771 17516 32894 827 1571 472 1890 9732 39708 473 1926 0 1594 0 37736 0 1063 -177 1170 -4866 31948 -154 1004 -437 1347 -9732 30000 -319 1004 -567 1110 -12650 25169 -697 1370 -838 1087 -19465 25169 -295 355 -22370 27118 -827 933 -30177 30968 -1004 1028 -1228 850 -27650 18957 11374 9650 59 59 29197 25169 1004 862 697 839 25299 30000 650 886 27236 37760 531 755 23363 36780 602 957 567 1393 17527 42603 473 1134 236 968 9732 39697 237 1169 5834 35811 177 1170 3886 49370 0 886 981 41634 342 15177 -15366 59 -255910 968 -13559 48 -1405 -13477 -2847 -27224 -10488 -46512 -6496 -28642 -16819 -39957 -16949 -31866 -17740 -28795 -33118 -39532 -28500 -31027 -36071 -15024 -283713 3650 -1842 282508 -107 14941 -14917 0 -241311 0 -15059 0 35 -15000 1937 -795958 35 -14645 14693 -307zm236812 30094l-221528 -496 -1866 766300 211323 0 1842 -282260 95 -14693 14752 -189 301642 -3874 3177 -47 2776 1157 41846 17433 3000 1252 2303 2504 31134 33886 461 520 34063 40653 803 969 496 791 18484 30012 473 815 17504 32917 342 650 248 591 17528 41610 449 1075 318 1393 6804 30024 10700 47421 201 910 95 850 1523 14610 226973 -862 -602 -25571 -12 0 -3886 -49205 -5575 -34181 -9354 -38173 -16477 -40075 -22606 -35598 -26303 -36461 -24496 -29055 -28122 -24248 -12 0 -26268 -22264 -14882 -12626 16122 -11055 42532 -29161 28842 -29599 21591 -26173 0 0 18626 -24083 11398 -22677 8976 -27662 4536 -29787 0 -35102 -8800 -35882 -15744 -29563 -23787 -25500 -28984 -27910 -27520 -20067 -23339 -11622 -12 24 -31830 -13973 -46855 -10960 -495118 -7713zm-2418664 -36437l218941 -236 10429 3638 577690 499536 3649 -481513 118 -14952 14906 0 221858 0 15071 0 0 15011 0 792852 0 15011 -15071 0 -232559 0 -5527 0 -4252 -3637 -560127 -478454 -1831 467080 -59 15011 -14964 0 -233516 0 -15142 0 118 -15071 2043 -799394 107 -14315 18118 -567zm214169 29894l-200090 212 -4193 769230 203421 0 1902 -484525 130 -32444 24673 21070 580548 495899 211949 0 0 -762852 -191871 0 -3779 499111 -248 32528 -24614 -21284 -597828 -516945zm-1176580 767516l856466 0 0 -151027 -665021 2834 -14775 59 -307 -14716 -2918 -144225 -307 -15153 15260 -95 662210 -3791 0 -142347 -659104 6614 -15637 154 496 -15567 3886 -120036 472 -14598 14658 118 660898 5681 -2457 -156756 -860387 0 6567 762851zm871537 30000l-886430 0 -14894 0 -130 -14882 -6827 -792863 -130 -15118 15154 0 890339 0 14788 0 236 14835 2917 186827 248 15260 -15389 -130 -661607 -5681 -2894 89858 658654 -6614 15201 -154 0 15095 0 172323 0 14858 -15024 83 -661961 3791 2327 114366 665363 -2834 15141 -59 0 15012 0 181027 -15082 0 0 15000zm1276111 -791233l933 764198 843698 945 0 -159744 -653327 3779 -15142 95 0 -15036 0 -150059 0 -14906 15082 -35 651663 -1890 1606 -144437 -653269 -945 -14905 -12 -118 -14811 -992 -119067 -118 -15023 15141 -48 654379 -1901 0 -131103 -844631 0zm-29102 793903l-969 -808915 -12 -15000 15036 0 874749 0 15083 0 0 15000 0 161020 0 14906 -15083 35 -654296 1914 732 89232 653564 945 15201 24 -178 15035 -1937 174272 -165 14775 -14858 48 -651438 1889 0 120119 653316 -3792 15142 -82 0 15035 0 189744 0 14965 -15083 -24 -873781 -980 -15023 -165zm3514503 -829017c208134,0 344434,47740 429072,124937 85476,77965 117779,185008 117779,302965 0,125162 -46488,237922 -147649,316500 -89079,69189 -220324,111402 -399202,111402 -178547,0 -308551,-42024 -396484,-110941 -100300,-78614 -145595,-191563 -145595,-316961 0,-117933 31051,-224941 115288,-302906 83445,-77232 218575,-124996 426791,-124996zm409808 145878c-79500,-72520 -209469,-117366 -409808,-117366 -200244,0 -328996,44835 -407315,117307 -77528,71752 -106110,171567 -106110,282083 0,116882 41882,221882 134622,294567 83079,65126 207177,104823 378803,104823 172099,0 297438,-39886 381627,-105283 93567,-72674 136571,-177485 136571,-294107 0,-110492 -29729,-210284 -108390,-282024zm-409808 68811c92091,0 156485,20256 199382,53587 50871,39508 71079,96461 71079,159626 0,62126 -24307,118158 -74846,157418 -44599,34630 -109406,55795 -195615,55795 -86208,0 -151016,-21165 -195614,-55795 -50528,-39260 -74847,-95292 -74847,-157418 0,-63165 20221,-120118 71091,-159626 42898,-33331 107280,-53587 199370,-53587zm181808 75969c-37996,-29516 -96556,-47457 -181808,-47457 -85252,0 -143799,17941 -181795,47457 -42945,33354 -60000,82417 -60000,137244 0,53504 20705,101587 63756,135024 39697,30838 98575,49677 178039,49677 79465,0 138343,-18839 178040,-49677 43051,-33437 63768,-81520 63768,-135024 0,-54827 -17067,-103890 -60000,-137244z"/>
  <g>
   <path class="fil0" d="M6078160 517654l-1914 192673 433820 0 34795 -12484 34842 -19264 27001 -27826 10559 -31524 -3851 -36354 -22075 -30567 -46429 -21154 -34842 -10606 -55300 -2894 0 0 -376606 0zm-3827 193618l1937 -194575 12 -945 933 0 377551 0 48 12 55464 2894 107 0 118 35 35019 10666 71 23 59 24 46713 21295 224 107 154 200 22370 30969 142 201 35 260 3886 36791 24 201 -59 189 -10701 31937 -71 212 -154 154 -27236 28075 -94 106 -130 71 -35044 19358 -59 36 -82 23 -35020 12579 -165 59 -166 0 -434941 0 -957 0 12 -957zm445548 -367878l-693722 0 -968 837426 249130 1937 -957 -290445 -11 -957 956 12 395918 2906 94228 -19323 70926 -23209 62067 -33768 54354 -52145 34914 -44363 22275 -53008 4843 -51082 0 -45390 -11634 -54024 -17422 -39472 -34901 -40512 -35858 -34725 -56256 -27000 -60178 -19323 -77704 -13535zm-694678 -1902l694748 0 83 0 83 24 77846 13559 48 0 82 24 60319 19370 71 24 59 23 56445 27095 142 71 106 106 36000 34866 24 24 35 35 35020 40654 94 106 59 130 17528 39697 35 94 24 83 11669 54213 24 106 0 94 0 45485 0 11 -12 83 -4866 51319 -12 142 -59 130 -22370 53244 -47 118 -83 106 -35043 44528 -47 59 -36 35 -54496 52276 -83 83 -118 59 -62268 33886 -82 47 -71 23 -71043 23233 -48 23 -59 12 -94382 19359 -94 23 -107 0 -395055 -2905 968 290445 0 945 -956 0 -251044 -1949 -956 -12 11 -933 969 -839316 0 -957 945 0zm250075 369792l1937 -194575 377551 0 55453 2894 35032 10665 46712 21296 22370 30968 3898 36791 -10701 31937 -27236 28087 -35043 19358 -35032 12579 -434941 0zm-250075 -368835l694748 0 77847 13559 60331 19359 56445 27094 36000 34866 35019 40654 17528 39697 11669 54212 0 45485 -4866 51319 -22370 53244 -35043 44539 -54496 52264 -62256 33874 -71044 23244 -94382 19358 -396024 -2905 969 291402 -251044 -1949 969 -839316zm2209726 320705l0 0 0 0zm153095 -145535l-12 0 12 0zm276815 -8705l0 0 0 0zm210426 211193l0 0 0 0zm-125067 249803l11 0 -11 0zm-264060 40548l12 0 -12 0zm-480933 -75036l0 0 0 0zm696650 -615284l0 0 0 0zm-571382 108260l0 0 0 0zm-62091 58878l0 0 0 0zm-5210450 688702l918603 0 0 -188800 -705461 2894 -945 0 -12 -933 -2929 -151985 -24 -956 969 -12 701587 -2894 0 -180106 -698646 6779 -992 12 35 -992 3874 -125847 36 -933 921 12 701575 5799 -2905 -195579 -922478 0 6792 833541zm919560 1901l-920505 0 -945 0 -12 -945 -6803 -835442 0 -956 957 0 924379 0 933 0 12 933 2929 197480 11 969 -968 -12 -701611 -5787 -3827 123945 698635 -6780 957 -12 0 957 0 182008 0 945 -945 0 -701576 2894 2882 150094 705485 -2893 957 0 0 956 0 190689 0 957 -945 0zm0 -957l-920505 0 -6803 -835441 924379 0 2929 197480 -702544 -5799 -3886 125858 699615 -6791 0 182008 -702532 2894 2917 151996 706430 -2894 0 190689zm63224 -836410l2906 840296 234543 0 0 -344634 0 -957 957 12 593564 957 956 0 0 945 0 343677 242316 -1913 0 -836458 -240390 1914 -1926 310795 -12 945 -944 0 -593564 0 -957 0 0 -956 0 -310796 -237449 -3827zm1004 841253l-2905 -842210 0 -968 968 24 239351 3850 945 24 0 933 0 310772 591662 0 1937 -310784 0 -933 945 -12 242279 -1925 969 -12 0 957 0 838359 0 933 -957 12 -244217 1925 -968 12 0 -957 0 -343689 -591650 -957 0 344646 0 945 -957 0 -236445 0 -945 0 -12 -945zm957 0l-2906 -842210 239351 3863 0 311717 593564 0 1937 -311717 242291 -1937 0 838359 -244228 1925 0 -344634 -593564 -957 0 345591 -236445 0zm1168596 -841265l1960 838395 905930 1925 0 -193642 -693792 3851 -956 11 0 -956 0 -153910 0 -945 956 0 691867 -1937 1925 -177213 -693792 -956 -945 0 -11 -945 -969 -121973 0 -956 957 0 694760 -1926 0 -188823 -907890 0zm59 839340l-1961 -840285 0 -956 957 0 909792 0 957 0 0 956 0 190713 0 945 -957 0 -694761 1925 957 120095 693804 957 957 0 0 956 -1949 179103 0 933 -945 0 -691855 1937 0 152020 693792 -3862 957 0 0 956 0 195532 0 945 -957 0 -907843 -1925 -945 0 0 -945zm945 0l-1949 -840285 909792 0 0 190713 -695717 1925 968 121985 694749 957 -1937 179102 -692812 1937 0 153910 694749 -3851 0 195532 -907843 -1925zm2064781 -837403l3862 839363 233587 -980 -1937 -647658 -12 -957 957 12 612060 1937 0 -191717 -848517 0zm1973 840308l-3886 -841253 0 -956 956 0 850419 0 956 0 0 945 0 193630 0 945 -956 0 -612048 -1949 1937 647658 0 945 -945 0 -235477 980 -956 12 0 -957zm944 0l-3874 -841264 850419 0 0 193630 -613005 -1949 1937 648603 -235477 980zm1447348 -831910c408473,0 532525,185197 532525,413646 0,228461 -159792,413658 -532525,413658 -372732,0 -527752,-185197 -527752,-413658 0,-228449 119280,-413646 527752,-413646zm0 214689c191493,0 256134,89079 256134,198957 0,109890 -81319,198969 -256134,198969 -174815,0 -256134,-89079 -256134,-198969 0,-109878 64642,-198957 256134,-198957z"/>
  </g>
  <path class="fil0" d="M1169352 1367860l0 77882 -504556 0 0 -77882 504556 0zm0 -1309041l58133 1157 56977 4654 55783 6968 55819 10477 54638 11622 53469 15106 52323 18591 51153 19783 49985 23244 47669 24414 47657 26728 45343 30225 44173 31405 43028 33721 40689 34854 39520 37217 37204 39531 34890 40677 33697 43028 31406 44161 30224 45343 26728 47669 24426 47658 23232 50008 19772 51130 18602 52323 15118 53480 12792 54650 9283 55795 6968 55819 4666 56953 1157 58122 -1157 58134 -4666 56976 -6968 55784 -9283 55819 -12792 54638 -15118 53468 -18602 52323 -19772 51154 -23232 49984 -24426 47669 -26728 47658 -30224 45342 -31406 44174 -33697 43027 -34890 40689 -37204 39520 -39520 37217 -40689 34878 -43028 33696 -44173 31406 -45343 30213 -47657 26728 -47669 24437 -49985 23232 -51153 19772 -52323 18602 -53469 15118 -54638 12792 -55819 9283 -55783 6969 -56977 4665 -58133 1158 0 -546391 -818446 0 0 -216248 0 -103476 0 -77882 0 -156957 0 -147638 818446 0 0 -73240 -818446 0 0 -319701 818446 0 0 -611505zm0 -29067l59291 1157 58134 4654 58134 6969 56964 10476 55796 12779 54638 16288 53468 17433 52323 20917 51154 23256 50008 25559 48815 27910 46511 30224 45319 32563 44197 33721 41847 37193 39531 38350 38351 39544 37216 41846 33697 44185 32563 45331 30225 46500 27909 48839 25571 49984 23256 51153 20929 52323 17445 53481 16252 54626 12791 55819 10465 56952 6968 58134 4654 58123 1157 59291 -1157 59291 -4654 58134 -6968 58134 -10465 56965 -12791 55795 -16252 54638 -17445 53469 -20929 52322 -23256 51154 -25571 50008 -27909 48815 -30225 46512 -32563 45319 -33697 44197 -37216 41846 -38351 39532 -39531 38350 -41847 37217 -44197 33697 -45319 32563 -46511 30224 -48815 27909 -50008 25571 -51154 23256 -52323 20929 -53468 17445 -54638 16252 -55796 12792 -56964 10464 -58134 6969 -58134 4653 -59291 1170 -59292 -1170 -58122 -4653 -58134 -6969 -56953 -10464 -55819 -12792 -54626 -16252 -53480 -17445 -52311 -20929 -51166 -23256 -49984 -25571 -48838 -27909 -46500 -30224 -45331 -32563 -44185 -33697 -41847 -37217 -39531 -38350 -38363 -39532 -37193 -41846 -33720 -44197 -32563 -45319 -30225 -46512 -27909 -48815 -25559 -50008 -23256 -51154 -20917 -52322 -17433 -53469 -16288 -54638 -12779 -55795 -10477 -56965 -6968 -58134 -4654 -58134 -1157 -59291 1157 -59291 4654 -58123 6968 -58134 10477 -56952 12779 -55819 16288 -54626 17433 -53481 20917 -52323 23256 -51153 25559 -49984 27909 -48839 30225 -46500 32563 -45331 33720 -44185 37193 -41846 38363 -39544 39531 -38350 41847 -37193 44185 -33721 45331 -32563 46500 -30224 48838 -27910 49984 -25559 51166 -23256 52311 -20917 53480 -17433 54626 -16288 55819 -12779 56953 -10476 58134 -6969 58122 -4654 59292 -1157zm238334 1039324l-209267 -387119 331323 1158 571985 1074202 -345272 0 -234839 -412713 -335977 0 0 -277843 222047 2315z"/>
  <path class="fil0" d="M40535 2632904l9806302 0 -256253 675001 -9550049 0 0 -675001zm1266014 504768l0 -118700c-32138,15767 -60178,23657 -84130,23657 -33048,0 -59126,-8953 -78225,-26835 -19098,-17893 -28654,-44563 -28654,-80043l0 -116421 70040 0 0 95964c0,41233 17126,61843 51390,61843 28795,0 51992,-6815 69579,-20469l0 -137338 70039 0 0 318342 -70039 0zm420661 -318342l0 318342 -69118 0 0 -208736 -139169 208736 -65941 0 0 -318342 69130 0 0 208748 140067 -208748 65031 0zm225579 323799c-46689,0 -85582,-15838 -116657,-47527 -31075,-31678 -46607,-70713 -46607,-117095 0,-46087 15615,-85051 46843,-116882 31228,-31831 70937,-47752 119150,-47752 27590,0 50775,4476 69579,13417 18791,8941 36685,21756 53657,38433l-41835 48201c-13641,-12425 -26456,-21449 -38433,-27059 -11976,-5610 -26445,-8409 -43429,-8409 -26681,0 -48732,9626 -66165,28878 -17433,19252 -26150,42968 -26150,71173 0,27886 8717,51531 26150,70937 17433,19406 39484,29102 66165,29102 16984,0 31689,-3023 44114,-9094 12426,-6059 25618,-15461 39567,-28193l44563 47752c-17279,18496 -36000,32138 -56161,40925 -20162,8799 -44941,13193 -74351,13193zm260575 -5457l0 -253760 -96862 0 0 -64582 263764 0 0 64582 -96862 0 0 253760 -70040 0zm193288 0l136429 -320610 64583 0 136429 320610 -73216 0 -29103 -71397 -134622 0 -29102 71397 -71398 0zm125516 -133252l84591 0 -42296 -103228 -42295 103228zm397465 133252l0 -318342 240118 0 0 62303 -170539 0 0 64583 150083 0 0 62303 -150083 0 0 66850 172819 0 0 62303 -242398 0zm304701 0l0 -318342 70039 0 0 125976 129154 0 0 -125976 70040 0 0 318342 -70040 0 0 -127795 -129154 0 0 127795 -70039 0zm345626 0l0 -318342 240119 0 0 62303 -170540 0 0 64583 150083 0 0 62303 -150083 0 0 66850 172819 0 0 62303 -242398 0zm304701 0l0 -318342 130064 0c37594,0 67311,10157 89137,30472 21827,20315 32752,47150 32752,80492 0,35469 -12130,62989 -36389,82548 -24248,19547 -55028,29326 -92315,29326l-53209 0 0 95504 -70040 0zm70040 -157807l55476 0c17292,0 30851,-4547 40713,-13642 9850,-9094 14776,-20917 14776,-35468 0,-15461 -5008,-27366 -15012,-35705 -10004,-8338 -23953,-12508 -41835,-12508l-54118 0 0 97323zm303791 -97323l0 255130 -70039 0 0 -318342 222390 0 0 63212 -152351 0zm205099 255130l0 -318342 70028 0 0 318342 -70028 0zm401564 -318342l0 318342 -70040 0 0 -101870 -55028 0 -68220 101870 -81851 0 77764 -113693c-45484,-16972 -68220,-50173 -68220,-99590 0,-32752 10689,-58441 32067,-77091 21366,-18638 50704,-27968 87992,-27968l145536 0zm-140989 154630l70949 0 0 -91418 -69579 0c-17279,0 -30779,3945 -40476,11823 -9697,7890 -14551,19406 -14551,34571 0,13642 4771,24555 14326,32740 9544,8185 22654,12284 39331,12284zm354260 163712l0 -318342 75497 0 83681 134610 83669 -134610 75496 0 0 318342 -69579 0 0 -207827 -89586 135969 -1819 0 -88689 -134610 0 206468 -68670 0zm367454 0l136429 -320610 64583 0 136429 320610 -73217 0 -29102 -71397 -134622 0 -29103 71397 -71397 0zm125515 -133252l84591 0 -42295 -103228 -42296 103228zm535265 -185090l0 318342 -69118 0 0 -208736 -139170 208736 -65941 0 0 -318342 69130 0 0 208748 140067 -208748 65032 0zm-84355 -42296c-13500,12130 -30697,18189 -51614,18189 -20929,0 -38126,-6059 -51626,-18189 -13488,-12118 -21744,-29102 -24780,-50929l40477 -7275c6366,20314 18342,30472 35929,30472 17575,0 29551,-10158 35917,-30472l40477 7275c-3024,21827 -11292,38811 -24780,50929zm230800 105508l0 55489 84130 0c35480,0 62988,8870 82547,26598 19547,17740 29327,41764 29327,72083 0,32138 -10453,57000 -31382,74586 -20917,17587 -50020,26374 -87307,26374l-147355 0 0 -318342 244217 0 0 63212 -174177 0zm76854 113693l-76854 0 0 78225 77315 0c32433,0 48661,-13488 48661,-40477 0,-25157 -16382,-37748 -49122,-37748zm311528 -8634l76854 -168271 75945 0 -122338 246035c-13642,27284 -28725,46996 -45248,59115 -16524,12129 -36154,18200 -58890,18200 -23953,0 -46843,-6224 -68670,-18649l27284 -51390c11516,6968 24106,10464 37748,10464 15768,0 29102,-8492 40016,-25476l-127335 -238299 78224 0 86410 168271zm273307 150071l0 -253760 -96862 0 0 -64582 263764 0 0 64582 -96862 0 0 253760 -70040 0zm220571 0l0 -318342 70040 0 0 125976 129154 0 0 -125976 70039 0 0 318342 -70039 0 0 -127795 -129154 0 0 127795 -70040 0zm345627 0l0 -318342 70039 0 0 108236 67760 0c36378,0 64878,9319 85500,27968 20610,18650 30922,43737 30922,75272 0,32740 -10843,58736 -32516,77988 -21674,19252 -51166,28878 -88453,28878l-133252 0zm131882 -150071l-61843 0 0 86859 62303 0c34867,0 52300,-14858 52300,-44563 0,-28205 -17587,-42296 -52760,-42296zm451819 107552c-32291,31984 -72685,47976 -121193,47976 -48508,0 -88760,-15921 -120744,-47752 -31984,-31831 -47977,-70795 -47977,-116870 0,-45780 16146,-84673 48426,-116658 32291,-31984 72697,-47976 121205,-47976 48508,0 88748,15921 120744,47752 31984,31831 47976,70795 47976,116882 0,45780 -16145,84661 -48437,116646zm-189413 -45709c18189,19406 41232,29102 69130,29102 27885,0 50775,-9626 68669,-28878 17882,-19252 26835,-42968 26835,-71161 0,-27898 -9107,-51543 -27296,-70949 -18189,-19405 -41232,-29102 -69118,-29102 -27898,0 -50787,9626 -68669,28878 -17894,19252 -26835,42968 -26835,71173 0,27886 9095,51531 27284,70937zm370181 -166902l0 255130 -70039 0 0 -318342 222390 0 0 63212 -152351 0zm477733 212611c-32292,31984 -72685,47976 -121193,47976 -48508,0 -88760,-15921 -120744,-47752 -31985,-31831 -47977,-70795 -47977,-116870 0,-45780 16146,-84673 48425,-116658 32292,-31984 72697,-47976 121205,-47976 48508,0 88748,15921 120744,47752 31985,31831 47977,70795 47977,116882 0,45780 -16146,84661 -48437,116646zm-189414 -45709c18189,19406 41233,29102 69130,29102 27886,0 50776,-9626 68670,-28878 17882,-19252 26834,-42968 26834,-71161 0,-27898 -9106,-51543 -27295,-70949 -18189,-19405 -41232,-29102 -69118,-29102 -27898,0 -50788,9626 -68670,28878 -17893,19252 -26834,42968 -26834,71173 0,27886 9094,51531 27283,70937z"/>
  <circle class="fil1 str0" cx="1184275" cy="1182834" r="1143751"/>
 </g>
</svg>
