<?xml version="1.0" encoding="UTF-8"?>
<!DOCTYPE svg PUBLIC "-//W3C//DTD SVG 1.1//EN" "http://www.w3.org/Graphics/SVG/1.1/DTD/svg11.dtd">
<!-- Creator: CorelDRAW X7 -->
<svg xmlns="http://www.w3.org/2000/svg" xml:space="preserve" width="500px" height="60px" version="1.1" style="shape-rendering:geometricPrecision; text-rendering:geometricPrecision; image-rendering:optimizeQuality; fill-rule:evenodd; clip-rule:evenodd"
viewBox="0 0 5000000 599978"
 xmlns:xlink="http://www.w3.org/1999/xlink">
 <defs>
  <style type="text/css">
    .fil0 {fill:#fff}
   
  </style>
 </defs>
 <g id="Слой_x0020_1">
  <metadata id="CorelCorpID_0Corel-Layer"/>
  <g id="_907291120">
   <polygon class="fil0" points="3871689,220654 3872941,218245 3874193,215812 3875752,213402 3877004,210969 3878575,208855 3880134,206434 3881374,204001 3882945,201591 4062509,201591 4060631,203705 4058741,206127 4057182,208241 4055304,210674 4053426,213095 4051867,215516 4050296,217938 4048430,220654 "/>
   <polygon class="fil0" points="3852910,261532 3853855,259111 3854800,256690 3855733,254269 3856359,252154 3857292,249721 3858544,247312 3859489,244879 3860422,242765 4036536,242765 4035284,244879 4034351,247312 4033406,249426 4032473,251847 4031528,254269 4030595,256690 4029650,259111 4028717,261532 "/>
   <polygon class="fil0" points="3843532,302410 3843851,300591 3844158,298773 3844465,296658 3844784,294840 3845091,293032 3845410,290906 3845717,289088 3846036,286973 3846343,286666 3846343,286064 3846343,285757 3846343,285154 3846662,284847 3846662,284552 3846662,283950 3846981,283643 4022458,283643 4022150,283950 4022150,284245 4022150,284552 4021832,285154 4021832,285462 4021832,285757 4021832,286064 4021524,286359 4021217,288485 4020898,290599 4020273,292418 4019965,294544 4019647,296658 4019328,298477 4019021,300591 4018702,302410 "/>
   <polygon class="fil0" points="3841654,343288 3841654,341162 3841654,339048 3841347,336627 3841347,334206 3841347,331785 3841347,329363 3841654,326942 3841654,324509 4016198,324509 4016198,326942 4015891,329363 4015891,331785 4015891,334206 4015891,336320 4015891,338741 4015891,341162 4016198,343288 "/>
   <polygon class="fil0" points="3849166,384462 3848540,382041 3847914,379926 3847288,377505 3846662,375072 3846036,372958 3845717,370537 3845091,368115 3844465,365387 4018395,365387 4018702,367808 4019328,370230 4019647,372651 4020273,375072 4020898,377505 4021524,379926 4022150,382041 4022776,384462 "/>
   <polygon class="fil0" points="3863552,425340 3862926,423521 3861992,421407 3861366,419588 3860422,417769 3859796,415655 3859170,413836 3858237,411710 3857611,409596 3857292,409289 3857292,408993 3857292,408379 3856985,408084 3856985,407777 3856666,407175 3856666,406867 3856359,406572 4031528,406572 4032780,408993 4034032,411415 4035603,414143 4036843,416257 4038414,418678 4039973,421100 4041544,423214 4043422,425340 "/>
   <polygon class="fil0" points="4206403,529195 4204206,530399 4202021,531309 4199824,532218 4197946,533435 4195761,534344 4193564,535254 4191379,536151 4189194,537061 4180738,540391 4171986,543120 4163222,545234 4154777,546758 4146025,547962 4137580,548872 4129135,549474 4120678,549781 4104107,549781 4088151,549179 4072820,548872 4058434,548872 4044981,548872 4031221,548565 4024336,548269 4017450,547667 4010576,546758 4003690,545836 3996804,544632 3989930,543120 3983044,541608 3976477,539789 3969910,537663 3963343,534947 3956776,532218 3950516,529195 "/>
   <polygon class="fil0" points="4271777,488316 4268340,490738 4265210,493466 4262080,495887 4258643,498002 4255195,500435 4252065,502844 4248628,504970 4245179,507084 3919855,507084 3919229,506789 3918603,506187 3918296,505572 3917670,504970 3917044,504368 3916418,503754 3915792,503151 3915166,502242 3913607,500730 3912036,498911 3910477,497104 3908906,495273 3907347,493466 3906095,491954 3904536,490135 3902965,488316 "/>
   <polygon class="fil0" points="4316199,447438 4314002,449860 4311817,452281 4309313,454714 4307116,457135 4304624,459249 4302427,461671 4299935,464092 4297419,466218 3886075,466218 3884504,464092 3882945,461671 3881374,459249 3880134,457135 3878575,454714 3877311,452281 3875752,449860 3874500,447438 4068757,447438 4070328,448348 4071887,448950 4073458,449860 4075017,450474 4076576,451076 4078147,451679 4080025,452281 4081584,452895 4086899,454100 4092533,455009 4098474,455009 4104107,454714 4109741,453497 4115682,451986 4121623,449860 4127257,447438 "/>
   <polygon class="fil0" points="4348407,406572 4346848,408993 4345277,411108 4343718,413529 4341840,415950 4340281,418371 4338403,420793 4336844,422919 4334966,425340 4157600,425340 4159785,423214 4161970,421100 4163860,418678 4166045,416257 4167923,414143 4170108,411415 4171986,408993 4174171,406572 "/>
   <polygon class="fil0" points="4370931,365387 4369691,367808 4368746,370230 4367494,372651 4366561,375072 4365309,377505 4364057,379619 4362805,382041 4361553,384462 4188249,384462 4189501,382041 4190753,379926 4192005,377505 4193257,375072 4194509,372651 4195454,370230 4196694,367808 4197639,365387 "/>
   <polygon class="fil0" points="4384077,324509 4383758,325430 4383758,326328 4383451,326942 4383451,327840 4383132,328749 4382825,329659 4382825,330273 4382506,331170 4382199,332682 4381573,334206 4381254,335718 4380947,337229 4380321,338741 4380002,340253 4379695,341765 4379069,343288 4206084,343288 4206403,341470 4207017,339651 4207643,337832 4208269,336025 4208588,333899 4209214,332080 4209521,330273 4210147,328147 4210147,327840 4210466,327237 4210466,326942 4210466,326328 4210773,326033 4210773,325430 4210773,325123 4211080,324509 "/>
   <polygon class="fil0" points="4389392,283643 4389085,286064 4389085,288178 4389085,290599 4388766,293032 4388447,295442 4388447,297568 4388140,299989 4387833,302410 4215155,302410 4215462,299989 4215781,297568 4216100,295147 4216100,293032 4216407,290599 4216714,288178 4216714,285757 4217033,283643 "/>
   <polygon class="fil0" points="4386888,242765 4387514,244879 4387833,247312 4387833,249721 4388140,252154 4388447,254269 4388766,256690 4388766,259111 4389085,261532 4217340,261532 4217033,259111 4217033,256690 4216714,254269 4216407,251847 4216407,249426 4216100,247312 4215781,244879 4215462,242765 "/>
   <polygon class="fil0" points="4376872,201591 4377817,204001 4378443,206434 4379069,208548 4380002,210969 4380640,213402 4381254,215812 4381880,218245 4382506,220654 4209840,220654 4208895,217938 4207962,215516 4207017,213095 4205765,210674 4204832,208241 4203580,206127 4202328,204001 4201076,201591 "/>
   <polygon class="fil0" points="4358104,160713 4359356,163134 4360608,165249 4361860,167682 4363112,170091 4364364,172524 4365616,174638 4366868,177060 4367801,179481 4181056,179481 4177927,177662 4175116,175548 4171986,173729 4168549,172217 4165419,170705 4161970,169489 4158226,168284 4154470,167067 4150088,166158 4145706,165249 4141643,164646 4137261,164646 4132879,164646 4128497,164646 4124434,165249 4120064,165863 4115989,166760 4111619,167977 4107544,169489 4103481,171001 4099418,172819 4095344,174945 4091281,177060 4087525,179481 3898902,179481 3900780,177060 3902965,174945 3904843,172524 3906721,170091 3908599,167682 3910784,165249 3912662,163134 3914847,160713 "/>
   <polygon class="fil0" points="4328081,119835 4329959,121961 4331836,124382 4334022,126804 4335899,128918 4337777,131339 4339655,133772 4341533,136182 4343411,138615 3936438,138615 3938942,136182 3941445,133772 3944257,131339 3946760,128918 3949264,126804 3952075,124382 3954898,121961 3957390,119835 "/>
   <polygon class="fil0" points="4279903,78662 4282100,80173 4284285,81685 4286470,83197 4288986,84721 4291171,86233 4293356,88051 4295553,89563 4297738,91370 4298671,91985 4299616,92894 4300549,93496 4301494,94406 4302427,95315 4303372,95918 4304305,96827 4305250,97737 3986800,97737 3988678,96225 3990556,95008 3992741,93803 3994619,92292 3996497,91075 3998682,89859 4000572,88654 4002438,87130 4004316,86233 4006194,85016 4008072,84107 4009631,82890 4011509,81992 4013387,80776 4015265,79878 4016835,78662 "/>
   <polygon class="fil0" points="4181682,42331 4187942,43843 4194202,45354 4200450,46866 4206710,48685 4212970,50504 4219537,52618 4225797,54437 4232364,56858 4064068,56858 4071887,53835 4080025,51106 4087844,48685 4095663,46571 4103481,44445 4111300,42933 4119119,41410 4126631,40205 4134131,39602 4141324,39000 4148529,38693 4155403,38693 4162289,39295 4168856,39898 4175423,40807 "/>
   <polygon class="fil0" points="3483176,529195 3479727,550077 3656787,550077 3660224,529195 "/>
   <polygon class="fil0" points="3489743,488316 3486613,507084 3663980,507084 3667110,488316 "/>
   <polygon class="fil0" points="3496617,447438 3493487,466218 3670547,466218 3673677,447438 "/>
   <polygon class="fil0" points="3503503,406572 3500373,425340 3677114,425340 3680244,406572 "/>
   <polygon class="fil0" points="3510389,365387 3507259,384462 3684000,384462 3687130,365387 "/>
   <polygon class="fil0" points="3516956,324509 3513826,343288 3690567,343288 3693697,324509 "/>
   <polygon class="fil0" points="3523842,283643 3520712,302410 3697453,302410 3700264,283643 "/>
   <polygon class="fil0" points="3530716,242765 3527586,261532 3704020,261532 3707138,242765 "/>
   <polygon class="fil0" points="3537602,201591 3534472,220654 3710586,220654 3713716,201591 "/>
   <polygon class="fil0" points="3383692,160713 3379310,178571 3422491,179481 3873556,179481 3877630,160713 "/>
   <polygon class="fil0" points="3393082,119835 3388700,138615 3882638,138615 3886701,119835 "/>
   <polygon class="fil0" points="3402778,78662 3398089,97737 3891709,97737 3896091,78662 "/>
   <polygon class="fil0" points="3904536,40807 3411542,40807 3407786,56858 3900780,56858 "/>
   <polygon class="fil0" points="3429058,529195 3433440,550077 3262321,550077 3258884,529195 "/>
   <polygon class="fil0" points="3419987,488316 3424050,507084 3255447,507084 3252317,488316 "/>
   <polygon class="fil0" points="3384011,324509 3388074,343288 3235109,343288 3231672,324509 "/>
   <polygon class="fil0" points="3374940,283643 3379003,302410 3227916,302410 3224479,283643 "/>
   <polygon class="fil0" points="3365869,242765 3369932,261532 3220404,261532 3216967,242765 "/>
   <polygon class="fil0" points="3356798,201591 3361180,220654 3212904,220654 3209455,201591 "/>
   <polygon class="fil0" points="3134703,56858 3142829,40807 3321447,39898 3324884,56858 "/>
   <polygon class="fil0" points="3112793,97737 3122809,78662 3329892,78662 3333955,97737 "/>
   <polygon class="fil0" points="3090896,138615 3100911,119835 3338963,119835 3343026,138615 "/>
   <polygon class="fil0" points="3069317,179481 3079333,160713 3348034,160713 3352097,179481 "/>
   <polygon class="fil0" points="3047419,220654 3057435,201591 3207896,201591 3199144,220654 "/>
   <polygon class="fil0" points="3025840,261532 3035844,242765 3188809,242765 3179738,261532 "/>
   <polygon class="fil0" points="3003943,302410 3013947,283643 3169415,283643 3160663,302410 "/>
   <polygon class="fil0" points="2982352,343288 2992368,324509 3150341,324509 3141577,343288 "/>
   <polygon class="fil0" points="2960454,384462 2970470,365387 3131254,365387 3129069,370537 3240117,370537 3239172,365387 3393082,365387 3397145,384462 "/>
   <polygon class="fil0" points="2938556,425340 2948891,406572 3401845,406572 3406215,425340 "/>
   <polygon class="fil0" points="2916978,466218 2926993,447438 3410904,447438 3414979,466218 "/>
   <polygon class="fil0" points="2895080,507084 2905096,488316 3072766,488316 3064002,507084 "/>
   <polygon class="fil0" points="3043663,551895 2871623,551895 2883505,529195 3053986,529195 "/>
   <polygon class="fil0" points="4735054,529195 4725039,551600 4632133,551600 4629003,529195 "/>
   <polygon class="fil0" points="4753822,488316 4745377,507084 4625873,507084 4623381,488316 "/>
   <polygon class="fil0" points="4772590,447438 4763826,466218 4620251,466218 4617747,447438 "/>
   <polygon class="fil0" points="4791051,406572 4782594,425340 4614617,425340 4612113,406572 "/>
   <polygon class="fil0" points="4809818,365387 4801054,384462 4608983,384462 4606172,365387 "/>
   <polygon class="fil0" points="4828267,324509 4819822,343288 4603349,343288 4600538,324509 "/>
   <polygon class="fil0" points="5000000,529195 5000000,550384 4837338,549474 4837338,529195 "/>
   <polygon class="fil0" points="5000000,488316 5000000,507084 4837338,507084 4837338,488316 "/>
   <polygon class="fil0" points="5000000,447438 5000000,466218 4837657,466218 4837657,447438 "/>
   <polygon class="fil0" points="4999693,406572 4999693,425340 4837657,425340 4837964,406572 "/>
   <polygon class="fil0" points="4999693,365387 4999693,384462 4837964,384462 4837964,365387 "/>
   <polygon class="fil0" points="4999693,324509 4999693,343288 4837964,343288 4838271,324509 "/>
   <polygon class="fil0" points="4825137,56858 4832956,40807 4999067,39602 4999067,56858 "/>
   <polygon class="fil0" points="4805436,97737 4814507,78662 4999067,78662 4999067,97737 "/>
   <polygon class="fil0" points="4785724,138615 4794795,119835 4999067,119835 4999067,138615 "/>
   <polygon class="fil0" points="4766023,179481 4775094,160713 4999374,160713 4999374,179481 "/>
   <polygon class="fil0" points="4746003,220654 4755074,201591 4999374,201591 4999374,220654 "/>
   <polygon class="fil0" points="4726290,261532 4735361,242765 4999374,242765 4999374,261532 "/>
   <polygon class="fil0" points="4522337,56858 4528278,39602 4693444,40807 4695629,56858 "/>
   <polygon class="fil0" points="4507632,97737 4514518,78662 4699078,78662 4701889,97737 "/>
   <polygon class="fil0" points="4492928,138615 4499813,119835 4705019,119835 4707830,138615 "/>
   <polygon class="fil0" points="4478235,179481 4485120,160713 4711279,160713 4714090,179481 "/>
   <polygon class="fil0" points="4463530,220654 4470404,201591 4717220,201591 4720031,220654 "/>
   <polygon class="fil0" points="4448825,261532 4455711,242765 4723479,242765 4725983,261532 "/>
   <polygon class="fil0" points="4434120,302410 4441006,283643 4999374,283643 4999693,302410 4597408,302410 4597101,299682 4596168,302410 "/>
   <polygon class="fil0" points="4419415,343288 4426301,324509 4588337,324509 4581451,343288 "/>
   <polygon class="fil0" points="4404723,384462 4411597,365387 4573633,365387 4567066,384462 "/>
   <polygon class="fil0" points="4390018,425340 4396904,406572 4559247,406572 4552373,425340 "/>
   <polygon class="fil0" points="4375313,466218 4382199,447438 4544542,447438 4537975,466218 "/>
   <polygon class="fil0" points="4360608,507084 4367494,488316 4530156,488316 4523282,507084 "/>
   <polygon class="fil0" points="4508258,549474 4345596,549474 4352789,529195 4515463,529195 "/>
   <path class="fil0" d="M2486854 395741l0 -54614 -3531 -5114 -9473 -4984 -17256 -5965 12 -12 -17681 -4925 -15354 -1783 -178 -36 -17822 -2681 -13359 -283 -17693 283 -15201 2067 -15980 3272 -15933 4145 -14126 5351 -20138 7689 -11681 7913 -11138 9579 -24 0 -10322 8823 -10394 12354 -7134 13807 -5728 14303 -3650 16760 -1783 12721 0 14846 897 11870 2386 10973 4890 14220 4807 13961 7748 12402 7937 9661 11197 9083 -12 12 9236 7452 0 -11 12083 9071 11173 5255 355 201 12023 6981 12579 3767 0 0 11398 3201 14173 2091 0 0 15177 2055 14764 0 14374 0 16772 -1477 47 -11 14752 -1193 16004 -3733 14528 -5385 0 0 14929 -6485 0 -12 11894 -5610 6342 -4382 0 -110681 -95729 0 0 43535 26351 1288 1689 83 1264 1074 7512 6355 1311 1110 283 1642 1559 9082 142 839 -166 815 -1559 7866 -283 1417 -1063 1028 -6886 6661 -590 567 -697 331 -11575 5445 -602 283 -721 130 -14705 2410 -425 71 -496 -12 -10323 -307 -342 -12 -28158 -2728 -260 -24 -307 -71 -14079 -3024 -567 -118 -460 -212 -11882 -5445 -272 -130 -165 -95 -11882 -6968 -319 -177 -390 -331 -8126 -6957 -366 -319 -295 -378 -6567 -8480 -260 -331 -142 -259 -8445 -15142 -354 -638 -142 -685 -2504 -12413 -47 -272 -23 -378 -626 -11504 -24 -354 24 -237 1251 -15744 36 -472 177 -543 3437 -10902 225 -721 377 -543 9071 -13016 237 -330 354 -343 10323 -9992 437 -437 590 -319 14693 -8173 390 -213 260 -94 12827 -4843 271 -106 237 -59 20964 -5457 425 -118 461 -24 16264 -1216 319 -24 472 36 13772 1216 35 0 15638 1512 307 35 284 59 19275 4217 0 -12 15650 3024 484 94 579 260 18059 7996 17622 4429zm9697 2126l0 3933 -4854 0 -1217 4524 -24082 -6059 -402 -94 -390 -178 -17882 -7925 -15153 -2929 -118 -35 -19111 -4182 -15331 -1476 0 -12 -13252 -1169 -15484 1157 -20291 5280 -12296 4642 -13736 7642 -9531 9224 -8457 12130 -3035 9638 -1205 15047 590 10760 2315 11457 7937 14244 6024 7771 7382 6319 11409 6697 11162 5103 13193 2846 27768 2681 9614 284 13547 -2233 10276 -4830 5232 -5067 1122 -5646 -1146 -6602 -4925 -4181 -29291 -1430 -4618 -224 0 -4453 0 -52689 0 -4689 4842 0 105426 0 4854 0 0 4689 0 117780 0 2398 -2055 1417 -8752 6059 -378 260 -307 142 -12201 5752 -154 59 -15318 6661 -248 106 -14705 5457 -177 59 -426 106 -16901 3934 -461 106 -260 12 -15012 1216 0 -12 -17161 1512 -425 36 -12 0 -14386 0 -15024 0 -248 0 -413 -59 -15638 -2115 -59 0 -14386 -2126 -224 -35 -402 -106 -11882 -3331 -82 -24 -13134 -3933 -567 -165 -496 -295 -12225 -7099 -11504 -5409 -401 -189 -437 -331 -12508 -9390 -130 -106 -9390 -7571 -12 0 -11575 -9378 -378 -307 -307 -378 -8445 -10299 -212 -248 -142 -237 -8138 -13027 -248 -378 -189 -567 -5008 -14539 -5007 -14528 -107 -319 -35 -201 -2504 -11504 -71 -342 -24 -284 -945 -12413 -11 -331 0 -15142 0 -212 59 -402 1866 -13323 59 -330 3756 -17256 83 -366 153 -367 5929 -14834 71 -166 118 -236 7512 -14539 248 -485 319 -377 10949 -13016 248 -284 307 -271 10630 -9071 -12 -12 11256 -9685 118 -106 343 -225 12508 -8480 507 -343 497 -189 20645 -7866 14386 -5457 272 -106 248 -59 16264 -4240 248 -47 16263 -3343 343 -47 15638 -2114 224 -36 366 -12 18142 -295 166 0 13759 295 331 12 319 47 17976 2705 0 -12 15638 1819 284 24 472 130 18461 5149 295 71 17516 6059 260 95 425 213 10949 5763 1063 555 661 957 5008 7276 815 1181 0 1405 0 58134zm-531935 25949l0 -47244 4843 0 0 -4689 129201 0 414 0 496 95 11256 2114 1086 201 910 661 7500 5457 425 307 283 295 5622 6059 981 1051 212 1406 1252 8173 118 732 -130 733 -1570 8775 -213 1205 -803 968 -5315 6355 -591 697 -815 437 -8456 4547 -532 283 -484 130 -10949 3036 -272 47 -12508 2728 -590 130 -473 0 -116055 0 -4843 0 0 -4689zm9697 -42543l0 37842 110729 0 11658 -2539 0 0 10464 -2894 7099 -3815 3921 -4689 1216 -6850 -921 -6047 -4370 -4701 -6177 -4488 -9697 -1819 -123922 0zm-81272 -62055l76016 -1512 95 4677 83 -4677 159839 2421 578 12 449 94 15957 3638 437 95 413 177 10630 4547 213 106 8126 3933 425 201 284 213 9378 6649 259 189 260 237 9697 9082 165 166 8138 8480 425 449 308 555 5633 10299 272 484 142 591 3130 12425 153 603 0 496 0 11799 0 331 -59 366 -1559 9992 -47 319 -142 425 -3130 9378 -106 307 -177 354 -4075 7867 -213 437 -271 342 -6260 7866 -95 107 -7193 8480 -259 295 -9709 9685 -319 331 -402 260 -8881 5929 3649 3024 24 11 9390 7878 318 272 225 260 8138 9378 200 272 8764 11811 166 248 7511 11492 189 307 189 437 5634 13323 154 354 71 295 3130 12414 71 378 1877 11197 60 366 1252 15437 0 283 307 13016 118 4748 -4937 24 -82276 295 -4358 24 -449 -4217 -922 -8516 -3366 -14551 -2090 -8953 -5410 -12496 -5445 -9968 -5704 -9012 -10642 -12366 -9165 -9697 -11599 -4701 -91205 1134 -591 88358 -35 4678 -4795 0 -77575 0 -4843 0 12 -4689 614 -247371 12 -4583 4724 -94zm76134 7830l-71220 1418 -603 238111 67949 0 591 -88288 24 -4595 4748 -59 96968 -1216 1016 -12 898 366 13453 5445 968 402 732 779 10016 10595 142 165 10949 12721 260 295 165 248 5941 9390 154 248 5622 10299 118 201 71 189 5633 13015 154 331 95 437 2185 9390 3448 14835 59 283 36 272 484 4559 72969 -260 -189 -8008 -12 0 -1240 -15378 -1795 -10701 -3012 -11941 -5292 -12531 -7275 -11126 -8457 -11410 -7866 -9082 -9047 -7583 0 0 -8445 -6969 -4784 -3945 5185 -3460 13678 -9118 9271 -9260 6933 -8185 0 0 5989 -7536 3661 -7086 2894 -8658 1452 -9319 0 -10972 -2822 -11221 -5067 -9248 -7642 -7972 -9319 -8729 -8847 -6283 -7511 -3638 0 12 -10229 -4370 -15059 -3425 -159178 -2422zm-777557 -8740l70394 -2728 189 4677 3153 -3532 185717 156237 1182 -150603 35 -4677 4795 0 71316 0 4854 0 0 4701 0 247973 0 4689 -4854 0 -74765 0 -1771 0 -1370 -1134 -180072 -149646 -578 146091 -24 4689 -4807 0 -75083 0 -4854 0 35 -4712 1866 -247371 36 -4477 4606 -177zm68858 6697l-63874 2480 -1807 238170 65398 0 614 -151536 36 -10145 7937 6590 186638 155091 68138 0 0 -238583 -61689 0 -1217 156095 -71 10181 -7913 -6661 -192190 -161682zm1338524 123638l0 -4842 0 -5162 24 -271 307 -4843 47 -331 614 -4535 48 -319 933 -4536 23 -59 933 -4240 119 -401 1252 -3933 106 -296 1571 -3933 35 -130 1559 -3637 154 -296 1878 -3626 118 -224 130 -201 2197 -3331 189 -295 94 -106 2492 -3036 24 -12 2504 -3023 165 -213 2823 -3023 189 -178 2811 -2728 177 -165 3130 -2729 165 -141 3437 -2729 225 -165 3449 -2421 224 -154 165 -94 3721 -2103 3319 -2055 212 -118 225 -118 3756 -1807 35 -12 402 -154 3945 -1476 -12 -12 3756 -1512 165 -59 272 -82 4063 -1217 94 -35 4382 -1217 248 -47 4063 -909 166 -36 295 -35 4689 -614 4677 -591 0 -12 4689 -602 366 -36 10311 -602 284 -24 10949 0 141 24 10949 295 130 0 10642 603 319 23 5008 603 295 59 5008 909 4996 910 59 0 4701 909 378 95 4382 1204 4370 1205 307 94 4382 1512 118 48 271 118 4075 1819 4063 1818 189 95 201 106 3768 2126 260 166 3755 2421 142 94 3449 2410 189 153 3130 2422 201 165 3130 2716 3130 2729 212 189 166 177 2503 2728 178 201 2492 3036 177 236 2185 3023 2197 3024 283 402 166 354 1559 3331 0 0 1783 3460 154 296 118 330 1252 3638 35 95 1252 3933 95 330 945 3933 70 390 626 4240 0 59 626 4536 36 307 319 4854 12 284 0 4842 0 5150 0 236 -36 319 -626 5150 -23 47 -626 4547 -36 307 -933 4548 -94 366 -1252 4228 -12 12 -142 378 -1571 3933 -1559 3945 -94 236 -95 189 -1878 3626 -130 260 -2185 3626 -82 130 -213 271 -2492 3331 12 0 -2504 3343 -142 200 -177 178 -2811 3035 -177 177 -3130 3036 -189 153 -3118 2729 -3130 2728 -178 142 -3437 2728 -224 142 -3449 2433 -165 118 -3756 2421 -83 59 -3437 2114 -59 48 -378 177 -3744 1819 -307 141 -3756 1524 -3756 1512 -342 106 -3744 1205 -95 35 -4075 1217 -342 94 -4063 910 -402 71 -4370 602 -4382 614 -4382 603 -378 35 -9697 602 -307 24 -10630 0 -10322 0 -24 0 -413 -47 -10004 -898 -213 -23 -4689 -603 0 -12 -4677 -590 -378 -59 -4382 -910 -71 -23 -4075 -898 -248 -59 -4382 -1217 -94 -35 -4063 -1205 -272 -82 -153 -71 -3756 -1512 -177 -71 -4063 -1819 -130 -71 -3756 -1819 -260 -130 -3756 -2114 -142 -71 -283 -200 -3284 -2315 0 0 -3756 -2422 -189 -130 -165 -129 -3449 -2729 -12 0 -3448 -2716 -166 -154 -3130 -2728 -189 -166 -177 -177 -2811 -3023 -2811 -3036 -2823 -3023 -271 -308 -213 -318 -2185 -3331 12 -12 -2197 -3319 -106 -165 -2186 -3638 -165 -272 -118 -271 -1571 -3638 -35 -130 -1559 -3933 -154 -378 0 -12 -1252 -4228 -83 -307 -933 -4241 -23 -59 -933 -4547 -48 -236 -35 -402 -307 -4842 -24 -272zm9697 -4842l0 4842 0 0 272 4169 886 4300 0 0 874 3956 1216 4134 1370 3449 12 -12 1441 3355 2032 3366 -12 0 2090 3165 12 0 1984 3012 2528 2716 2823 3036 2634 2846 2787 2422 3425 2716 0 12 3260 2575 3555 2303 154 106 3153 2221 3626 2043 3355 1630 0 -12 3956 1772 3544 1417 3685 1099 0 0 4382 1204 3744 839 0 0 4299 898 4394 555 23 0 4689 614 0 0 9390 850 10299 0 10630 0 9189 -578 4205 -579 4382 -603 4193 -578 3732 -839 3851 -1146 0 0 3319 -1063 3755 -1511 3745 -1512 3082 -1500 3378 -2079 0 12 3685 -2374 0 12 3048 -2150 -12 -12 3425 -2705 2976 -2598 2941 -2563 3130 -3024 2469 -2657 2350 -3130 24 0 2291 -3059 2114 -3508 1654 -3189 1464 -3697 1418 -3567 1181 -4016 909 -4381 12 0 567 -4170 -12 0 591 -4842 0 -4914 0 -4830 -296 -4489 -578 -4240 -12 0 -591 -4063 -862 -3602 -1193 -3732 12 0 -1110 -3225 -1725 -3331 -94 -165 -1394 -2976 -1901 -2634 -2020 -2788 0 0 -2374 -2870 -2291 -2504 -2918 -2539 -3094 -2693 -2764 -2138 -3449 -2421 12 0 -3414 -2209 -3484 -1960 -3862 -1737 -3803 -1688 -4134 -1430 -4193 -1169 -4157 -1146 -4536 -874 0 -11 -4949 -898 -4701 -850 0 0 -4996 -615 -10322 -578 0 -12 -10689 -295 0 23 -10949 0 0 0 -9898 579 -4465 579 -23 0 -4689 602 -4394 567 -3661 815 -4382 1216 -12 -11 -3685 1098 -3602 1453 -130 35 -3650 1359 -3508 1700 -3224 1985 -154 94 -3590 2032 -3036 2126 -3366 2669 -2976 2598 0 0 -2457 2374 -2788 2989 -2350 2846 12 0 -2410 2917 -1866 2835 -1618 3118 -1559 3638 -12 0 -1417 3555 -1158 3638 -885 4039 0 0 -933 4536 -12 0 -544 4004 -295 4464 0 0 0 5162zm-77917 -6296l-296 8658 296 6614 11 0 626 6957 -11 0 885 6283 1182 5977 1842 6248 0 0 1807 5858 2244 5150 3071 5645 0 0 2977 5197 3307 5232 3874 4902 4004 4429 11 0 4689 4547 -11 0 5102 4359 5091 4346 5752 4099 5834 3862 6036 3508 6472 3413 6827 3012 0 0 6968 2929 0 0 7193 2728 0 0 7359 2280 11 0 7725 2091 7996 1783 0 12 8197 1760 0 -12 8728 1512 8764 885 8894 886 9685 603 9401 590 10004 0 0 12 19229 -295 0 0 17657 -603 0 -11 8741 -603 0 0 7913 -590 7996 -1193 0 12 7512 -1158 0 0 7193 -1524 35 0 7347 -1476 6378 -1961 0 -11 6720 -2363 6484 -2693 5764 -2787 6095 -3543 5882 -3697 5586 -4205 0 12 5292 -4252 5102 -4949 4937 -5079 4299 -5267 4063 -5741 0 0 3910 -5811 3177 -5893 0 0 3130 -6650 12 0 2645 -6283 0 0 2445 -6792 1772 -6578 0 0 1559 -6969 1169 -6780 614 -7145 12 0 296 -6886 -296 -6886 -12 0 -626 -7264 12 0 -874 -6413 -1535 -6851 -2067 -6295 -2091 -6354 -2681 -6071 0 12 -3118 -6331 -3295 -5799 -3508 -5374 -4134 -5433 -4606 -5056 12 -11 -4489 -4926 -5208 -4736 0 0 -5174 -4181 -5952 -4240 -5894 -4205 -5941 -3732 -6461 -3567 0 -12 -6413 -3248 -6626 -3212 -12 0 -6886 -3024 0 0 -7004 -2953 -7216 -2327 -24 0 -7228 -2338 -8126 -2114 0 0 -7961 -1784 0 0 -8043 -1441 -8847 -1181 -8941 -602 0 0 -9366 -603 0 0 -9720 -295 -10536 295 0 0 -10949 910 0 0 -10287 1169 -10547 1807 0 -12 -9945 1807 -9426 2056 -8917 2385 0 12 -8764 2421 0 -11 -6224 2019 0 0 -5799 2067 -6083 2658 0 -12 -5634 2587 -5409 3200 -95 59 -5917 3308 -5103 3200 12 0 -5480 3532 -4748 3732 -4677 3969 -4252 4405 -4264 4418 -3543 4582 -3638 4701 -3319 4654 0 0 -3130 4842 0 0 -3933 6142 -3213 6508 12 0 -3024 7016 -2114 7287 0 0 -2079 7772 -1228 8279 0 0 -909 8492zm-9957 8563l307 -9082 24 -331 933 -8776 23 -189 1252 -8480 24 -189 83 -319 2196 -8173 12 -95 2197 -7571 83 -271 106 -260 3130 -7264 106 -224 3449 -6969 118 -236 130 -201 4063 -6354 0 -24 3118 -4842 142 -177 3437 -4843 118 -154 3756 -4842 3744 -4843 201 -259 130 -130 4370 -4536 4382 -4547 142 -130 224 -201 4996 -4240 142 -106 4996 -3933 224 -177 154 -107 5634 -3626 47 -23 5315 -3331 201 -118 5917 -3319 5563 -3295 225 -130 236 -107 5941 -2728 71 -35 6259 -2717 319 -130 5953 -2126 130 -35 6567 -2115 213 -82 8752 -2410 47 0 9059 -2433 236 -47 9685 -2126 177 -35 10016 -1819 59 -24 10630 -1807 284 -35 10630 -1205 153 -24 10949 -909 272 0 10948 -307 260 0 10016 307 165 0 9390 602 12 0 9071 602 342 48 9071 1204 213 36 8445 1512 212 35 8126 1819 178 35 8126 2126 283 83 7512 2433 0 0 7488 2421 295 95 119 47 7192 3024 60 23 6885 3024 166 95 6886 3330 70 36 6567 3330 154 83 6567 3626 248 142 6260 3933 224 153 5953 4241 5941 4240 224 177 5634 4547 225 177 5315 4855 118 94 189 213 4689 5149 23 0 4689 5150 83 95 189 236 4370 5752 189 271 3756 5752 154 237 3437 6059 141 236 3118 6354 83 189 2811 6355 59 118 95 307 2185 6661 2197 6662 118 354 11 59 1560 6969 59 389 944 6957 36 225 626 7263 0 201 307 7276 0 366 -307 7264 0 200 -626 7264 -59 390 -1252 7264 -36 224 -1570 6957 -48 189 -1878 6957 -118 366 -2504 6968 -94 225 -2811 6661 -59 154 -3130 6661 -130 236 -3449 6367 -130 248 -94 141 -4063 6048 -59 94 -4063 5752 -213 260 -4689 5752 -272 307 -4996 5150 -94 94 -5315 5150 -118 106 -225 189 -5634 4535 -118 107 -5622 4240 -342 224 -6260 3933 -154 95 -6248 3626 -330 165 -6249 3036 -271 118 -6567 2728 -248 95 -6886 2421 -189 59 -6874 2114 -307 95 -165 35 -7477 1512 0 0 -7193 1512 -260 47 -7819 1205 -47 23 -8126 1205 -366 47 -8126 603 -24 0 -8763 602 -166 0 -17834 602 -95 0 -19382 307 -83 12 -10015 0 -296 -12 -9697 -602 -9696 -614 -189 -12 -9083 -909 -9059 -910 -343 -35 -8764 -1512 -212 -59 -8433 -1819 -47 0 -8126 -1819 -225 -47 -7831 -2126 -141 -59 -7831 -2410 -295 -94 -7205 -2729 -165 -70 -7193 -3036 -59 -12 -6886 -3023 -319 -166 -6874 -3637 -177 -95 -6260 -3638 -236 -141 -5953 -3934 -130 -94 -5941 -4240 -118 -83 -225 -189 -5315 -4547 -5315 -4536 -236 -189 -4689 -4535 -212 -236 -4371 -4843 -212 -248 -4075 -5138 -142 -189 -141 -212 -3437 -5457 -95 -165 -3130 -5457 -59 -83 -3118 -5752 -177 -366 -2492 -5752 -154 -342 -35 -142 -1878 -6047 -24 -59 -1878 -6355 -35 -118 -59 -307 -1252 -6354 -36 -236 -945 -6674 -35 -212 -626 -6969 0 -201 -307 -6968 4819 -201 -4819 -142zm-1638596 118985l275328 0 0 -47232 -213780 885 -4760 24 -95 -4606 -933 -45107 -106 -4736 4913 -35 212883 -1182 0 -44527 -211891 2078 -5019 48 153 -4878 1252 -37536 154 -4571 4712 36 212470 1783 -792 -49027 -276603 0 2114 238583zm280182 9390l-284977 0 -4784 0 -47 -4654 -2185 -247973 -47 -4736 4878 0 286217 0 4760 0 71 4641 945 58430 71 4771 -4937 -35 -212694 -1783 -933 28110 211737 -2067 4890 -47 0 4712 0 53894 0 4654 -4831 23 -212800 1193 744 35764 213899 -886 4866 -23 0 4701 0 56622 -4843 0 0 4689zm410246 -254942l295 246485 271229 295 0 -49960 -210024 1181 -4866 23 0 -4701 0 -46925 0 -4665 4842 -12 209505 -591 508 -45177 -210013 -295 -4783 0 -48 -4630 -318 -37240 -36 -4701 4866 -12 210367 -602 0 -48473 -271524 0zm-9355 251150l-319 -255839 0 -4701 4831 0 281221 0 4843 0 0 4701 0 57827 0 4665 -4843 12 -210343 591 236 27909 210107 296 4878 11 -47 4701 -626 54508 -59 4618 -4772 12 -209422 591 0 37571 210025 -1181 4866 -24 0 4701 0 59338 0 4689 -4843 -11 -280902 -307 0 -4678 -4831 0z"/>
   <g>
    <path class="fil0" d="M1970085 98941l-626 60260 139465 0 11185 -3909 11209 -6024 8681 -8705 3390 -9862 -1241 -11362 -7086 -9555 -14929 -6626 -11209 -3319 -17776 -898 0 0 -121063 0zm-1240 60556l626 -60851 0 -295 307 0 121370 0 12 0 17835 897 35 12 36 0 11267 3343 12 0 24 11 15012 6662 82 35 48 59 7193 9685 47 71 0 71 1252 11516 12 59 -24 59 -3437 9992 -24 59 -47 48 -8752 8787 -35 24 -36 23 -11267 6059 -24 12 -24 12 -11267 3933 -48 12 -47 0 -139831 0 -307 0 0 -295zm143233 -115064l-223017 0 -307 261922 80091 603 -307 -90839 0 -295 307 0 127276 909 30295 -6047 22795 -7252 19961 -10571 17469 -16299 11220 -13878 7170 -16583 1559 -15981 0 -14196 -3744 -16890 -5599 -12343 -11220 -12673 -11528 -10866 -18083 -8445 -19346 -6036 -24992 -4240zm-223324 -590l223359 0 24 0 23 11 25028 4241 12 0 23 0 19394 6059 24 12 23 0 18142 8480 47 23 36 36 11575 10902 0 11 11 0 11268 12721 24 35 23 36 5634 12413 12 36 0 23 3756 16961 12 24 0 35 0 14232 0 0 -12 24 -1559 16051 -12 47 -12 36 -7193 16653 -11 36 -24 35 -11268 13926 -23 23 -12 12 -17516 16346 -24 24 -35 24 -20020 10594 -23 12 -36 12 -22831 7264 -11 11 -24 0 -30343 6060 -23 0 -36 0 -127004 -910 307 90839 0 307 -307 -12 -80705 -602 -307 0 0 -295 319 -262513 0 -295 295 0zm80398 115654l626 -60851 121370 0 17835 898 11256 3342 15024 6662 7181 9685 1264 11504 -3449 9992 -8752 8775 -11268 6059 -11256 3934 -139831 0zm-80398 -115359l223359 0 25016 4240 19394 6059 18153 8481 11575 10901 11256 12709 5634 12413 3756 16961 0 14232 -1571 16040 -7193 16653 -11268 13937 -17516 16347 -20019 10594 -22831 7264 -30343 6059 -127311 -909 307 91134 -80705 -602 307 -262513zm710388 100311l0 0 0 0zm49217 -45520l0 0 0 0zm88984 -2728l0 0 0 0zm67654 66059l0 0 0 0zm-40205 78131l0 0 0 0zm-84886 12673l0 0 0 0zm-85429 -74469l-319 -5457 0 -11 0 -24 319 -5138 307 -5150 0 -11 638 -5162 0 0 614 -4535 12 -36 0 -11 1252 -4536 0 -12 1251 -4228 0 0 12 -24 1559 -3945 12 -11 1878 -3945 0 -12 12 -12 2185 -3626 0 0 2197 -3638 0 -12 12 -11 2504 -3331 2504 -3331 11 -23 24 -12 3118 -3024 3130 -3035 12 -12 3130 -2717 12 -11 3756 -3024 11 -12 12 -12 3744 -2421 0 0 3768 -2421 12 -12 3756 -2114 11 -12 12 0 4063 -1819 4063 -1819 24 0 4063 -1523 24 0 11 0 4370 -1217 4382 -1217 24 0 4689 -909 4701 -909 12 0 5007 -603 24 0 4996 -307 0 0 10949 -909 24 0 11575 0 11 0 11575 307 0 0 11268 602 12 0 5327 602 11 0 5327 910 0 0 5008 909 12 12 5008 1205 4996 1216 23 0 4701 1524 0 0 4382 1512 12 12 4382 1807 23 12 4382 2114 0 0 4063 2126 24 12 12 0 3756 2421 0 0 3744 2433 12 0 11 12 3437 2716 24 12 3437 3036 12 0 2811 2728 12 12 2823 3035 2811 3024 23 23 12 12 2185 3331 2185 3331 12 23 1878 3331 12 12 1866 3626 12 23 11 24 1252 3933 0 12 1252 4228 1252 4240 0 24 12 24 626 4547 0 0 626 4842 0 12 307 4855 0 11 0 5457 0 5445 0 12 0 23 -626 5150 0 0 -626 4843 0 23 -933 4843 -12 12 0 23 -1570 4548 0 0 -1560 4240 -1570 4240 0 23 -12 24 -2197 3933 0 0 -2197 3638 0 24 -2516 3626 0 11 -11 12 -2811 3331 -12 12 -3130 3330 -12 12 -3118 3024 -3130 3024 -12 11 -3437 3024 -12 12 -12 12 -3755 2728 -3756 2728 -12 0 -3756 2422 -24 11 -3744 2126 0 0 -3756 2115 -23 11 -24 12 -4063 1512 -4063 1512 -4075 1512 -12 11 -4074 1217 -24 0 0 0 -4382 909 -12 0 -4370 603 -4689 909 -24 0 -23 0 -4996 307 0 0 -10335 615 0 0 -10949 295 -23 0 -11256 -295 -12 0 -10323 -615 -12 0 -5008 -602 -23 -12 -4996 -897 -4689 -615 -24 0 -24 0 -4370 -1204 -4382 -1217 -23 0 -4370 -1524 -12 0 -4063 -1511 -24 -12 -4063 -1807 -23 -12 -4063 -2126 -4063 -2114 -12 -12 -12 0 -3756 -2433 -12 0 -3756 -2728 -3756 -2729 -11 -12 -12 0 -3437 -3035 -3449 -3024 0 -12 -3130 -3023 -12 -12 -3130 -3331 -12 -12 -2811 -3330 -11 -12 -2504 -3331 -12 -23 0 0 -2197 -3638 0 0 -2185 -3638 -12 -12 -12 -23 -1878 -4229 0 -12 -1559 -3933 -11 -23 0 -12 -1252 -4536 -12 -23 -933 -4547 -933 -4536 -12 -12 0 -35 -307 -5138zm295 -5468l319 5433 307 5126 933 4523 933 4536 1252 4523 1547 3898 0 0 1866 4217 2186 3626 0 0 2185 3626 2480 3295 2799 3319 3118 3319 3130 3035 3437 3012 3437 3024 3732 2716 3745 2717 3732 2409 4063 2114 4063 2114 4051 1819 4039 1500 0 0 4371 1512 4370 1205 4358 1205 4665 602 24 12 4984 897 0 0 5008 603 10299 602 0 0 11244 307 10926 -307 0 0 10323 -602 4984 -307 4677 -898 12 0 4370 -614 4358 -898 4051 -1204 4052 -1512 4063 -1512 4039 -1500 3732 -2114 0 0 3756 -2114 3744 -2410 3733 -2716 3744 -2717 3425 -3012 3130 -3035 3130 -3024 3118 -3319 2787 -3307 2492 -3614 2174 -3614 2185 -3910 1559 -4228 1559 -4240 0 0 1559 -4512 933 -4807 626 -4843 0 0 614 -5126 0 -5433 0 -5457 -307 -4807 -626 -4842 0 0 -614 -4512 -1252 -4228 -1252 -4229 0 0 -1240 -3909 -1855 -3603 -1878 -3318 -2185 -3331 -2173 -3307 -2799 -3012 -2811 -3012 -2811 -2728 -3425 -3024 -3426 -2693 -3732 -2421 0 0 -3756 -2421 -4027 -2103 0 0 -4382 -2114 -4358 -1807 -4371 -1512 0 0 -4665 -1500 -5008 -1216 -5008 -1217 -4972 -898 0 0 -5315 -909 -5303 -602 -11244 -603 0 0 -11563 -307 0 0 -11564 0 -10925 910 -12 0 -4996 307 -4984 602 -4689 910 -4677 897 -4358 1205 -4382 1216 -4028 1500 -4063 1819 -4051 1807 -3732 2103 0 0 -3756 2421 0 0 -3733 2410 -3732 3011 0 0 -3118 2717 -3130 3024 -3106 3011 -2492 3319 -2492 3319 -2186 3614 0 0 -2173 3615 -1878 3933 -1547 3897 -1252 4229 -1240 4523 -626 4512 0 0 -626 5150 -307 5138 -319 5126zm-69485 56468l0 12 0 -12zm223962 -192426l0 0 0 0zm-183686 33851l0 0 0 0zm-19960 18413l0 0 0 0zm-33095 76749l-319 9661 319 7547 0 0 614 7276 0 0 945 6933 0 0 1252 6957 1866 6638 2173 6330 2811 6343 3118 5740 3437 6047 3745 5433 4051 5422 4689 5149 4984 5126 5315 4524 0 12 5917 4830 6248 4229 6237 4228 6886 3933 0 0 6862 3626 0 0 7500 3626 7488 3024 0 0 7807 2716 0 0 8114 2729 8445 2114 8433 2114 9059 1807 9378 1512 0 12 9378 1205 9674 909 0 0 10015 602 10300 603 10630 0 0 12 20645 -308 19063 -614 0 0 9071 -602 8752 -910 8433 -909 8126 -1205 7807 -1819 7808 -1807 7488 -2114 7169 -2421 6886 -3024 0 0 6850 -3319 6556 -3626 6236 -4216 6248 -4536 5929 -4830 0 0 5622 -5138 4996 -5740 0 0 4984 -6036 0 0 4689 -6047 4052 -6343 3744 -6956 3437 -6638 2811 -7252 0 0 2492 -7252 2185 -7240 1559 -7559 0 0 1252 -7548 0 0 933 -7559 0 -7854 0 -7854 -933 -7548 -933 -7264 -1878 -7535 0 0 -1878 -6957 -2492 -6933 0 0 -2811 -6968 -3425 -6626 0 0 -3756 -6355 -4052 -6035 0 0 -4370 -6036 -4972 -5728 -5315 -5150 -5327 -5149 -5917 -4819 -6225 -4524 -6578 -4240 0 0 -6556 -4228 -6874 -3945 0 0 -6874 -3626 0 12 -7193 -3638 -7488 -3012 -7500 -3035 0 0 -7807 -2717 0 0 -8114 -2717 -8433 -2114 0 0 -8752 -1819 -9059 -1523 0 0 -9366 -1205 -9686 -898 0 0 -10015 -614 0 0 -10607 -295 -11563 295 0 0 -11563 910 -11232 1512 -10949 1818 0 0 -10642 1819 -10299 2410 0 0 -10004 2433 0 0 -9071 2409 -6850 2114 0 0 -6567 2422 -6236 3012 -6248 3023 0 0 -6248 3331 -5930 3331 -5941 3921 0 0 -5610 3626 -5634 4240 0 0 -4972 4217 0 0 -4996 4842 -4358 5114 -4075 5150 0 12 -4063 4831 -3426 5137 0 0 -3437 5138 0 0 -4370 6650 -3437 7240 -3118 7854 -2799 8138 -1878 8469 -1559 9071 -933 9059zm-933 9661l319 -9685 0 -24 933 -9082 0 -24 1571 -9083 0 -11 1878 -8481 0 -12 11 -23 2811 -8173 0 -12 3130 -7866 12 -24 3449 -7264 12 -24 0 -11 4382 -6662 0 0 3449 -5149 0 0 3437 -5150 11 -12 12 -12 4051 -4830 4075 -5150 0 -12 4382 -5149 12 -12 12 -12 4996 -4843 23 -11 4997 -4241 23 -11 5622 -4229 12 -12 5634 -3637 0 0 5953 -3933 12 -12 5940 -3343 12 0 6248 -3330 12 0 6260 -3036 6260 -3024 12 -11 12 0 6578 -2422 12 0 6874 -2126 12 0 9083 -2421 0 0 10015 -2421 0 0 10311 -2421 24 -12 10642 -1819 0 0 10949 -1819 12 0 11255 -1512 24 0 11563 -909 24 0 11575 -296 11 0 10642 296 0 0 10016 602 12 12 9697 909 11 0 9390 1205 12 0 9071 1512 12 0 8752 1831 12 0 8444 2114 24 12 8138 2728 0 0 7831 2716 11 12 7500 3024 7512 3035 24 0 7193 3638 12 0 6874 3638 12 0 6874 3933 23 12 6567 4240 0 0 6567 4240 12 12 6260 4535 12 12 5941 4843 23 12 5315 5161 5315 5138 24 23 5008 5752 0 12 11 12 4382 6059 0 0 4063 6059 12 12 3756 6354 12 24 3437 6650 12 23 0 12 2823 6957 0 12 2503 6968 0 24 1890 6956 0 12 1866 7571 12 24 0 12 933 7263 0 0 945 7571 0 24 0 12 0 7866 0 7878 0 12 0 23 -945 7571 0 12 -1252 7559 0 12 -1559 7571 -12 23 -2185 7264 -11 12 -2493 7276 -11 0 -2811 7275 0 12 -12 12 -3437 6661 -12 12 -3756 6957 -12 23 -4063 6355 0 12 -12 11 -4689 6060 -11 0 -4996 6059 -12 11 -5008 5752 -12 12 -12 12 -5634 5150 -11 0 -5941 4854 -12 0 -6260 4547 -12 0 -6248 4240 -24 12 0 12 -6567 3626 -23 12 -6874 3331 -12 0 -6886 3035 -12 0 -11 0 -7193 2433 -12 0 -7512 2114 -12 12 -7819 1807 -7831 1819 -23 12 -8126 1205 -12 0 -8445 909 0 0 -8764 909 -11 12 -9071 603 -12 0 -19087 602 0 0 -20646 307 -11 0 -10630 0 -12 0 -10323 -614 -10016 -602 -12 0 -9697 -910 -11 0 -9378 -1216 -12 0 -9390 -1512 -12 0 -9071 -1819 -11 0 -8445 -2126 -8445 -2114 -24 -12 -8138 -2717 0 0 -7819 -2728 -23 -12 -7500 -3023 -24 -12 -7500 -3626 -12 -12 -6886 -3638 0 0 -6885 -3933 -24 -12 -6260 -4240 -6248 -4240 -24 -12 0 0 -5941 -4842 -11 -12 -5315 -4536 -12 -12 -12 -11 -5008 -5150 0 0 -4701 -5150 0 -11 -11 -12 -4063 -5445 -12 -12 -3756 -5457 -12 -23 -3437 -6048 0 -11 -3130 -5740 -12 -24 -2823 -6366 0 -24 -2196 -6354 0 -24 -1878 -6650 0 -23 0 -12 -1252 -6968 0 -12 -945 -6957 0 -12 -626 -7264 0 -23 -319 -7559 0 -24zm82890 -2716l319 5444 307 5150 945 4547 933 4536 1252 4547 1559 3933 1878 4240 2197 3638 2185 3626 2504 3331 2811 3331 3130 3330 3130 3036 3448 3023 3437 3024 3744 2728 3768 2717 3744 2433 4063 2114 4075 2126 4063 1807 4063 1524 4382 1512 4382 1204 4382 1217 4689 602 5008 910 5008 602 10311 602 11267 308 10949 -308 10323 -602 5008 -307 4689 -898 4382 -614 4370 -897 4075 -1217 4063 -1512 4063 -1512 4075 -1523 3756 -2114 3744 -2126 3756 -2410 3756 -2728 3755 -2729 3437 -3023 3130 -3036 3130 -3023 3130 -3331 2811 -3331 2504 -3626 2185 -3638 2197 -3933 1559 -4240 1571 -4240 1559 -4547 933 -4843 638 -4842 614 -5150 0 -5445 0 -5457 -307 -4842 -626 -4843 -626 -4547 -1252 -4240 -1252 -4228 -1252 -3945 -1866 -3626 -1890 -3331 -2185 -3331 -2185 -3330 -2823 -3036 -2811 -3024 -2823 -2728 -3437 -3024 -3437 -2728 -3755 -2421 -3756 -2421 -4063 -2115 -4382 -2126 -4382 -1807 -4382 -1523 -4689 -1512 -5008 -1205 -4996 -1216 -5008 -910 -5315 -909 -5327 -603 -11256 -602 -11574 -307 -11575 0 -10949 909 -5008 307 -4996 603 -4701 909 -4689 910 -4370 1204 -4382 1217 -4075 1512 -4063 1819 -4063 1807 -3756 2126 -3756 2421 -3756 2421 -3744 3036 -3130 2716 -3129 3024 -3130 3035 -2504 3331 -2504 3331 -2185 3626 -2197 3638 -1866 3933 -1571 3945 -1252 4228 -1252 4547 -626 4536 -626 5149 -307 5150 -319 5150zm-82583 2728l319 -9697 933 -9083 1559 -9082 1890 -8481 2811 -8173 3130 -7866 3437 -7276 4382 -6649 3437 -5150 3448 -5150 4063 -4842 4063 -5150 4382 -5149 5008 -4843 4996 -4240 5634 -4240 5634 -3626 5941 -3933 5941 -3343 6260 -3331 6248 -3023 6260 -3024 6579 -2421 6874 -2126 9070 -2421 10016 -2422 10323 -2421 10630 -1819 10949 -1819 11268 -1512 11563 -909 11586 -295 10630 295 10016 602 9697 922 9378 1204 9071 1512 8764 1819 8445 2114 8137 2729 7819 2728 7500 3024 7512 3035 7193 3626 6886 3638 6874 3933 6567 4240 6579 4240 6248 4536 5941 4842 5327 5150 5315 5149 5007 5752 4382 6060 4063 6059 3756 6354 3437 6661 2823 6969 2492 6957 1878 6968 1878 7571 933 7264 945 7571 0 7866 0 7878 -945 7571 -1240 7571 -1571 7559 -2185 7264 -2504 7275 -2811 7264 -3449 6661 -3756 6969 -4063 6354 -4689 6059 -5007 6048 -5008 5763 -5622 5138 -5953 4843 -6248 4547 -6260 4240 -6567 3626 -6886 3331 -6886 3035 -7193 2422 -7500 2114 -7819 1819 -7830 1819 -8126 1204 -8445 910 -8764 909 -9071 614 -19087 603 -20645 307 -10630 0 -10323 -614 -10004 -603 -9697 -909 -9390 -1217 -9378 -1512 -9083 -1818 -8444 -2115 -8445 -2114 -8138 -2728 -7819 -2728 -7500 -3024 -7512 -3638 -6874 -3638 -6886 -3933 -6260 -4240 -6260 -4240 -5929 -4843 -5327 -4535 -5007 -5150 -4689 -5149 -4063 -5445 -3756 -5457 -3437 -6047 -3130 -5752 -2823 -6366 -2185 -6355 -1878 -6661 -1252 -6969 -933 -6956 -626 -7276 -319 -7559zm-1641336 128977l295312 0 0 -59044 -226796 910 -307 0 0 -296 -945 -47539 0 -295 307 0 225544 -910 0 -56327 -224599 2114 -319 0 12 -307 1240 -39354 12 -295 307 0 225532 1818 -933 -61169 -296552 0 2185 260694zm295619 602l-295926 0 -307 0 0 -295 -2185 -261296 0 -296 307 0 297166 0 307 0 0 284 945 61772 0 295 -319 0 -225544 -1807 -1228 38764 224587 -2126 307 0 0 295 0 56929 0 296 -307 0 -225532 909 921 46937 226808 -897 307 0 0 295 0 59646 0 295 -307 0zm0 -295l-295926 0 -2185 -261296 297166 0 945 61760 -225863 -1819 -1240 39366 224906 -2126 0 56929 -225851 910 945 47539 227103 -909 0 59646zm20327 -261603l933 262819 75402 0 0 -107799 0 -296 307 0 190819 308 307 0 0 295 0 107492 77894 -602 0 -261615 -77279 602 -615 97205 -11 296 -296 0 -190819 0 -307 0 0 -296 0 -97217 -76335 -1192zm319 263115l-933 -263411 0 -307 307 12 76949 1205 307 0 0 295 0 97193 190205 0 626 -97193 0 -295 296 0 77894 -603 307 -11 0 307 0 262205 0 295 -307 0 -78509 603 -307 0 0 -295 0 -107493 -190205 -307 0 107800 0 295 -307 0 -76016 0 -307 0 0 -295zm307 0l-933 -263411 76949 1205 0 97500 190819 0 626 -97500 77883 -602 0 262205 -78509 603 0 -107788 -190819 -307 0 108095 -76016 0zm375686 -263115l626 262217 291237 602 0 -60567 -223040 1205 -307 0 0 -295 0 -48142 0 -296 307 0 222426 -602 614 -55417 -223040 -307 -307 0 0 -296 -307 -38149 0 -296 307 0 223347 -602 0 -59055 -291863 0zm12 262512l-626 -262808 0 -307 307 0 292477 0 307 0 0 307 0 59646 0 295 -307 0 -223347 603 307 37559 223040 295 307 0 0 307 -626 56008 0 296 -307 0 -222414 602 0 47551 223040 -1204 307 0 0 295 0 61158 0 295 -307 0 -291851 -603 -307 0 0 -295zm307 0l-626 -262808 292477 0 0 59646 -223654 603 307 38149 223347 307 -626 56008 -222721 603 0 48142 223347 -1205 0 61158 -291851 -603zm663782 -261910l1252 262524 75083 -307 -615 -202571 0 -295 307 0 196761 614 0 -59965 -272788 0zm637 262820l-1252 -263115 0 -296 308 0 273402 0 307 0 0 296 0 60555 0 295 -307 0 -196772 -602 626 202560 0 295 -307 0 -75697 307 -308 0 0 -295zm308 0l-1252 -263115 273402 0 0 60555 -197068 -614 615 202867 -75697 307z"/>
   </g>
   <path class="fil0" d="M310926 347529l0 20279 -135756 0 0 -20279 135756 0zm0 -340927l15638 296 15331 1216 15012 1819 15023 2717 14705 3035 14386 3933 14079 4843 13760 5149 13452 6059 12827 6355 12815 6956 12213 7878 11882 8174 11575 8787 10948 9071 10630 9697 10016 10299 9390 10595 9059 11197 8457 11504 8126 11811 7193 12413 6579 12413 6248 13028 5315 13311 5007 13630 4075 13925 3437 14233 2504 14539 1866 14528 1252 14834 319 15142 -319 15142 -1252 14835 -1866 14527 -2504 14540 -3437 14232 -4075 13925 -5007 13630 -5315 13323 -6248 13016 -6579 12413 -7193 12414 -8126 11811 -8457 11504 -9059 11197 -9390 10606 -10016 10287 -10630 9697 -10948 9083 -11575 8776 -11882 8173 -12213 7878 -12815 6957 -12827 6366 -13452 6047 -13760 5150 -14079 4842 -14386 3945 -14705 3319 -15023 2421 -15012 1819 -15331 1217 -15638 295 0 -142300 -220217 0 0 -56315 0 -26953 0 -20279 0 -40878 0 -38457 220217 0 0 -19075 -220217 0 0 -83256 220217 0 0 -159261zm0 -7571l15957 296 15638 1216 15638 1819 15330 2729 15012 3318 14705 4241 14386 4547 14079 5445 13771 6059 13453 6661 13134 7264 12508 7878 12201 8480 11894 8776 11255 9685 10642 9992 10311 10300 10016 10901 9071 11504 8764 11799 8126 12119 7512 12720 6885 13016 6249 13323 5633 13630 4701 13925 4370 14220 3437 14540 2823 14835 1866 15141 1264 15142 307 15437 -307 15437 -1264 15142 -1866 15142 -2823 14834 -3437 14528 -4370 14232 -4701 13926 -5633 13630 -6249 13322 -6885 13028 -7512 12709 -8126 12118 -8764 11799 -9071 11504 -10016 10902 -10311 10299 -10642 9992 -11255 9685 -11894 8776 -12201 8480 -12508 7878 -13134 7264 -13453 6661 -13771 6059 -14079 5445 -14386 4548 -14705 4228 -15012 3331 -15330 2728 -15638 1819 -15638 1216 -15957 296 -15957 -296 -15637 -1216 -15638 -1819 -15331 -2728 -15012 -3331 -14705 -4228 -14386 -4548 -14078 -5445 -13760 -6059 -13453 -6661 -13146 -7264 -12508 -7878 -12200 -8480 -11882 -8776 -11268 -9685 -10630 -9992 -10323 -10299 -10004 -10902 -9083 -11504 -8752 -11799 -8137 -12118 -7512 -12709 -6874 -13028 -6260 -13322 -5622 -13630 -4701 -13926 -4382 -14232 -3437 -14528 -2811 -14834 -1878 -15142 -1252 -15142 -319 -15437 319 -15437 1252 -15142 1878 -15141 2811 -14835 3437 -14540 4382 -14220 4701 -13925 5622 -13630 6260 -13323 6874 -13016 7512 -12720 8137 -12119 8752 -11799 9083 -11504 10004 -10901 10323 -10300 10630 -9992 11268 -9685 11882 -8776 12200 -8480 12508 -7878 13146 -7264 13453 -6661 13760 -6059 14078 -5445 14386 -4547 14705 -4241 15012 -3318 15331 -2729 15638 -1819 15637 -1216 15957 -296zm64134 270675l-56315 -100820 89150 307 153910 279757 -92906 0 -63189 -107480 -90402 0 0 -72367 59752 603z"/>
  </g>
 </g>
</svg>
