<?xml version="1.0" encoding="UTF-8"?>
<!DOCTYPE svg PUBLIC "-//W3C//DTD SVG 1.1//EN" "http://www.w3.org/Graphics/SVG/1.1/DTD/svg11.dtd">
<!-- Creator: CorelDRAW 2020 (64-Bit) -->
<svg xmlns="http://www.w3.org/2000/svg" xml:space="preserve" width="116.163mm" height="24.7226mm" version="1.1" style="shape-rendering:geometricPrecision; text-rendering:geometricPrecision; image-rendering:optimizeQuality; fill-rule:evenodd; clip-rule:evenodd"
viewBox="0 0 1161626 247226"
 xmlns:xlink="http://www.w3.org/1999/xlink"
 xmlns:xodm="http://www.corel.com/coreldraw/odm/2003">
 <defs>
  <style type="text/css">
   <![CDATA[
    .fil0 {fill:#fff}
    .fil1 {fill:#126FB6;fill-rule:nonzero}
   ]]>
  </style>
 </defs>
 <g id="Слой_x0020_1">
  <metadata id="CorelCorpID_0Corel-Layer"/>
  <g id="_738483328">
   <polygon class="fil0" points="888583,68987 888866,68425 889149,67862 889503,67299 889786,66737 890139,66245 890492,65682 890774,65118 891128,64556 931706,64556 931282,65048 930857,65612 930504,66103 930080,66666 929656,67228 929302,67791 928949,68355 928525,68987 "/>
   <polygon class="fil0" points="884341,78482 884554,77919 884766,77357 884978,76793 885120,76302 885332,75739 885614,75177 885827,74614 886038,74122 925837,74122 925556,74614 925343,75177 925131,75668 924919,76232 924707,76793 924495,77357 924283,77919 924071,78482 "/>
   <polygon class="fil0" points="882220,87977 882292,87555 882363,87132 882433,86641 882503,86219 882574,85797 882646,85304 882716,84882 882786,84390 882857,84319 882857,84179 882857,84109 882857,83968 882927,83897 882927,83827 882927,83687 882999,83616 922657,83616 922586,83687 922586,83758 922586,83827 922516,83968 922516,84039 922516,84109 922516,84179 922445,84249 922375,84742 922303,85234 922162,85656 922092,86149 922022,86641 921949,87062 921879,87555 921809,87977 "/>
   <polygon class="fil0" points="881796,97471 881796,96979 881796,96487 881726,95924 881726,95361 881726,94799 881726,94236 881796,93674 881796,93111 921242,93111 921242,93674 921172,94236 921172,94799 921172,95361 921172,95854 921172,96416 921172,96979 921242,97471 "/>
   <polygon class="fil0" points="883494,107037 883353,106475 883210,105981 883070,105419 882927,104856 882786,104365 882716,103802 882574,103240 882433,102606 921738,102606 921809,103168 921949,103731 922022,104293 922162,104856 922303,105419 922445,105981 922586,106475 922729,107037 "/>
   <polygon class="fil0" points="886745,116531 886604,116110 886391,115617 886251,115195 886038,114773 885897,114281 885755,113858 885544,113367 885402,112875 885332,112804 885332,112733 885332,112593 885260,112523 885260,112452 885190,112311 885190,112242 885120,112171 924707,112171 924990,112733 925273,113296 925626,113930 925908,114421 926261,114985 926615,115547 926968,116039 927394,116531 "/>
   <polygon class="fil0" points="964225,140655 963729,140936 963234,141147 962739,141359 962315,141640 961820,141851 961325,142063 960831,142273 960337,142484 958427,143257 956448,143891 954468,144383 952560,144734 950580,145016 948672,145226 946764,145367 944854,145438 941108,145438 937502,145298 934038,145226 930787,145226 927748,145226 924636,145156 923081,145086 921525,144946 919971,144734 918416,144523 916860,144242 915305,143891 913751,143539 912265,143117 910781,142624 909296,141991 907812,141359 906397,140655 "/>
   <polygon class="fil0" points="978999,131161 978222,131724 977515,132356 976808,132919 976030,133411 975252,133974 974545,134536 973768,135029 972990,135521 899470,135521 899328,135450 899187,135311 899117,135169 898975,135029 898834,134887 898692,134748 898551,134607 898410,134396 898056,134044 897703,133623 897349,133200 896996,132777 896643,132356 896360,132004 896006,131582 895653,131161 "/>
   <polygon class="fil0" points="989037,121665 988542,122228 988048,122790 987482,123354 986987,123917 986422,124408 985927,124971 985362,125533 984796,126027 891835,126027 891482,125533 891128,124971 890774,124408 890492,123917 890139,123354 889856,122790 889503,122228 889219,121665 933120,121665 933474,121877 933827,122017 934181,122228 934534,122369 934888,122510 935241,122650 935665,122790 936019,122932 937219,123213 938492,123423 939835,123423 941108,123354 942380,123072 943723,122721 945066,122228 946340,121665 "/>
   <polygon class="fil0" points="996318,112171 995964,112733 995611,113226 995258,113788 994834,114352 994481,114914 994057,115477 993703,115968 993279,116531 953197,116531 953691,116039 954185,115547 954611,114985 955105,114421 955529,113930 956024,113296 956448,112733 956942,112171 "/>
   <polygon class="fil0" points="1001408,102606 1001126,103168 1000914,103731 1000631,104293 1000419,104856 1000136,105419 999853,105912 999570,106475 999287,107037 960124,107037 960407,106475 960690,105981 960972,105419 961255,104856 961538,104293 961750,103731 962032,103168 962245,102606 "/>
   <polygon class="fil0" points="1004378,93111 1004308,93323 1004308,93533 1004235,93674 1004235,93885 1004165,94096 1004095,94306 1004095,94448 1004024,94658 1003954,95010 1003812,95361 1003741,95712 1003671,96064 1003528,96416 1003458,96768 1003388,97120 1003247,97471 964153,97471 964225,97049 964365,96628 964506,96206 964649,95784 964719,95291 964860,94869 964932,94448 965073,93954 965073,93885 965143,93744 965143,93674 965143,93533 965213,93462 965213,93323 965213,93251 965284,93111 "/>
   <polygon class="fil0" points="1005579,83616 1005509,84179 1005509,84671 1005509,85234 1005439,85797 1005367,86359 1005367,86852 1005296,87414 1005226,87977 966204,87977 966274,87414 966344,86852 966416,86289 966416,85797 966487,85234 966557,84671 966557,84109 966628,83616 "/>
   <polygon class="fil0" points="1005013,74122 1005155,74614 1005226,75177 1005226,75739 1005296,76302 1005367,76793 1005439,77357 1005439,77919 1005509,78482 966698,78482 966628,77919 966628,77357 966557,76793 966487,76232 966487,75668 966416,75177 966344,74614 966274,74122 "/>
   <polygon class="fil0" points="1002751,64556 1002964,65118 1003105,65682 1003247,66174 1003458,66737 1003601,67299 1003741,67862 1003882,68425 1004024,68987 965002,68987 964789,68355 964578,67791 964365,67228 964082,66666 963871,66103 963588,65612 963305,65118 963023,64556 "/>
   <polygon class="fil0" points="998510,55061 998793,55624 999076,56116 999359,56680 999641,57241 999924,57805 1000207,58296 1000490,58859 1000701,59421 958499,59421 957792,59000 957155,58508 956448,58086 955671,57734 954963,57382 954185,57101 953337,56820 952490,56538 951499,56328 950509,56116 949591,55976 948602,55976 947611,55976 946621,55976 945703,56116 944713,56257 943794,56468 942804,56749 941885,57101 940967,57453 940047,57874 939128,58368 938209,58859 937361,59421 894733,59421 895158,58859 895653,58368 896076,57805 896500,57241 896925,56680 897420,56116 897844,55624 898339,55061 "/>
   <polygon class="fil0" points="991723,45568 992149,46059 992572,46622 993067,47184 993491,47677 993915,48240 994339,48803 994763,49365 995187,49927 903217,49927 903782,49365 904348,48803 904984,48240 905550,47677 906114,47184 906751,46622 907388,46059 907952,45568 "/>
   <polygon class="fil0" points="980837,36001 981332,36353 981827,36705 982321,37057 982887,37409 983381,37761 983876,38182 984372,38534 984866,38955 985079,39096 985290,39307 985503,39448 985715,39659 985927,39871 986139,40011 986351,40222 986563,40432 914598,40432 915022,40081 915446,39799 915942,39519 916366,39167 916790,38886 917284,38604 917709,38323 918133,37971 918557,37761 918981,37478 919404,37267 919758,36986 920182,36776 920608,36494 921031,36284 921385,36001 "/>
   <polygon class="fil0" points="958639,27561 960054,27913 961468,28265 962881,28617 964295,29038 965709,29461 967194,29954 968607,30375 970091,30937 932059,30937 933827,30235 935665,29602 937432,29038 939200,28547 940967,28054 942733,27702 944501,27350 946197,27070 947895,26928 949520,26788 951146,26718 952701,26718 954257,26859 955741,26999 957225,27211 "/>
   <polygon class="fil0" points="800784,140655 800006,145508 840018,145508 840795,140655 "/>
   <polygon class="fil0" points="802268,131161 801561,135521 841643,135521 842350,131161 "/>
   <polygon class="fil0" points="803822,121665 803116,126027 843127,126027 843835,121665 "/>
   <polygon class="fil0" points="805378,112171 804671,116531 844612,116531 845319,112171 "/>
   <polygon class="fil0" points="806933,102606 806226,107037 846169,107037 846875,102606 "/>
   <polygon class="fil0" points="808418,93111 807711,97471 847652,97471 848359,93111 "/>
   <polygon class="fil0" points="809974,83616 809267,87977 849207,87977 849844,83616 "/>
   <polygon class="fil0" points="811528,74122 810821,78482 850692,78482 851398,74122 "/>
   <polygon class="fil0" points="813083,64556 812376,68987 852177,68987 852883,64556 "/>
   <polygon class="fil0" points="778303,55061 777313,59211 787070,59421 889007,59421 889927,55061 "/>
   <polygon class="fil0" points="780424,45568 779434,49927 891058,49927 891977,45568 "/>
   <polygon class="fil0" points="782615,36001 781555,40432 893108,40432 894098,36001 "/>
   <polygon class="fil0" points="896006,27211 784595,27211 783746,30937 895158,30937 "/>
   <polygon class="fil0" points="788554,140655 789544,145508 750874,145508 750096,140655 "/>
   <polygon class="fil0" points="786503,131161 787423,135521 749319,135521 748612,131161 "/>
   <polygon class="fil0" points="778373,93111 779293,97471 744724,97471 743946,93111 "/>
   <polygon class="fil0" points="776324,83616 777243,87977 743099,87977 742321,83616 "/>
   <polygon class="fil0" points="774274,74122 775192,78482 741401,78482 740624,74122 "/>
   <polygon class="fil0" points="772223,64556 773213,68987 739704,68987 738927,64556 "/>
   <polygon class="fil0" points="722032,30937 723870,27211 764235,26999 765013,30937 "/>
   <polygon class="fil0" points="717083,40432 719345,36001 766144,36001 767063,40432 "/>
   <polygon class="fil0" points="712135,49927 714398,45568 768194,45568 769112,49927 "/>
   <polygon class="fil0" points="707257,59421 709519,55061 770244,55061 771162,59421 "/>
   <polygon class="fil0" points="702309,68987 704571,64556 738574,64556 736595,68987 "/>
   <polygon class="fil0" points="697431,78482 699692,74122 734261,74122 732211,78482 "/>
   <polygon class="fil0" points="692482,87977 694745,83616 729879,83616 727898,87977 "/>
   <polygon class="fil0" points="687604,97471 689867,93111 725566,93111 723587,97471 "/>
   <polygon class="fil0" points="682656,107037 684918,102606 721255,102606 720758,103802 745855,103802 745643,102606 780424,102606 781344,107037 "/>
   <polygon class="fil0" points="677708,116531 680041,112171 782403,112171 783393,116531 "/>
   <polygon class="fil0" points="672829,126027 675092,121665 784452,121665 785372,126027 "/>
   <polygon class="fil0" points="667881,135521 670143,131161 708035,131161 706055,135521 "/>
   <polygon class="fil0" points="701459,145929 662579,145929 665265,140655 703793,140655 "/>
   <polygon class="fil0" points="1083694,140655 1081432,145860 1060436,145860 1059730,140655 "/>
   <polygon class="fil0" points="1087936,131161 1086027,135521 1059023,135521 1058457,131161 "/>
   <polygon class="fil0" points="1092177,121665 1090198,126027 1057751,126027 1057185,121665 "/>
   <polygon class="fil0" points="1096348,112171 1094439,116531 1056478,116531 1055913,112171 "/>
   <polygon class="fil0" points="1100591,102606 1098611,107037 1055206,107037 1054569,102606 "/>
   <polygon class="fil0" points="1104760,93111 1102852,97471 1053932,97471 1053297,93111 "/>
   <polygon class="fil0" points="1143571,140655 1143571,145577 1106811,145367 1106811,140655 "/>
   <polygon class="fil0" points="1143571,131161 1143571,135521 1106811,135521 1106811,131161 "/>
   <polygon class="fil0" points="1143571,121665 1143571,126027 1106881,126027 1106881,121665 "/>
   <polygon class="fil0" points="1143499,112171 1143499,116531 1106881,116531 1106952,112171 "/>
   <polygon class="fil0" points="1143499,102606 1143499,107037 1106952,107037 1106952,102606 "/>
   <polygon class="fil0" points="1143499,93111 1143499,97471 1106952,97471 1107022,93111 "/>
   <polygon class="fil0" points="1104053,30937 1105821,27211 1143359,26928 1143359,30937 "/>
   <polygon class="fil0" points="1099601,40432 1101650,36001 1143359,36001 1143359,40432 "/>
   <polygon class="fil0" points="1095146,49927 1097196,45568 1143359,45568 1143359,49927 "/>
   <polygon class="fil0" points="1090693,59421 1092744,55061 1143429,55061 1143429,59421 "/>
   <polygon class="fil0" points="1086168,68987 1088219,64556 1143429,64556 1143429,68987 "/>
   <polygon class="fil0" points="1081715,78482 1083766,74122 1143429,74122 1143429,78482 "/>
   <polygon class="fil0" points="1035624,30937 1036967,26928 1074292,27211 1074787,30937 "/>
   <polygon class="fil0" points="1032301,40432 1033856,36001 1075566,36001 1076201,40432 "/>
   <polygon class="fil0" points="1028978,49927 1030534,45568 1076908,45568 1077544,49927 "/>
   <polygon class="fil0" points="1025656,59421 1027212,55061 1078322,55061 1078958,59421 "/>
   <polygon class="fil0" points="1022334,68987 1023888,64556 1079665,64556 1080301,68987 "/>
   <polygon class="fil0" points="1019011,78482 1020566,74122 1081079,74122 1081645,78482 "/>
   <polygon class="fil0" points="1015688,87977 1017244,83616 1143429,83616 1143499,87977 1052589,87977 1052519,87344 1052307,87977 "/>
   <polygon class="fil0" points="1012366,97471 1013921,93111 1050540,93111 1048984,97471 "/>
   <polygon class="fil0" points="1009044,107037 1010598,102606 1047217,102606 1045732,107037 "/>
   <polygon class="fil0" points="1005720,116531 1007276,112171 1043965,112171 1042410,116531 "/>
   <polygon class="fil0" points="1002398,126027 1003954,121665 1040642,121665 1039158,126027 "/>
   <polygon class="fil0" points="999076,135521 1000631,131161 1037391,131161 1035836,135521 "/>
   <polygon class="fil0" points="1032442,145367 995682,145367 997308,140655 1034069,140655 "/>
   <path class="fil0" d="M576727 110361l0 -12687 -843 -1189 -2264 -1156 -4127 -1386 1 -1 -4227 -1146 -3672 -414 -40 -8 -4263 -622 -3194 -69 -4230 69 -3634 478 -3819 761 -3812 963 -3375 1243 -4817 1785 -2792 1838 -2664 2226 -4 0 -2470 2049 -2484 2869 -1706 3209 -1369 3321 -872 3894 -428 2954 0 3448 214 2759 570 2548 1171 3302c3964,11193 16193,17698 27423,19310l-1 2 3629 477 3530 0 3437 0 4012 -343 9 -5 3529 -277 3825 -865 3474 -1252 0 1 3571 -1507 -1 -2 2842 -1303 1517 -1018 0 -25712 -22887 0 0 10115 6300 300 403 19 303 248 1795 1477 314 258 67 381 374 2111 34 193 -39 189 -374 1829 -67 327 -254 239 -1646 1547 -141 132 -167 77 -2767 1266 -145 67 -172 27 -3515 562 -101 17 -121 -4 -2469 -70 -82 -5 -6731 -633 -62 -6 -74 -15 -3365 -703 -245 -77 -2842 -1265 -66 -29 -38 -22 -2843 -1618 -76 -44 -91 -75 -1944 -1618 -88 -72 -71 -89 -1570 -1970 -60 -76 -35 -61 -2019 -3516 -85 -148 -33 -158 -599 -2884 -13 -63 -5 -90 -149 -2672 -5 -81 5 -55 299 -3658 10 -109 40 -126 823 -2532 54 -167 91 -126 2169 -3024 56 -78 84 -79 2468 -2322 105 -99 139 -75 3515 -1899 92 -49 62 -23 3066 -1125 65 -24 57 -14 5013 -1267 103 -26 109 -8 3890 -282 75 -5 114 10 3292 281 8 0 3739 352 72 7 69 14 4610 979 0 -2 3740 703 116 22 138 59 4317 1858 4215 1030 0 -2zm2318 492l0 913 -1449 1051 -5759 -1406 -96 -23 -94 -40 -4275 -1840 -3623 -681 -27 -9 -4570 -970 -3667 -345 1 -1 -3168 -271 -3705 269 -4851 1225 -2939 1078 -3284 1775 -2278 2142 -2023 2819 -727 2238 -286 3495 139 2500 553 2662 1900 3309 1439 1805 1766 1469 2728 1553 2667 1187 3156 659 6639 625 2297 65 3241 -518 2455 -1123 1251 -1176 269 -1312 -272 -1535 -1180 -971 -7002 -332 -1105 -53 0 -1033 0 -12238 0 -1091 1160 0 25205 0 1159 0 0 1091 0 27359 0 557 -489 329 -2094 1406 -89 60 -74 34 -2917 1337 -36 13 -3665 1547 -59 25 -3515 1266 -41 16 -104 23 -4039 913 -110 25 -62 5 -3590 282 -1 -3 -4103 350 -100 8 -5 0 -3440 0 -3591 0 -60 0 -98 -13 -3740 -492 -13 0c-13059,-1869 -24883,-8395 -29270,-20781l-1197 -3375 -26 -73 -11 -47 -597 -2673 -18 -78 -5 -66 -225 -2884 -4 -77 0 -3516 0 -51 13 -94 448 -3094 14 -77 898 -4009 19 -84 35 -86 1421 -3445 16 -39 29 -56 1795 -3376 60 -112 77 -88 2617 -3024 58 -66 74 -61 2540 -2109 -2 -1 2693 -2251 28 -24 80 -53 2992 -1970 120 -79 121 -44 4935 -1828 3441 -1267 64 -24 58 -14 3889 -984 59 -12 3889 -775 81 -13 3740 -492 55 -8 85 0 4339 -71 40 0 3291 71 77 1 77 12 4297 627 1 -3 3739 421 68 8 113 31 4413 1195 72 18 4188 1406 62 21 101 51 2619 1337 253 130 158 224 1197 1688 194 275 0 326 0 13503 2 0zm-121439 5324l0 -12068 1096 6 29196 0 95 0 111 21 2545 492 245 47 204 153 1697 1266 96 72 62 69 1272 1406 221 245 49 326 283 1899 25 170 -29 171 -354 2039 -48 277 -184 225 -1201 1478 -131 161 -186 102 -1909 1056 -120 66 -111 32 -2475 703 -60 12 -2827 634 -134 30 -106 0 -26227 0 -1096 0 0 -1090 1 0zm2191 -9882l0 8791 25025 0 2635 -589 0 -1 2363 -672 1604 -886 887 -1090 275 -1592 -208 -1403 -989 -1093 -1395 -1042 -2190 -423 -28007 0zm-18365 -14780l17178 13 39 0 36123 564 131 2 101 24 3605 844 101 23 92 40 2403 1055 47 25 1838 915 95 47 63 48 2122 1546 57 42 58 56 2191 2109 39 39 1838 1970 98 106 69 129 1273 2389 60 115 34 137 707 2885 34 140 0 116 0 2741 0 77 -13 85 -353 2321 -11 73 -32 98 -707 2180 -23 73 -41 81 -919 1828 -51 99 -61 80 -1414 1828 -21 26 -1626 1970 -60 68 -2192 2250 -73 74 -89 62 -2009 1378 826 701 4 4 2122 1828 73 63 50 61 1838 2180 47 64 1979 2743 39 55 1697 2672 43 70 42 101 1273 3095 34 83 17 70 707 2884 18 85 424 2601 12 86 283 3586 0 64 71 3025 25 1103 -1117 4 -18592 71 -985 3 -102 -979 -207 -1978 -762 -3379 -472 -2081 -1222 -2903 -1231 -2315 -1289 -2092 -2406 -2872 -2070 -2254 -2621 -1091 -20612 265 -134 20524 -8 1086 -1083 0 -17532 0 -1094 0 2 -1090 141 -57827 3 -1064 1067 -22 1 -1zm17204 2186l-16094 -36 -136 55673 15353 0 134 -20507 7 -1067 1072 -14 21914 -282 231 -3 202 84 3040 1266 218 91 167 182 2262 2462 34 38 2475 2954 58 70 36 57 1343 2181 34 59 1272 2392 24 47 19 43 1273 3023 33 78 23 101 494 2181 777 3445 15 67 7 61 111 1062 16489 -63 -43 -1858 -1 0 -282 -3574 -405 -2484 -680 -2773 -1197 -2912 -1643 -2586 -1910 -2649 -1780 -2111 -2043 -1761 -1 0 -1908 -1618 -1082 -917 1172 -803 3090 -2119 2095 -2150 1569 -1902 0 0 1353 -1750 828 -1647 652 -2010 330 -2164 0 -2550 -640 -2607 -1144 -2148 -1728 -1852 -2106 -2028 -1999 -1458 -1695 -844 -1 1 -2313 -1015 -3404 -796 -35971 -561 0 1zm-175718 -2647l15906 -17 758 264 41969 36292 265 -34982 9 -1087 1083 0 16118 0 1095 0 0 1091 0 57602 0 1090 -1095 0 -16895 0 -402 0 -309 -264 -40694 -34760 -132 33934 -5 1090 -1087 0 -16965 0 -1100 0 8 -1095 149 -58076 8 -1041 1316 -41 0 0zm15560 2172l-14537 15 -305 55885 14779 0 138 -35201 10 -2357 1792 1531 42178 36028 15398 0 0 -55422 -13940 0 -274 36260 -19 2364 -1788 -1547 -43432 -37556zm-85480 55761l62223 0 0 -10973 -48315 206 -1073 5 -22 -1070 -212 -10478 -22 -1101 1108 -6 48111 -276 0 -10342 -47885 481 -1136 11 36 -1131 282 -8721 35 -1060 1065 8 48015 413 -179 -11388 -62508 0 477 55422 0 0zm63318 2179l-64401 0 -1082 0 -9 -1081 -496 -57603 -9 -1098 1100 0 64685 0 1074 0 17 1078 212 13573 18 1109 -1118 -10 -48066 -412 -211 6528 47852 -481 1105 -11 0 1097 0 12519 0 1080 -1092 6 -48092 275 169 8309 48340 -206 1100 -4 0 1090 0 13152 -1096 0 0 1090 0 0zm92711 -57484l67 55520 61296 69 0 -11606 -47465 274 -1100 7 0 -1092 0 -10902 0 -1083 1096 -2 47344 -138 116 -10493 -47460 -69 -1083 -1 -9 -1076 -72 -8650 -8 -1092 1100 -3 47541 -138 0 -9525 -61363 0 0 0zm-2115 57678l-70 -58768 -1 -1090 1093 0 63551 0 1096 0 0 1090 0 11698 0 1083 -1096 2 -47535 139 53 6483 47482 69 1104 1 -12 1093 -141 12661 -12 1073 -1080 3 -47327 138 0 8726 47464 -275 1100 -6 0 1092 0 13785 0 1087 -1096 -1 -63481 -71 -1092 -12 0 0zm255333 -60229c15121,0 25023,3468 31173,9077 6210,5664 8556,13441 8556,22011 0,9093 -3377,17285 -10726,22994 -6472,5026 -16007,8093 -29003,8093 -12972,0 -22416,-3053 -28805,-8060 -7287,-5711 -10578,-13917 -10578,-23027 0,-8568 2256,-16343 8376,-22007 6062,-5611 15880,-9081 31007,-9081l0 0zm29773 10598c-5776,-5268 -15218,-8526 -29773,-8526 -14548,0 -23902,3257 -29592,8522 -5632,5213 -7709,12465 -7709,20494 0,8491 3043,16119 9781,21400 6035,4732 15051,7616 27520,7616 12503,0 21609,-2898 27726,-7649 6797,-5280 9922,-12895 9922,-21367 0,-8028 -2160,-15278 -7875,-20490l0 0zm-29773 5000c6691,0 11369,1471 14485,3893 3696,2870 5164,7008 5164,11597 0,4513 -1766,8584 -5437,11436 -3241,2516 -7949,4054 -14212,4054 -6263,0 -10971,-1538 -14211,-4054 -3671,-2852 -5438,-6923 -5438,-11436 0,-4589 1469,-8727 5165,-11597 3116,-2422 7794,-3893 14484,-3893zm13209 5519c-2761,-2145 -7015,-3448 -13209,-3448 -6194,0 -10447,1303 -13208,3448 -3120,2423 -4359,5987 -4359,9971 0,3887 1505,7380 4632,9809 2884,2240 7162,3609 12935,3609 5773,0 10051,-1368 12935,-3609 3128,-2429 4633,-5922 4633,-9809 0,-3984 -1240,-7548 -4359,-9971z"/>
   <g>
    <path class="fil0" d="M458841 40713l-139 13997 31518 0 2527 -907 2532 -1399 1961 -2022 768 -2290 -280 -2641 -1604 -2221 -3373 -1537 -2531 -770 -4018 -211 0 0 -27361 0 0 1zm-278 14066l140 -14136 1 -69 68 0 27429 0 4 1 4030 211 7 0 9 2 2544 775 5 2 4 1 3394 1547 16 8 12 15 1625 2249 10 15 3 19 282 2673 2 14 -5 14 -777 2320 -5 16 -12 11 -1978 2040 -7 7 -9 6 -2546 1406 -5 3 -6 1 -2544 914 -12 5 -12 0 -31599 0 -70 0 1 -70 1 0zm32369 -26727l-50399 0 -71 60840 18100 141 -69 -21101 -1 -70 69 1 28764 211 6846 -1404 5153 -1686 4509 -2453 3949 -3789 2536 -3223 1619 -3851 352 -3711 0 -3297 -846 -3925 -1265 -2868 -2536 -2943 -2605 -2523 -4087 -1962 -4372 -1404 -5645 -983 -1 0zm-50469 -138l50475 0 6 0 6 2 5655 985 4 0 6 1 4382 1408 5 1 5 2 4100 1968 11 6 7 7 2616 2533 2 2 2 2 2544 2954 7 8 5 9 1273 2884 3 7 1 6 848 3939 2 7 0 7 0 3305 0 1 -1 6 -354 3728 0 10 -5 10 -1625 3868 -3 8 -6 8 -2546 3235 -4 4 -3 3 -3959 3798 -6 6 -8 4 -4524 2462 -6 3 -5 2 -5162 1688 -3 1 -5 1 -6857 1407 -7 1 -7 0 -28702 -211 71 21101 0 69 -70 0 -18238 -142 -70 0 1 -68 70 -60978 0 -69 69 0 0 1zm18168 26866l141 -14136 27429 0 4029 210 2545 775 3394 1547 1625 2250 283 2673 -777 2320 -1979 2041 -2546 1406 -2545 914 -31599 0 0 0zm-18168 -26796l50475 0 5655 985 4383 1406 4101 1969 2616 2533 2544 2953 1273 2884 848 3939 0 3305 -354 3728 -1625 3868 -2546 3236 -3959 3797 -4523 2461 -5162 1688 -6857 1407 -28771 -211 70 21170 -18238 -141 70 -60978 0 1zm160539 23299l0 0 0 0zm11123 -10573l-1 0 1 0zm20111 -633l0 0 0 0zm15288 15344l0 0 0 0zm-9087 18148l1 0 -1 0zm-19184 2946l1 0 -1 0zm-34940 -5451l0 0 0 0zm50612 -44701l0 0 0 0zm-41512 7865l0 0 0 0zm-4510 4277l0 0 0 0zm-378546 50035l66738 0 0 -13716 -51253 210 -68 0 -1 -68 -213 -11041 -2 -70 71 -1 50971 -210 0 -13085 -50758 493 -72 0 3 -72 281 -9142 3 -68 67 1 50970 421 -211 -14209 -67019 0 494 60557 -1 0zm66807 139l-66875 0 -69 0 -1 -69 -494 -60696 0 -69 69 0 67158 0 67 0 1 67 213 14348 1 70 -70 -1 -50973 -420 -279 9004 50757 -492 69 -1 0 70 0 13223 0 68 -68 0 -50970 211 209 10904 51255 -210 69 0 0 69 0 13854 0 70 -69 0zm0 -70l-66875 0 -495 -60696 67158 0 212 14347 -51040 -421 -282 9144 50827 -493 0 13223 -51039 210 212 11043 51323 -211 0 13854 -1 0zm4594 -60766l211 61048 17040 0 0 -25038 0 -69 69 1 43123 69 70 0 0 69 0 24968 17604 -139 0 -60769 -17464 139 -140 22579 -1 69 -69 0 -43123 0 -69 0 0 -70 0 -22579 -17251 -278 0 0zm73 61118l-211 -61188 0 -70 70 2 17389 280 69 1 0 68 0 22578 42985 0 140 -22579 0 -68 69 0 17602 -140 70 -1 0 70 0 60907 0 68 -70 1 -17742 140 -71 1 0 -70 0 -24969 -42984 -70 0 25039 0 69 -69 0 -17178 0 -69 0 -1 -69 1 0zm69 0l-211 -61188 17389 281 0 22647 43123 0 141 -22647 17602 -140 0 60907 -17743 140 0 -25038 -43123 -69 0 25107 -17178 0 0 0zm84900 -61119l143 60910 65816 140 0 -14068 -50404 280 -70 1 0 -70 0 -11182 0 -68 70 0 50264 -141 140 -12875 -50405 -69 -68 0 -1 -69 -70 -8861 0 -70 69 0 50475 -140 0 -13718 -65959 0 0 0zm4 60979l-142 -61048 0 -69 69 0 66098 0 69 0 0 69 0 13856 0 69 -69 0 -50476 139 70 8725 50406 70 69 0 0 69 -142 13012 0 68 -68 0 -50264 141 0 11044 50405 -280 69 0 0 69 0 14206 0 68 -69 0 -65956 -139 -69 0 0 -69zm69 0l-142 -61048 66098 0 0 13856 -50545 140 70 8862 50475 69 -141 13012 -50334 141 0 11182 50475 -280 0 14206 -65956 -140 0 0zm150009 -60838l280 60980 16971 -71 -141 -47053 -1 -70 70 1 44467 141 0 -13929 -61646 0 0 1zm143 61049l-282 -61118 0 -69 69 0 61784 0 70 0 0 68 0 14068 0 68 -70 0 -44466 -141 141 47053 0 68 -69 0 -17108 72 -69 0 0 -69 0 0zm69 0l-282 -61118 61784 0 0 14067 -44535 -142 140 47122 -17107 71zm105151 -60439c29676,0 38689,13455 38689,30052 0,16598 -11609,30052 -38689,30052 -27079,0 -38342,-13454 -38342,-30052 0,-16597 8666,-30052 38342,-30052zm0 15597c13912,0 18609,6472 18609,14455 0,7983 -5908,14455 -18609,14455 -12700,0 -18608,-6472 -18608,-14455 0,-7983 4696,-14455 18608,-14455z"/>
   </g>
   <path class="fil0" d="M102210 102481l0 5658 -36656 0 0 -5658 36656 0zm0 -95103l4224 84 4139 338 4053 506 4055 761 3969 845 3885 1097 3801 1351 3717 1437 3631 1689 3463 1774 3462 1941 3295 2196 3209 2282 3126 2450 2956 2532 2871 2704 2703 2872 2535 2955 2448 3126 2282 3208 2196 3294 1941 3463 1775 3463 1688 3633 1436 3715 1352 3801 1098 3885 930 3971 674 4053 506 4055 340 4138 84 4223 -84 4223 -340 4140 -506 4052 -674 4056 -930 3969 -1098 3885 -1352 3801 -1436 3717 -1688 3631 -1775 3463 -1941 3463 -2196 3294 -2282 3209 -2448 3126 -2535 2956 -2703 2871 -2871 2704 -2956 2534 -3126 2448 -3209 2282 -3295 2195 -3462 1942 -3463 1775 -3631 1688 -3717 1437 -3801 1351 -3885 1098 -3969 930 -4055 674 -4053 507 -4139 338 -4224 84 0 -39696 -59461 0 0 -15710 0 -7518 0 -5658 0 -11403 0 -10726 59461 0 0 -5321 -59461 0 0 -23227 59461 0 0 -44427 0 1zm0 -2112l4308 84 4223 338 4223 506 4139 761 4054 929 3969 1183 3885 1267 3801 1519 3716 1690 3633 1856 3547 2028 3379 2196 3293 2366 3211 2450 3040 2702 2872 2786 2786 2873 2704 3041 2448 3210 2366 3293 2196 3378 2027 3549 1858 3631 1690 3716 1520 3802 1268 3885 1180 3969 930 4055 760 4138 506 4223 338 4223 84 4307 -84 4308 -338 4223 -506 4224 -760 4138 -930 4054 -1180 3969 -1268 3885 -1520 3801 -1690 3716 -1858 3633 -2027 3547 -2196 3379 -2366 3293 -2448 3211 -2704 3040 -2786 2872 -2872 2786 -3040 2704 -3211 2448 -3293 2366 -3379 2196 -3547 2028 -3633 1857 -3716 1690 -3801 1520 -3885 1268 -3969 1181 -4054 929 -4139 760 -4223 507 -4223 338 -4308 85 -4308 -85 -4222 -338 -4224 -507 -4137 -760 -4056 -929 -3968 -1181 -3886 -1268 -3800 -1520 -3718 -1690 -3631 -1857 -3548 -2028 -3379 -2196 -3293 -2366 -3210 -2448 -3040 -2704 -2872 -2786 -2787 -2872 -2703 -3040 -2449 -3211 -2366 -3293 -2196 -3379 -2028 -3547 -1856 -3633 -1690 -3716 -1520 -3801 -1266 -3885 -1183 -3969 -929 -4054 -761 -4138 -506 -4224 -338 -4223 -84 -4308 84 -4307 338 -4223 506 -4223 761 -4138 929 -4055 1183 -3969 1266 -3885 1520 -3802 1690 -3716 1856 -3631 2028 -3549 2196 -3378 2366 -3293 2449 -3210 2703 -3041 2787 -2873 2872 -2786 3040 -2702 3210 -2450 3293 -2366 3379 -2196 3548 -2028 3631 -1856 3718 -1690 3800 -1519 3886 -1267 3968 -1183 4056 -929 4137 -761 4224 -506 4222 -338 4308 -84zm17315 75508l-15203 -28125 24071 84 41555 78042 -25084 0 -17061 -29984 -24409 0 0 -20185 16132 168 -1 0z"/>
   <path class="fil0" d="M20200 194388l712440 0 -18617 49040 -693823 0 0 -49040zm91978 36672l0 -8624c-2335,1146 -4372,1719 -6112,1719 -2401,0 -4296,-651 -5684,-1950 -1387,-1300 -2081,-3237 -2081,-5815l0 -8458 5088 0 0 6972c0,2995 1244,4493 3734,4493 2092,0 3777,-495 5055,-1487l0 -9978 5088 0 0 23128 -5088 0zm30561 -23128l0 23128 -5021 0 0 -15165 -10111 15165 -4791 0 0 -23128 5023 0 0 15166 10176 -15166 4724 0zm16389 23524c-3392,0 -6218,-1150 -8475,-3453 -2258,-2301 -3386,-5137 -3386,-8507 0,-3348 1134,-6179 3403,-8491 2269,-2313 5154,-3469 8656,-3469 2005,0 3689,325 5055,975 1366,649 2665,1580 3899,2792l-3040 3502c-991,-903 -1922,-1559 -2792,-1966 -870,-408 -1921,-611 -3155,-611 -1939,0 -3541,699 -4807,2098 -1267,1399 -1900,3122 -1900,5171 0,2026 633,3743 1900,5153 1266,1410 2868,2115 4807,2115 1234,0 2302,-220 3205,-661 902,-440 1861,-1123 2874,-2048l3238 3469c-1255,1344 -2615,2335 -4080,2973 -1465,640 -3265,959 -5402,959l0 -1zm18931 -396l0 -18436 -7037 0 0 -4692 19163 0 0 4692 -7038 0 0 18436 -5088 0 0 0zm14042 0l9912 -23293 4692 0 9912 23293 -5319 0 -2115 -5187 -9780 0 -2114 5187 -5188 0zm9119 -9681l6146 0 -3073 -7499 -3073 7499 0 0zm28877 9681l0 -23128 17444 0 0 4526 -12390 0 0 4692 10904 0 0 4527 -10904 0 0 4856 12556 0 0 4527 -17610 0 0 0zm22137 0l0 -23128 5088 0 0 9152 9383 0 0 -9152 5088 0 0 23128 -5088 0 0 -9284 -9383 0 0 9284 -5088 0zm25110 0l0 -23128 17444 0 0 4526 -12389 0 0 4692 10903 0 0 4527 -10903 0 0 4856 12555 0 0 4527 -17610 0 0 0zm22137 0l0 -23128 9449 0c2731,0 4890,738 6476,2214 1586,1476 2379,3425 2379,5848 0,2577 -881,4576 -2643,5997 -1762,1420 -3998,2130 -6707,2130l-3866 0 0 6939 -5088 0 0 0zm5088 -11465l4030 0c1257,0 2242,-330 2958,-991 716,-661 1074,-1520 1074,-2577 0,-1123 -364,-1988 -1091,-2594 -727,-605 -1740,-908 -3039,-908l-3932 0 0 7070 0 0zm22071 -7071l0 18536 -5089 0 0 -23128 16157 0 0 4592 -11068 0zm14900 18536l0 -23128 5088 0 0 23128 -5088 0zm29175 -23128l0 23128 -5089 0 0 -7401 -3998 0 -4956 7401 -5946 0 5649 -8260c-3304,-1233 -4956,-3645 -4956,-7235 0,-2380 777,-4246 2330,-5601 1552,-1354 3683,-2032 6392,-2032l10574 0zm-10243 11234l5154 0 0 -6642 -5055 0c-1255,0 -2236,287 -2940,859 -705,573 -1057,1410 -1057,2512 0,991 346,1784 1040,2378 694,595 1646,893 2858,893l0 0zm25737 11894l0 -23128 5485 0 6079 9780 6079 -9780 5485 0 0 23128 -5055 0 0 -15099 -6509 9878 -132 0 -6443 -9780 0 15001 -4989 0 0 0zm26696 0l9912 -23293 4692 0 9912 23293 -5320 0 -2114 -5187 -9781 0 -2114 5187 -5187 0 0 0zm9119 -9681l6145 0 -3073 -7499 -3073 7499 1 0zm38887 -13447l0 23128 -5021 0 0 -15165 -10111 15165 -4790 0 0 -23128 5022 0 0 15166 10176 -15166 4724 0zm-6128 -3073c-981,881 -2230,1322 -3750,1322 -1520,0 -2770,-441 -3750,-1322 -980,-880 -1580,-2114 -1801,-3700l2941 -529c463,1476 1333,2214 2610,2214 1277,0 2147,-738 2610,-2214l2941 529c-220,1586 -821,2820 -1801,3700l0 0zm16768 7665l0 4032 6112 0c2577,0 4576,644 5997,1932 1420,1289 2131,3034 2131,5237 0,2335 -760,4141 -2280,5419 -1520,1277 -3634,1916 -6343,1916l-10706 0 0 -23128 17743 0 0 4592 -12654 0 0 0zm5583 8260l-5583 0 0 5683 5617 0c2356,0 3535,-980 3535,-2940 0,-1828 -1190,-2743 -3569,-2743zm22633 -627l5584 -12225 5517 0 -8888 17875c-991,1982 -2087,3414 -3287,4295 -1201,881 -2627,1322 -4279,1322 -1740,0 -3403,-453 -4989,-1355l1983 -3734c836,507 1751,761 2742,761 1146,0 2114,-617 2907,-1851l-9251 -17313 5683 0 6278 12225zm19856 10903l0 -18436 -7037 0 0 -4692 19163 0 0 4692 -7037 0 0 18436 -5089 0 0 0zm16025 0l0 -23128 5088 0 0 9152 9384 0 0 -9152 5088 0 0 23128 -5088 0 0 -9284 -9384 0 0 9284 -5088 0zm25110 0l0 -23128 5089 0 0 7863 4922 0c2643,0 4714,677 6212,2032 1497,1355 2246,3178 2246,5469 0,2378 -787,4267 -2362,5666 -1575,1399 -3717,2098 -6426,2098l-9681 0zm9582 -10903l-4493 0 0 6310 4526 0c2533,0 3800,-1079 3800,-3237 0,-2049 -1278,-3073 -3833,-3073l0 0zm32825 7814c-2346,2323 -5281,3485 -8805,3485 -3524,0 -6448,-1156 -8772,-3469 -2324,-2312 -3486,-5143 -3486,-8491 0,-3326 1173,-6151 3518,-8475 2346,-2323 5282,-3486 8806,-3486 3524,0 6448,1157 8772,3470 2324,2312 3486,5143 3486,8491 0,3326 -1173,6151 -3519,8475zm-13761 -3321c1321,1410 2995,2114 5022,2114 2026,0 3689,-699 4989,-2098 1299,-1399 1950,-3122 1950,-5170 0,-2027 -662,-3744 -1983,-5154 -1322,-1410 -2996,-2115 -5022,-2115 -2027,0 -3689,700 -4989,2098 -1300,1399 -1949,3122 -1949,5171 0,2026 660,3744 1982,5154l0 0zm26894 -12126l0 18536 -5089 0 0 -23128 16157 0 0 4592 -11068 0zm34708 15447c-2346,2323 -5281,3485 -8805,3485 -3524,0 -6449,-1156 -8773,-3469 -2323,-2312 -3485,-5143 -3485,-8491 0,-3326 1173,-6151 3518,-8475 2346,-2323 5281,-3486 8806,-3486 3524,0 6447,1157 8772,3470 2324,2312 3485,5143 3485,8491 0,3326 -1173,6151 -3519,8475l1 0zm-13762 -3321c1322,1410 2996,2114 5023,2114 2026,0 3689,-699 4989,-2098 1299,-1399 1949,-3122 1949,-5170 0,-2027 -661,-3744 -1983,-5154 -1321,-1410 -2995,-2115 -5021,-2115 -2027,0 -3690,700 -4989,2098 -1300,1399 -1950,3122 -1950,5171 0,2026 661,3744 1983,5154l-1 0z"/>
   <path class="fil1" d="M184244 89038c0,-22353 -9061,-42591 -23709,-57240 -14649,-14648 -34887,-23709 -57240,-23709 -22354,0 -42592,9060 -57240,23709 -14649,14649 -23710,34887 -23710,57240 0,22354 9061,42592 23709,57241 14649,14648 34887,23709 57241,23709 22353,0 42591,-9061 57240,-23710 14648,-14648 23709,-34886 23709,-57240zm-20676 -60273c15426,15425 24967,36736 24967,60273 0,23539 -9541,44848 -24966,60274 -15426,15425 -36736,24966 -60274,24966 -23539,0 -44849,-9541 -60274,-24966 -15426,-15425 -24966,-36735 -24966,-60274 0,-23538 9540,-44848 24966,-60274 15425,-15425 36736,-24966 60274,-24966 23537,0 44848,9542 60273,24967z"/>
  </g>
 </g>
</svg>
