<?xml version="1.0" encoding="UTF-8"?>
<!DOCTYPE svg PUBLIC "-//W3C//DTD SVG 1.1//EN" "http://www.w3.org/Graphics/SVG/1.1/DTD/svg11.dtd">
<!-- Creator: CorelDRAW X7 -->
<svg xmlns="http://www.w3.org/2000/svg" xml:space="preserve" width="400px" height="400px" version="1.1" style="shape-rendering:geometricPrecision; text-rendering:geometricPrecision; image-rendering:optimizeQuality; fill-rule:evenodd; clip-rule:evenodd"
viewBox="0 0 4000000 4000000"
 xmlns:xlink="http://www.w3.org/1999/xlink">
 <defs>
  <style type="text/css">
   <![CDATA[
    .fil0 {fill:#1F4B99}
   ]]>
  </style>
 </defs>
 <g id="Слой_x0020_1">
  <metadata id="CorelCorpID_0Corel-Layer"/>
  <path class="fil0" d="M39591 3448235l1579609 0c-10323,88051 -15803,221587 -15803,268394 0,46808 94,5587 94,8398l-1548440 0c-9177,-91146 -14232,-183520 -15460,-276792zm3144880 -3187364c267804,0 527741,33567 775927,96602l0 213001 -2138367 0c412182,-198473 874337,-309603 1362440,-309603zm-3140416 2969273c6000,-107776 17351,-214111 33886,-318733l1650712 0c-38787,102945 -70347,209398 -94075,318733l-1590523 0zm76193 -536824c25158,-108520 56079,-214831 92138,-318733l1755370 0c-72922,100465 -137835,207024 -193890,318733l-1653618 0zm170103 -520772c46772,-109595 99626,-215954 158067,-318733l2042827 0c-130465,93768 -250784,200598 -358808,318733l-1842086 0zm297083 -541017c76453,-111626 159934,-218068 249757,-318733l3123207 0 0 108331 -1583 210402 -3371381 0zm455174 -528438c125564,-116812 260658,-223489 404044,-318721l2513746 0 0 318721 -2917790 0z"/>
 </g>
</svg>
