<?xml version="1.0" encoding="UTF-8"?>
<!DOCTYPE svg PUBLIC "-//W3C//DTD SVG 1.1//EN" "http://www.w3.org/Graphics/SVG/1.1/DTD/svg11.dtd">
<!-- Creator: CorelDRAW X7 -->
<svg xmlns="http://www.w3.org/2000/svg" xml:space="preserve" width="200px" height="180px" version="1.1" style="shape-rendering:geometricPrecision; text-rendering:geometricPrecision; image-rendering:optimizeQuality; fill-rule:evenodd; clip-rule:evenodd"
viewBox="0 0 2000000 1799991"
 xmlns:xlink="http://www.w3.org/1999/xlink">
 <defs>
  <style type="text/css">
   <![CDATA[
    .fil0 {fill:#2B2A29;fill-rule:nonzero}
   ]]>
  </style>
 </defs>
 <g id="Слой_x0020_1">
  <metadata id="CorelCorpID_0Corel-Layer"/>
  <g id="_827770384">
   <path class="fil0" d="M430681 839463l249769 0c74481,0 142242,30792 191340,80340l130 129c49087,49572 79584,117982 79584,193159l0 413283c0,75213 -30497,143588 -79584,193159l0 130c-49099,49571 -116906,80339 -191470,80339l-409397 0c-74587,0 -142371,-30768 -191470,-80339 -49110,-49571 -79595,-117993 -79595,-193289l0 -370231 0 -43052 0 -533827 130 -2669c12449,-146647 79489,-288687 169501,-394562 94419,-111048 215305,-183344 327440,-181915l0 -130 194045 0 1146 0 2881 378c29776,3874 53210,14811 70466,32410l106 130c17421,17787 27638,41303 30921,70205l260 2244 0 1441 0 194777 -130 1524c-1606,32977 -10559,61158 -29610,82229l-130 0c-19524,21567 -47882,34264 -87426,35303l-1524 0c-75650,-1996 -131788,11056 -171391,40465 -38020,28229 -62421,73300 -75992,136253l0 242116zm249769 65091l-282002 0 -32233 0 0 -32539 0 -277680 0 -2941 756 -3673c16737,-81024 49312,-140115 101659,-179009 51343,-38115 120119,-55205 210155,-52938 20008,-626 33154,-5704 40807,-14126l-59 -59c7925,-8775 11906,-22642 12933,-40016l-47 0 0 -193171c-1772,-13122 -5894,-23126 -12425,-29858 -6662,-6791 -16725,-11339 -30272,-13477l-192663 0 -366 -129c-92552,-1312 -195510,62020 -278199,159296 -81639,96024 -142466,224270 -154029,356294l0 532563 0 43052 0 370231c0,57320 23268,109466 60709,147261 37441,37796 89103,61288 145879,61288l409397 0c56764,0 108426,-23492 145879,-61288l59 71c37406,-37819 60639,-89977 60639,-147332l0 -413283c0,-57354 -23233,-109512 -60639,-147320 -37453,-37760 -89126,-61217 -145938,-61217z"/>
   <path class="fil0" d="M1479189 839463l249758 0c74481,0 142241,30792 191352,80340l118 129c49099,49572 79595,117982 79595,193159l0 413283c0,75213 -30496,143588 -79595,193159l0 130c-49099,49571 -116895,80339 -191470,80339l-409397 0c-74576,0 -142371,-30768 -191470,-80339 -49099,-49571 -79584,-117993 -79584,-193289l0 -370231 0 -43052 0 -533827 130 -2669c12437,-146647 79477,-288687 169502,-394562 94406,-111048 215293,-183344 327439,-181915l0 -130 194033 0 1146 0 2894 378c29776,3874 53197,14811 70453,32410l118 130c17422,17787 27626,41303 30922,70205l259 2244 0 1441 0 194777 -129 1524c-1619,32977 -10560,61158 -29623,82229l-130 0c-19523,21567 -47870,34264 -87426,35303l-1523 0c-75650,-1996 -131777,11056 -171391,40465 -38008,28229 -62422,73300 -75981,136253l0 242116zm249758 65091l-282003 0 -32232 0 0 -32539 0 -277680 0 -2941 756 -3673c16748,-81024 49311,-140115 101670,-179009 51343,-38115 120107,-55205 210155,-52938 20008,-626 33142,-5704 40808,-14126l-71 -59c7937,-8775 11905,-22642 12933,-40016l-47 0 0 -193171c-1760,-13122 -5894,-23126 -12414,-29858 -6673,-6791 -16724,-11339 -30284,-13477l-192651 0 -378 -129c-92540,-1312 -195497,62020 -278199,159296 -81626,96024 -142454,224270 -154017,356294l0 532563 0 43052 0 370231c0,57320 23256,109466 60698,147261 37453,37796 89103,61288 145879,61288l409397 0c56764,0 108438,-23492 145879,-61288l71 71c37405,-37819 60638,-89977 60638,-147332l0 -413283c0,-57354 -23233,-109512 -60638,-147320 -37465,-37760 -89127,-61217 -145950,-61217z"/>
  </g>
 </g>
</svg>
