<?xml version="1.0" encoding="UTF-8"?>
<!DOCTYPE svg PUBLIC "-//W3C//DTD SVG 1.1//EN" "http://www.w3.org/Graphics/SVG/1.1/DTD/svg11.dtd">
<!-- Creator: CorelDRAW X7 -->
<svg xmlns="http://www.w3.org/2000/svg" xml:space="preserve" width="700px" height="342px" version="1.1" style="shape-rendering:geometricPrecision; text-rendering:geometricPrecision; image-rendering:optimizeQuality; fill-rule:evenodd; clip-rule:evenodd"
viewBox="0 0 7000000 3419980"
 xmlns:xlink="http://www.w3.org/1999/xlink">
 <defs>
  <style type="text/css">
   <![CDATA[
    .fil0 {fill:#0061A3}
    .fil1 {fill:#38AA3E}
   ]]>
  </style>
 </defs>
 <g id="Слой_x0020_1">
  <metadata id="CorelCorpID_0Corel-Layer"/>
  <g id="_820883744">
   <g>
    <path class="fil0" d="M5426498 822048c218764,-489957 742052,-823217 1375195,-823217l196382 0 0 647020 -146386 0c-360697,0 -656552,178831 -775572,438733 -4535,-449 -9307,-886 -14362,-1311 -118902,-9886 -182174,-28819 -293292,-57567 -44964,-11634 -125008,-30567 -163996,-53185 -12827,-7441 -55902,-50918 -56988,-76571 -1170,-27673 53870,-59351 90803,-88595 44740,-35445 42224,-40819 95634,-62386 55405,-40252 57661,-50622 97016,-105508 67417,-64452 168189,-150165 239953,-209657l-235489 145145c-56834,35422 -54803,15603 -109464,30130 -33886,9000 -72142,55760 -78284,85595 -48496,66036 -138248,133795 -221150,131374z"/>
    <path class="fil0" d="M3592055 633863l957072 0c-1193,-768 -2445,-1630 -3779,-2634 -6733,-11303 -2422,-21602 -7819,-32327 -3319,-6590 -13394,-12543 -19654,-19476 -7842,-16973 21449,-42000 1158,-43524 -22465,-1677 -38717,3839 -58536,-11480 -10004,-7736 -11433,-17492 -20835,-21792 -8929,-4086 -19511,-3035 -31027,-8539 -11929,-39402 3649,-33437 -42744,-42024 -4925,-42897 -1925,-32232 -38351,-41763 -36271,-9485 -24945,-17717 -32362,-47528 -72532,-35362 -59717,-6213 -57756,-51697 -13335,-9083 -67772,-15366 -97500,-34890 21295,-23551 84189,-17657 110303,-27141 -10819,-13689 -77397,-14138 -99874,-17457 -20350,-3000 -81236,-15898 -94264,-24898 84201,-25972 195520,-13819 216426,-21732 -5516,-6992 -17457,-7217 -26374,-8209l-89752 -8728c-31465,-3933 -79229,-12827 -99745,-30910 65906,-26681 141284,-1488 199335,-8185 -8527,-13169 -92894,-21708 -113338,-26905 -21686,-5504 -82642,-27969 -86729,-53091 91347,-8149 209729,41882 227351,31370 -34630,-28665 -125930,-23575 -183650,-65964 -9177,-6745 -18780,-17528 -26303,-28961l-481253 0 0 648485z"/>
    <path class="fil0" d="M4256509 -14622l-86705 0c69768,21012 127654,52772 204272,62244 -7996,-14492 -71540,-36945 -117567,-62244z"/>
    <path class="fil0" d="M5154112 633863l201863 0 0 -648485 -978297 0c13866,8728 27284,19831 47965,35150 56173,41610 127417,58252 189791,93862 39863,22760 78756,47079 120189,68209 60556,30897 147886,54342 202926,83173 18047,9449 42862,27921 52713,40346 26409,33308 93130,201131 120189,258686 13842,29421 27637,49854 42661,69059z"/>
    <path class="fil0" d="M-1323 1020261l921202 0c99980,0 174957,-83610 174957,-189024 0,-105402 -74988,-185386 -174957,-185386l-932966 0 0 -647020 1072218 0c410611,0 748040,330780 746257,825142 -1784,494340 -339201,843308 -742678,843308l-360627 0 0 1021431 -703406 0 0 -1668451z"/>
    <path class="fil0" d="M3574457 2493192l2327 3791 2610 4264 0 -1480986 1303041 0c15059,18709 25535,13429 39307,27449 14988,15260 13311,23527 40193,34299 18626,7453 24590,26374 42921,31618 23669,6768 43547,-4393 50787,23941 -1724,16689 -123744,86504 -143976,95587 -11232,5043 -36354,26468 -43725,35905 3308,19949 22997,40843 32776,54969 16583,23965 19902,37205 12969,74528 -2445,13157 -10512,19145 -17304,28429 -5964,8126 -12661,17055 -18885,26468 -18721,28311 -35741,53646 -58819,76937l-23634 21556c-54780,42200 -44433,46110 -79902,101114 -2445,3791 -5775,8740 -9413,14220l-422930 0 0 374398 1110450 0 0 647033 -1749167 0 -64689 0 -2610 0 -2327 11 0 -195531z"/>
    <path class="fil0" d="M6998075 2688712l-196382 0c-717332,0 -1293675,-427761 -1445848,-1026557 2515,1689 5090,3402 7724,5126l-572127 0c7807,-5905 15933,-11362 24000,-16783 24260,-16323 34642,-25866 47575,-53575 12378,-26516 52678,-57591 76040,-78224 5515,-4878 6283,-6969 11374,-12461l41279 -38539c23965,-24875 24532,-38316 63355,-27048 23941,6957 57082,29422 74728,30496 16713,-41917 33732,-86905 50268,-133771 9850,-27898 12874,-43902 38894,-54225 8468,-3354 67630,-29421 68539,-17657l4169 25299c7311,48992 10182,24118 24874,38102l-23 1760c45472,5067 33709,30272 73429,37099 1181,200 2280,744 3307,1582l0 -2634c1984,1382 4110,2953 6685,4642 17114,11161 39142,16996 50693,28902 27366,28193 38563,11468 57260,22228 7795,4488 7973,12910 20941,18898 15449,7134 23587,826 36815,3165 9591,1701 31902,24732 47433,31843 28299,12968 38563,-4973 56303,23126 21922,34724 24343,13287 58985,13334l19783 27142c20528,2598 36248,-10441 47422,-9106 8291,980 20397,19051 32940,24106 19052,7677 30603,-2835 50481,2221 43854,11137 42401,-15556 68079,3141 9531,6933 8149,5717 20232,8646 17469,4240 20882,14717 29787,28866 15225,24177 23386,8162 41847,16583 12909,5870 15130,26138 27673,34299l32858 165c131457,234804 413198,392788 752222,392788l146386 0 0 647021z"/>
    <path class="fil1" d="M3583787 2688688l-2334711 0c83433,-172595 292229,-650989 292028,-646843 414355,3531 499359,-189 910596,-189 -321603,-645379 -355879,-1314911 -349288,-2042849l836363 0c-13724,129012 -20941,259996 -20941,392682 0,785493 246544,1513041 665953,2108742l0 188457z"/>
   </g>
   <path class="fil0" d="M105732 3401212l0 -105531 76926 0c77941,0 119905,-52264 119905,-114579 0,-62811 -41964,-115075 -119905,-115075l-177851 0 0 335185 100925 0zm63945 -193972l-63945 0 0 -52772 63945 0c16985,0 30473,8539 30473,26634 0,17598 -13488,26138 -30473,26138zm474402 193972l0 -335185 -100913 0 0 335185 100913 0zm470907 0c66944,0 98421,-44220 98421,-90956 0,-43217 -27473,-76382 -63449,-81910 32469,-7039 56953,-35185 56953,-76890 0,-39201 -29977,-85429 -98918,-85429l-202323 0 0 335185 209316 0zm-30473 -211571l-77929 0 0 -39189 77929 0c10488,0 19984,7536 19984,19099 0,12059 -9496,20090 -19984,20090zm3000 127146l-80929 0 0 -42709 80929 0c14492,0 23480,9544 23480,21603 0,12567 -8988,21106 -23480,21106zm695221 84425l0 -335185 -100913 0 0 118595 -119398 0 0 -118595 -100913 0 0 335185 100913 0 0 -128149 119398 0 0 128149 100913 0zm514371 0l0 -88441 -151866 0 0 -36685 148370 0 0 -88441 -148370 0 0 -33177 151866 0 0 -88441 -252780 0 0 335185 252780 0zm573827 0l0 -335185 -100913 0 0 118595 -119398 0 0 -118595 -100913 0 0 335185 100913 0 0 -128149 119398 0 0 128149 100913 0zm426946 6036c87425,0 131894,-53268 151370,-97996l-86917 -40205c-8493,26138 -34477,48744 -64453,48744 -48461,0 -80929,-37181 -80929,-83917 0,-46737 32468,-83930 80929,-83930 29976,0 55960,22619 64453,48756l86917 -40712c-19972,-46229 -63945,-97488 -151370,-97488 -104410,0 -183343,69850 -183343,173374 0,103016 78933,173374 183343,173374zm390484 -341221l0 335185 177851 0c77929,0 119894,-52263 119894,-115074 0,-62315 -41965,-114579 -119894,-114579l-76937 0 0 -105532 -100914 0zm164859 193973c16984,0 30472,8551 30472,26138 0,18094 -13488,26633 -30472,26633l-63945 0 0 -52771 63945 0zm690721 141212l-131386 -179397 125894 -155788 -123402 0 -87425 125634 0 -125634 -100914 0 0 335185 100914 0 0 -92964 18484 -25134 74941 118098 122894 0zm562335 0l-122893 -335185 -126898 0 -122894 335185 114402 0 11988 -39189 119905 0 11989 39189 114401 0zm-153366 -127641l-65953 0 32977 -108048 32976 108048zm970489 127641l-122893 -335185 -126898 0 -122894 335185 114402 0 11988 -39189 119905 0 11989 39189 114401 0zm-153366 -127641l-65953 0 32977 -108048 32976 108048zm631772 127641l0 -88441 -151866 0 0 -36685 148370 0 0 -88441 -148370 0 0 -33177 151866 0 0 -88441 -252791 0 0 335185 252791 0zm417958 6036c87425,0 131893,-53268 151370,-97996l-86918 -40205c-8492,26138 -34476,48744 -64452,48744 -48461,0 -80930,-37181 -80930,-83917 0,-46737 32469,-83930 80930,-83930 29976,0 55960,22619 64452,48756l86918 -40712c-19973,-46229 -63945,-97488 -151370,-97488 -104410,0 -183343,69850 -183343,173374 0,103016 78933,173374 183343,173374z"/>
  </g>
 </g>
</svg>
