<?xml version="1.0" encoding="UTF-8"?>
<!DOCTYPE svg PUBLIC "-//W3C//DTD SVG 1.1//EN" "http://www.w3.org/Graphics/SVG/1.1/DTD/svg11.dtd">
<!-- Creator: CorelDRAW X7 -->
<svg xmlns="http://www.w3.org/2000/svg" xml:space="preserve" width="100px" height="100px" version="1.1" style="shape-rendering:geometricPrecision; text-rendering:geometricPrecision; image-rendering:optimizeQuality; fill-rule:evenodd; clip-rule:evenodd"
viewBox="0 0 1000000 1000000"
 xmlns:xlink="http://www.w3.org/1999/xlink">
 <defs>
  <style type="text/css">
   <![CDATA[
    .fil0 {fill:#FEFEFE}
   ]]>
  </style>
 </defs>
 <g id="Слой_x0020_1">
  <metadata id="CorelCorpID_0Corel-Layer"/>
  <path class="fil0" d="M938275 349704l46666 0 0 300592 -46666 0 0 89989 -923216 0 0 -480570 923216 0 0 89989zm-834562 -16453l747077 0 20351 0 0 87733 45484 0 0 20350 0 117332 0 20350 -45484 0 0 67383 0 20350 -20351 0 -747077 0 -20338 0 0 -20350 0 -292798 0 -20350 20338 0z"/>
  <polygon class="fil0" points="127914,373952 264179,373952 264179,626048 127914,626048 "/>
  <polygon class="fil0" points="315900,373952 452153,373952 452153,626048 315900,626048 "/>
  <polygon class="fil0" points="503874,373952 640139,373952 640139,626048 503874,626048 "/>
  <polygon class="fil0" points="691860,373952 828113,373952 828113,626048 691860,626048 "/>
 </g>
</svg>
