<?xml version="1.0" encoding="UTF-8"?>
<!DOCTYPE svg PUBLIC "-//W3C//DTD SVG 1.1//EN" "http://www.w3.org/Graphics/SVG/1.1/DTD/svg11.dtd">
<!-- Creator: CorelDRAW X7 -->
<svg xmlns="http://www.w3.org/2000/svg" xml:space="preserve" width="100px" height="100px" version="1.1" style="shape-rendering:geometricPrecision; text-rendering:geometricPrecision; image-rendering:optimizeQuality; fill-rule:evenodd; clip-rule:evenodd"
viewBox="0 0 1000000 1000000"
 xmlns:xlink="http://www.w3.org/1999/xlink">
 <defs>
  <style type="text/css">
   <![CDATA[
    .fil0 {fill:#FEFEFE}
   ]]>
  </style>
 </defs>
 <g id="Слой_x0020_1">
  <metadata id="CorelCorpID_0Corel-Layer"/>
  <path class="fil0" d="M345156 124206l84710 144887 155954 -50257 -42509 141072c-6189,-555 -12437,-838 -18756,-838 -13760,0 -27224,1346 -40264,3909 -28535,-46961 -80162,-78331 -139135,-78331 -89847,0 -162698,72827 -162698,162686 0,52583 24945,99332 63662,129072 -17894,19418 -32044,42201 -41504,67158l-100135 32256 48024 -159320 -147710 -69166 146801 -74611 -47115 -153887 161364 46879 79311 -141509zm2563 202619c39591,0 74753,18910 96981,48178 -62339,26020 -109406,81603 -123390,149458 -15508,6224 -30012,14244 -43312,23764 -31406,-22004 -51957,-58465 -51957,-99733 0,-67206 54473,-121667 121678,-121667zm176836 81072c82477,0 150250,62918 157974,143375 16665,-13524 37914,-21614 61052,-21614 51071,0 92941,39449 96745,89563 8480,-1759 17267,-2693 26267,-2693 71032,0 128612,57580 128612,128612 0,71032 -57580,128611 -128612,128611 -1689,0 -3366,-35 -5043,-106 -3614,602 -7335,921 -11114,921l-431874 0c-6508,815 -13145,1228 -19866,1228 -6756,0 -13406,-413 -19937,-1240 -9012,-118 -17610,-2020 -25453,-5362 -65540,-19524 -113316,-80221 -113316,-152104 0,-76406 54012,-140209 125942,-155304 2551,-85418 72591,-153887 158623,-153887z"/>
 </g>
</svg>
