<?xml version="1.0" encoding="UTF-8"?>
<!DOCTYPE svg PUBLIC "-//W3C//DTD SVG 1.1//EN" "http://www.w3.org/Graphics/SVG/1.1/DTD/svg11.dtd">
<!-- Creator: CorelDRAW X7 -->
<svg xmlns="http://www.w3.org/2000/svg" xml:space="preserve" width="625px" height="584px" version="1.1" style="shape-rendering:geometricPrecision; text-rendering:geometricPrecision; image-rendering:optimizeQuality; fill-rule:evenodd; clip-rule:evenodd"
viewBox="0 0 6250000 5839992"
 xmlns:xlink="http://www.w3.org/1999/xlink">
 <defs>
  <style type="text/css">
   <![CDATA[
    .fil0 {fill:#5B5B5B}
   ]]>
  </style>
 </defs>
 <g id="Слой_x0020_1">
  <metadata id="CorelCorpID_0Corel-Layer"/>
  <path class="fil0" d="M224551 1632687l1259837 0c122468,0 222673,100170 222673,222674l0 2123116c0,122469 -100216,222674 -222673,222674l-1259837 0c-122468,0 -222673,-100217 -222673,-222674l0 -2123116c0,-122504 100217,-222674 222673,-222674zm2752728 -618497l2387283 -975379c368209,-150449 883548,147012 883548,676111l0 4404325c0,504922 -470859,827446 -846237,688548l-2424605 -897238c-310288,-114862 -585013,-354626 -585013,-788056l0 -2320243c0,-433430 277264,-662316 585013,-788056l11 -12z"/>
 </g>
</svg>
