<?xml version="1.0" encoding="UTF-8"?>
<!DOCTYPE svg PUBLIC "-//W3C//DTD SVG 1.1//EN" "http://www.w3.org/Graphics/SVG/1.1/DTD/svg11.dtd">
<!-- Creator: CorelDRAW X7 -->
<svg xmlns="http://www.w3.org/2000/svg" xml:space="preserve" width="200px" height="200px" version="1.1" style="shape-rendering:geometricPrecision; text-rendering:geometricPrecision; image-rendering:optimizeQuality; fill-rule:evenodd; clip-rule:evenodd"
viewBox="0 0 2000000 2000000"
 xmlns:xlink="http://www.w3.org/1999/xlink">
 <defs>
  <style type="text/css">
   <![CDATA[
    .fil0 {fill:#5B5B5B;fill-rule:nonzero}
   ]]>
  </style>
 </defs>
 <g id="Слой_x0020_1">
  <metadata id="CorelCorpID_0Corel-Layer"/>
  <path class="fil0" d="M136300 520173l304432 0c37559,0 71646,16217 96319,42331 24674,26103 39993,62198 39993,101942l0 669183c0,39756 -15319,75839 -39993,101953 -24673,26115 -58760,42319 -96319,42319l-304432 0c-37559,0 -71646,-16204 -96319,-42319 -24674,-26114 -39993,-62197 -39993,-101953l0 -669183c0,-39744 15319,-75839 39993,-101942 24673,-26114 58760,-42331 96319,-42331zm300747 148183l-297062 0 0 661375 297062 0 0 -661375zm492712 -337326l710900 -307431c28287,-12237 57732,-18083 86906,-18083 50977,0 103005,17303 147733,49016 44008,31205 81119,76772 103182,133914 13689,35481 21520,74623 21520,116552l0 1388185c0,38964 -6579,75544 -18236,108910 -20363,58229 -56103,106005 -99391,139218 -44398,34063 -97052,53197 -149883,53197 -26362,0 -52855,-4784 -78532,-14847l-722014 -282793c-61713,-24178 -120190,-63509 -161777,-122789 -35929,-51236 -58358,-115501 -58358,-195048l0 -731309c0,-87733 27165,-155588 69414,-208313 40134,-50103 93213,-84450 148536,-108379zm763388 -170836l-710887 307432c-36308,15709 -70347,37252 -94407,67276 -21945,27402 -36059,63933 -36059,112820l0 731309c0,45248 11717,80315 30473,107067 23480,33473 59138,56705 97808,71859l722001 282794c9650,3779 19926,5575 30414,5575 23280,0 47126,-8930 67855,-24827 21839,-16749 39874,-40890 50174,-70347 6070,-17363 9496,-36804 9496,-57969l0 -1388185c0,-23149 -3851,-43524 -10595,-60980 -10913,-28276 -29551,-51024 -51768,-66780 -21496,-15237 -46170,-23540 -70087,-23540 -12532,0 -24237,2102 -34418,6496z"/>
 </g>
</svg>
