<?xml version="1.0" encoding="UTF-8"?>
<!DOCTYPE svg PUBLIC "-//W3C//DTD SVG 1.1//EN" "http://www.w3.org/Graphics/SVG/1.1/DTD/svg11.dtd">
<!-- Creator: CorelDRAW X7 -->
<svg xmlns="http://www.w3.org/2000/svg" xml:space="preserve" width="200px" height="200px" version="1.1" style="shape-rendering:geometricPrecision; text-rendering:geometricPrecision; image-rendering:optimizeQuality; fill-rule:evenodd; clip-rule:evenodd"
viewBox="0 0 2000000 2000000"
 xmlns:xlink="http://www.w3.org/1999/xlink">
 <defs>
  <style type="text/css">
   <![CDATA[
    .fil0 {fill:#5CA595}
    .fil1 {fill:#FEFEFE}
   ]]>
  </style>
 </defs>
 <g id="Слой_x0020_1">
  <metadata id="CorelCorpID_0Corel-Layer"/>
  <rect class="fil0" x="-6" y="-5" width="2000012" height="2000011"/>
  <path class="fil1" d="M1582418 800274l62020 0 0 399452 -62020 0 0 119599 -1226856 0 0 -638650 1226856 0 0 119599zm-1109040 -21862l992783 0 27048 0 0 116575 60449 0 0 27048 0 155930 0 27048 -60449 0 0 89540 0 27035 -27048 0 -992783 0 -27036 0 0 -27035 0 -389106 0 -27035 27036 0z"/>
  <polygon class="fil1" points="1254967,832495 1436043,832495 1436043,1167505 1254967,1167505 "/>
  <polygon class="fil1" points="1005150,832495 1186226,832495 1186226,1167505 1005150,1167505 "/>
  <polygon class="fil1" points="755345,832495 936421,832495 936421,1167505 755345,1167505 "/>
  <polygon class="fil1" points="505539,832495 686616,832495 686616,1167505 505539,1167505 "/>
 </g>
</svg>
