<?xml version="1.0" encoding="UTF-8"?>
<!DOCTYPE svg PUBLIC "-//W3C//DTD SVG 1.1//EN" "http://www.w3.org/Graphics/SVG/1.1/DTD/svg11.dtd">
<!-- Creator: CorelDRAW X7 -->
<svg xmlns="http://www.w3.org/2000/svg" xml:space="preserve" width="200px" height="200px" version="1.1" style="shape-rendering:geometricPrecision; text-rendering:geometricPrecision; image-rendering:optimizeQuality; fill-rule:evenodd; clip-rule:evenodd"
viewBox="0 0 2000000 2000000"
 xmlns:xlink="http://www.w3.org/1999/xlink">
 <defs>
  <style type="text/css">
   <![CDATA[
    .fil0 {fill:#727271}
   ]]>
  </style>
 </defs>
 <g id="Слой_x0020_1">
  <metadata id="CorelCorpID_0Corel-Layer"/>
  <path class="fil0" d="M565516 298148l329778 0 0 329766 -329778 0 0 -329766zm541434 0l329778 0 0 329766 -329778 0 0 -329766zm541409 0l329779 0 0 329766 -329779 0 0 -329766zm-1084319 536969l329766 0 0 329766 -329766 0 0 -329766zm542154 0l329766 0 0 329766 -329766 0 0 -329766zm542165 6685l329779 0 0 329766 -329779 0 0 -329766zm-1083953 530284l329778 0 0 329766 -329778 0 0 -329766zm542544 0l329778 0 0 329766 -329778 0 0 -329766zm-1085088 -536969l329779 0 0 329766 -329779 0 0 -329766zm0 536969l329779 0 0 329766 -329779 0 0 -329766z"/>
 </g>
</svg>
