<?xml version="1.0" encoding="UTF-8"?>
<!DOCTYPE svg PUBLIC "-//W3C//DTD SVG 1.1//EN" "http://www.w3.org/Graphics/SVG/1.1/DTD/svg11.dtd">
<!-- Creator: CorelDRAW X7 -->
<svg xmlns="http://www.w3.org/2000/svg" xml:space="preserve" width="200px" height="200px" version="1.1" style="shape-rendering:geometricPrecision; text-rendering:geometricPrecision; image-rendering:optimizeQuality; fill-rule:evenodd; clip-rule:evenodd"
viewBox="0 0 2000000 2000000"
 xmlns:xlink="http://www.w3.org/1999/xlink">
 <defs>
  <style type="text/css">
   <![CDATA[
    .fil0 {fill:#5B5B5B;fill-rule:nonzero}
   ]]>
  </style>
 </defs>
 <g id="Слой_x0020_1">
  <metadata id="CorelCorpID_0Corel-Layer"/>
  <path class="fil0" d="M454515 1787010c-72957,72957 -191269,72957 -264238,0 -72957,-72969 -72957,-191281 0,-264238l553008 -553008 -553008 -553032c-72957,-72958 -72957,-191258 0,-264215 72957,-72957 191258,-72957 264215,0l553032 553032 553032 -553032c72957,-72957 191257,-72957 264214,0 72958,72957 72958,191257 0,264215l-553008 553032 553008 553008c72958,72957 72958,191269 0,264238 -72969,72957 -191281,72957 -264238,0l-553008 -553008 -553009 553008z"/>
 </g>
</svg>
