<?xml version="1.0" encoding="utf-8"?>
<!-- Generator: Adobe Illustrator 23.0.1, SVG Export Plug-In . SVG Version: 6.00 Build 0)  -->
<svg version="1.1" id="Layer_1" xmlns="http://www.w3.org/2000/svg" xmlns:xlink="http://www.w3.org/1999/xlink" x="0px" y="0px"
	 viewBox="0 0 200 200" style="enable-background:new 0 0 200 200;" xml:space="preserve">
<style type="text/css">
	.st0{fill:#5B5B5B;}
</style>
<path class="st0" d="M169.2,152.7l-54.3-54.3l54.2-53.3c5.8-5.7,6.8-12,1-17.8c-5.7-5.8-12-4.8-17.8,1L99.1,82.4L45.5,28.9
	c-5.7-5.8-12-7.8-17.8-2c-5.8,5.7-3.8,12,2,17.8L84,99l-54.2,53.3c-5.8,5.7-6.8,12-1,17.8c5.7,5.8,12,4.8,17.8-1L99.8,115l53.6,53.5
	c5.7,5.8,12,7.8,17.8,2C177,164.8,175,158.5,169.2,152.7z"/>
</svg>
