<?xml version="1.0" encoding="UTF-8"?>
<!DOCTYPE svg PUBLIC "-//W3C//DTD SVG 1.1//EN" "http://www.w3.org/Graphics/SVG/1.1/DTD/svg11.dtd">
<!-- Creator: CorelDRAW X7 -->
<svg xmlns="http://www.w3.org/2000/svg" xml:space="preserve" width="100px" height="100px" version="1.1" style="shape-rendering:geometricPrecision; text-rendering:geometricPrecision; image-rendering:optimizeQuality; fill-rule:evenodd; clip-rule:evenodd"
viewBox="0 0 1000000 1000000"
 xmlns:xlink="http://www.w3.org/1999/xlink">
 <defs>
  <style type="text/css">
   <![CDATA[
    .fil0 {fill:#FEFEFE;fill-rule:nonzero}
   ]]>
  </style>
 </defs>
 <g id="Слой_x0020_1">
  <metadata id="CorelCorpID_0Corel-Layer"/>
  <path class="fil0" d="M20433 173541c0,-29304 23764,-53068 53068,-53068 29303,0 53067,23764 53067,53068l0 599839 799920 0c29303,0 53067,23764 53067,53079 0,29304 -23764,53068 -53067,53068l-852987 0 -53068 0 0 -53068 0 -652918zm905157 88111c-27225,101611 -32764,124359 -60036,226135 -7299,27024 -25583,25867 -36567,13559l-45780 -45779 -201037 195415c-25382,25004 -47304,25582 -74434,-426l-136501 -136501 -87130 94477c-19796,21520 -53316,22926 -74836,3118 -21508,-19807 -22913,-53315 -3106,-74847l124619 -135142c26268,-28796 51875,-27272 76489,-1654l121336 121135c11456,11764 23173,12307 35185,71l144556 -140505 -46335 -47552c-13748,-14492 -18508,-31665 6910,-39638l222816 -60945c20623,-6048 39827,9413 33851,29079z"/>
 </g>
</svg>
