<?xml version="1.0" encoding="UTF-8"?>
<!DOCTYPE svg PUBLIC "-//W3C//DTD SVG 1.1//EN" "http://www.w3.org/Graphics/SVG/1.1/DTD/svg11.dtd">
<!-- Creator: CorelDRAW X7 -->
<svg xmlns="http://www.w3.org/2000/svg" xml:space="preserve" width="750px" height="528px" version="1.1" style="shape-rendering:geometricPrecision; text-rendering:geometricPrecision; image-rendering:optimizeQuality; fill-rule:evenodd; clip-rule:evenodd"
viewBox="0 0 7500000 5279993"
 xmlns:xlink="http://www.w3.org/1999/xlink">
 <defs>
  <style type="text/css">
   <![CDATA[
    .fil0 {fill:#5B5B5B;fill-rule:nonzero}
   ]]>
  </style>
 </defs>
 <g id="Слой_x0020_1">
  <metadata id="CorelCorpID_0Corel-Layer"/>
  <path class="fil0" d="M7270251 2117416c-1169448,-1008924 -2345877,-1518064 -3529747,-1519611 -481974,-626 -962720,82937 -1442355,251174l-744286 -744286c-93638,-93638 -245564,-93638 -339202,0 -93638,93638 -93638,245564 0,339202l602447 602447c-537143,252355 -1072822,611376 -1607048,1077948l-13146 12177 -2953 2989c-145311,147413 -215741,312768 -214595,482552 1217,171107 74481,333911 216544,475537l921 957 2882 2846 1878 1878c1147374,1102197 2341118,1677620 3552791,1683643 504403,2469 1008995,-93756 1511662,-291591l680022 680022c93638,93638 245564,93638 339202,0 93638,-93638 93638,-245564 0,-339202l-553573 -553573c519581,-270508 1036350,-651273 1547922,-1145791l7489 -7535 16535 -17315 1878 -1843c134351,-144425 210390,-302812 214926,-471911 4654,-173292 -65327,-340678 -223631,-495816l-2846 -2799 -15319 -14622 -8421 -7489 23 12zm-3520298 -888711c-304170,0 -586833,92457 -821389,250689l-249993 -249992c354781,-102946 708735,-154135 1061933,-153698 1062665,1370 2133077,470080 3211286,1398772l12366 11776c54815,54473 79465,101351 78402,140658 -1181,44138 -32186,97536 -87509,157004l71 71 -10783 11256c-522273,504297 -1046354,879629 -1569478,1130437l-404942 -404943c158268,-234555 250690,-517218 250690,-821423 0,-406029 -164658,-773731 -430761,-1039846 -266162,-266115 -633853,-430773 -1039893,-430773l0 12zm-1570812 179681l400430 400431c-188386,247182 -300261,555828 -300261,890506 0,406041 164658,773743 430773,1039858 266115,266115 633817,430773 1039858,430773 334702,0 643337,-111910 890518,-300261l252167 252166c-380175,127111 -759310,188942 -1136413,187099 -1082827,-5385 -2166019,-535371 -3222885,-1550615l-992 -956 0 35c-49346,-49465 -74776,-96449 -75071,-137256 -260,-41823 24544,-90508 75591,-142914 550726,-479789 1099503,-835751 1646285,-1068866zm744286 744274l1373189 1373178c-156686,103831 -344623,164280 -546675,164280 -273651,0 -521423,-110918 -700656,-290151 -179233,-179232 -290150,-427005 -290150,-700655 0,-202029 60460,-390013 164280,-546663l12 11zm1697674 1019259l-1343697 -1343685c140445,-76335 301442,-119705 472549,-119705 273650,0 521423,110918 700691,290151 179233,179232 290150,427005 290150,700643 0,171119 -43370,332151 -119693,472596z"/>
 </g>
</svg>
