<?xml version="1.0" encoding="UTF-8"?>
<!DOCTYPE svg PUBLIC "-//W3C//DTD SVG 1.1//EN" "http://www.w3.org/Graphics/SVG/1.1/DTD/svg11.dtd">
<!-- Creator: CorelDRAW X7 -->
<svg xmlns="http://www.w3.org/2000/svg" xml:space="preserve" width="750px" height="528px" version="1.1" style="shape-rendering:geometricPrecision; text-rendering:geometricPrecision; image-rendering:optimizeQuality; fill-rule:evenodd; clip-rule:evenodd"
viewBox="0 0 7500000 5279993"
 xmlns:xlink="http://www.w3.org/1999/xlink">
 <defs>
  <style type="text/css">
   <![CDATA[
    .fil0 {fill:#5B5B5B}
   ]]>
  </style>
 </defs>
 <g id="Слой_x0020_1">
  <metadata id="CorelCorpID_0Corel-Layer"/>
  <path class="fil0" d="M7316810 2229893c-1661379,-1433284 -3321471,-1880073 -4981999,-1319933l-825523 -825523c-112205,-112205 -294201,-112205 -406418,0 -112205,112205 -112205,294249 0,406454l654486 654487c-538407,257374 -1076885,620529 -1615434,1090869 -185469,233044 -187761,455317 0,666404 1627351,1481402 3253557,2033676 4880342,1507635l785223 785258c112205,112205 294249,112205 406454,0 112205,-112205 112205,-294249 0,-406454l-612073 -612037c571549,-275458 1143169,-686070 1714942,-1238756 227222,-215446 255639,-448974 0,-708404zm-4926558 -451631l616360 616360c-21626,2586 -43666,3945 -66071,3945 -306096,0 -554234,-248068 -554234,-554234 0,-22371 1405,-44398 3945,-66071zm1773029 1773076l467824 467812c-259512,162296 -566198,256194 -894841,256194 -933393,0 -1690128,-756711 -1690128,-1690163 0,-206221 36981,-403832 104599,-586501 -32374,116858 -49713,239847 -49713,366993 0,757644 614176,1371866 1371855,1371866 251753,0 487608,-67842 690392,-186213l12 12zm897121 84189l-471710 -471627c161185,-224859 256040,-500459 256040,-798215 0,-757680 -614175,-1371902 -1371855,-1371902 -213780,0 -416080,48897 -596423,136122 251942,-149150 545860,-234851 859798,-234851 933452,0 1690139,756687 1690139,1690139 0,396958 -136902,761967 -366001,1050346l12 -12zm-1599619 -1599595l-711841 -711841c59716,-22040 124276,-34028 191599,-34028 306166,0 554269,248186 554269,554270 0,67358 -12035,131917 -34027,191599z"/>
 </g>
</svg>
