<?xml version="1.0" encoding="UTF-8"?>
<!DOCTYPE svg PUBLIC "-//W3C//DTD SVG 1.1//EN" "http://www.w3.org/Graphics/SVG/1.1/DTD/svg11.dtd">
<!-- Creator: CorelDRAW X7 -->
<svg xmlns="http://www.w3.org/2000/svg" xml:space="preserve" width="278px" height="174px" version="1.1" style="shape-rendering:geometricPrecision; text-rendering:geometricPrecision; image-rendering:optimizeQuality; fill-rule:evenodd; clip-rule:evenodd"
viewBox="0 0 2780000 1739986"
 xmlns:xlink="http://www.w3.org/1999/xlink">
 <defs>
  <style type="text/css">
   <![CDATA[
    .fil0 {fill:#5B5B5B;fill-rule:nonzero}
   ]]>
  </style>
 </defs>
 <g id="Слой_x0020_1">
  <metadata id="CorelCorpID_0Corel-Layer"/>
  <path class="fil0" d="M263517 702772c374223,-322856 750678,-485779 1129518,-486275 154230,-200 308069,26540 461554,80375l238171 -238171c29965,-29965 78579,-29965 108544,0 29965,29965 29965,78579 0,108544l-192781 192781c171887,80752 343301,195639 514255,344943l4205 3897 945 957c46500,47173 69036,100087 68669,154418 -389,54756 -23834,106855 -69295,152174l-296 307 -921 910 -602 602c-367160,352703 -749154,536838 -1136889,538763 -161410,791 -322879,-30000 -483735,-93308l-217607 217608c-29965,29965 -78579,29965 -108544,0 -29965,-29965 -29965,-78579 0,-108544l177143 -177143c-166265,-86563 -331632,-208406 -495334,-366651l-2397 -2410 -5292 -5539 -602 -591c-42993,-46217 -67323,-96898 -68776,-151016 -1488,-55454 20905,-109017 71563,-158659l910 -897 4901 -4678 2693 -2397zm1126495 -284388c97335,0 187784,29587 262844,80221l79996 -79996c-113528,-32941 -226796,-49323 -339817,-49182 -340053,437 -682586,150426 -1027612,447605l-3956 3768c-17540,17433 -25430,32433 -25087,45012 378,14126 10299,31217 28004,50244l-24 24 3449 3602c167127,161375 334833,281482 502231,361739l129580 -129580c-50646,-75059 -80221,-165509 -80221,-262856 0,-129933 52689,-247596 137847,-332754 85170,-85157 202832,-137847 332766,-137847zm502656 57497l-128138 128138c60283,79099 96083,177863 96083,284966 0,129934 -52689,247596 -137847,332754 -85158,85158 -202820,137847 -332754,137847 -107103,0 -205867,-35811 -284966,-96083l-80694 80694c121654,40677 242978,60461 363652,59870 346502,-1724 693122,-171320 1031321,-496196l319 -307 0 12c15791,-15827 23929,-30862 24023,-43925 83,-13382 -7854,-28961 -24189,-45733 -176233,-153532 -351840,-267439 -526810,-342037zm-238170 238170l-439420 439420c50138,33225 110280,52571 174934,52571 87567,0 166855,-35492 224210,-92847 57354,-57354 92847,-136642 92847,-224210 0,-64654 -19347,-124807 -52571,-174934zm-543252 326164l429983 -429983c-44941,-24426 -96461,-38304 -151217,-38304 -87568,0 -166855,35493 -224222,92847 -57355,57355 -92847,136643 -92847,224210 0,54757 13878,106288 38303,151230z"/>
 </g>
</svg>
