<?xml version="1.0" encoding="utf-8"?>
<!-- Generator: Adobe Illustrator 23.0.1, SVG Export Plug-In . SVG Version: 6.00 Build 0)  -->
<svg version="1.1" id="Layer_1" xmlns="http://www.w3.org/2000/svg" xmlns:xlink="http://www.w3.org/1999/xlink" x="0px" y="0px"
	 viewBox="0 0 209.8 209.8" style="enable-background:new 0 0 209.8 209.8;" xml:space="preserve">
<style type="text/css">
	.st0{fill:#555555;}
</style>
<path class="st0" d="M143.9,0.9h-78c-35.8,0-65,29.3-65,65.4v77c0,36.1,29.2,65.5,65,65.5h8.4v0.1h42.9h12.2h14.5
	c35.8,0,65-29.4,65-65.5v-77C208.9,30.3,179.7,0.9,143.9,0.9z M200.9,143.4c0,31.7-25.6,57.5-57,57.5h-14.5h-4.1v-63.6h25.6v-36.9
	h-25.6v-5.9c0-8.4,1.6-11.1,2.3-11.9c1.4-1.6,4.1-2.4,7.9-2.4c4.8,0,9.8,0.7,15.1,2l4.2,1l5.7-33.1l-3.3-1.1c-9.9-3.3-20-4.9-30-4.9
	c-10.2,0-18.8,2-25.7,5.9c-7,4.1-11.9,9.5-14.5,16.1c-2.6,6.4-3.8,15.5-3.8,27.7v6.5h-19v36.9h18.9v63.6H65.9
	c-31.4,0-57-25.8-57-57.5v-77c0-31.7,25.6-57.4,57-57.4h78c31.4,0,57,25.8,57,57.5V143.4z"/>
</svg>
