<?xml version="1.0" encoding="UTF-8"?>
<!DOCTYPE svg PUBLIC "-//W3C//DTD SVG 1.1//EN" "http://www.w3.org/Graphics/SVG/1.1/DTD/svg11.dtd">
<!-- Creator: CorelDRAW X7 -->
<svg xmlns="http://www.w3.org/2000/svg" xml:space="preserve" width="100px" height="100px" version="1.1" style="shape-rendering:geometricPrecision; text-rendering:geometricPrecision; image-rendering:optimizeQuality; fill-rule:evenodd; clip-rule:evenodd"
viewBox="0 0 1000000 1000000"
 xmlns:xlink="http://www.w3.org/1999/xlink">
 <defs>
  <style type="text/css">
   <![CDATA[
    .fil0 {fill:#2B2A29}
   ]]>
  </style>
 </defs>
 <g id="Слой_x0020_1">
  <metadata id="CorelCorpID_0Corel-Layer"/>
  <path class="fil0" d="M102485 11339l795030 0c50126,0 91146,41020 91146,91146l0 795030c0,50126 -41020,91146 -91146,91146l-221187 0 0 -403042 96627 0 36083 -139147 -132710 0 0 -47670c0,-34358 5811,-57543 17185,-69567 11386,-12024 30060,-18036 56257,-18036 26622,0 54331,3437 83103,10087l22535 -122824c-48520,-15024 -98126,-22535 -148584,-22535 -49382,0 -90177,8799 -122611,26197 -32209,17386 -54319,39933 -66343,67843 -12023,27709 -18035,69792 -18035,126048l0 50457 -97915 0 0 139147 97915 0 0 403042 -397350 0c-50126,0 -91146,-41020 -91146,-91146l0 -795030c0,-50126 41020,-91146 91146,-91146z"/>
 </g>
</svg>
