<?xml version="1.0" encoding="UTF-8"?>
<!DOCTYPE svg PUBLIC "-//W3C//DTD SVG 1.1//EN" "http://www.w3.org/Graphics/SVG/1.1/DTD/svg11.dtd">
<!-- Creator: CorelDRAW X7 -->
<svg xmlns="http://www.w3.org/2000/svg" xml:space="preserve" width="100px" height="100px" version="1.1" style="shape-rendering:geometricPrecision; text-rendering:geometricPrecision; image-rendering:optimizeQuality; fill-rule:evenodd; clip-rule:evenodd"
viewBox="0 0 1000000 1000000"
 xmlns:xlink="http://www.w3.org/1999/xlink">
 <defs>
  <style type="text/css">
   <![CDATA[
    .fil0 {fill:#434242}
   ]]>
  </style>
 </defs>
 <g id="Слой_x0020_1">
  <metadata id="CorelCorpID_0Corel-Layer"/>
  <path class="fil0" d="M500000 46311c250585,0 453736,203140 453736,453736 0,204368 -135131,377165 -320908,433964l0 -375085 104871 0 0 -109962 -104871 0 0 -37677c0,-27154 4583,-45473 13583,-54981 8988,-9496 23752,-14256 44457,-14256 21047,0 42933,2716 65669,7984l17823 -97075c-38350,-11870 -77551,-17811 -117438,-17811 -39023,0 -71268,6956 -96898,20704 -25453,13737 -42922,31560 -52429,53623 -9508,21886 -14256,55146 -14256,99603l0 39886 -77375 0 0 109962 77375 0 0 394774c-247526,-3555 -447087,-205289 -447087,-453653 0,-250596 203152,-453736 453748,-453736z"/>
 </g>
</svg>
