<?xml version="1.0" encoding="UTF-8"?>
<!DOCTYPE svg PUBLIC "-//W3C//DTD SVG 1.1//EN" "http://www.w3.org/Graphics/SVG/1.1/DTD/svg11.dtd">
<!-- Creator: CorelDRAW X7 -->
<svg xmlns="http://www.w3.org/2000/svg" xml:space="preserve" width="200px" height="200px" version="1.1" style="shape-rendering:geometricPrecision; text-rendering:geometricPrecision; image-rendering:optimizeQuality; fill-rule:evenodd; clip-rule:evenodd"
viewBox="0 0 2000000 2000000"
 xmlns:xlink="http://www.w3.org/1999/xlink">
 <defs>
  <style type="text/css">
   <![CDATA[
    .fil0 {fill:#5B5B5B}
   ]]>
  </style>
 </defs>
 <g id="Слой_x0020_1">
  <metadata id="CorelCorpID_0Corel-Layer"/>
  <path class="fil0" d="M610032 0l779936 0c335530,0 610044,276640 610044,614769l0 770462c0,338129 -274514,614769 -610044,614769l-779936 0c-335530,0 -610044,-276640 -610044,-614769l0 -770462c0,-338129 274514,-614769 610044,-614769zm352562 666667c-170942,19972 -312345,170198 -290471,365093 18898,168580 167163,313302 361846,290908 166796,-19181 309864,-170836 288404,-363275 -18650,-167340 -168179,-315108 -359779,-292726zm-5457 122150c-123886,26304 -187631,140446 -165036,249935 20858,101115 123367,188317 248033,162486 97690,-20256 189805,-122895 162120,-250124 -21296,-97914 -118761,-189155 -245117,-162297zm-222816 -430893l531358 0c96922,0 185010,39922 248825,104233 63804,64300 103418,153072 103418,250750l0 535493c0,97689 -39602,186450 -103418,250761 -63815,64300 -151903,104222 -248825,104222l-531358 0c-96934,0 -185010,-39910 -248813,-104222 -63816,-64311 -103430,-153072 -103430,-250761l0 -535493c0,-97678 39614,-186450 103430,-250750 63803,-64311 151879,-104233 248813,-104233zm531358 122659l-531358 0c-63331,0 -120958,26149 -162769,68291 -41812,42142 -67772,100218 -67772,164033l0 535493c0,63827 25960,121902 67772,164044 41811,42130 99438,68292 162769,68292l531358 0c63331,0 120958,-26162 162769,-68292 41812,-42142 67772,-100217 67772,-164044l0 -535493c0,-63815 -25960,-121891 -67772,-164033 -41811,-42142 -99438,-68291 -162769,-68291zm59139 100914c38905,0 70441,31783 70441,70996 0,39213 -31536,70997 -70441,70997 -38906,0 -70454,-31784 -70454,-70997 0,-39213 31548,-70996 70454,-70996z"/>
 </g>
</svg>
