<?xml version="1.0" encoding="utf-8"?>
<!-- Generator: Adobe Illustrator 23.0.1, SVG Export Plug-In . SVG Version: 6.00 Build 0)  -->
<svg version="1.1" id="Layer_1" xmlns="http://www.w3.org/2000/svg" xmlns:xlink="http://www.w3.org/1999/xlink" x="0px" y="0px"
	 viewBox="0 0 209.8 209.8" style="enable-background:new 0 0 209.8 209.8;" xml:space="preserve">
<style type="text/css">
	.st0{fill:#555555;}
</style>
<g>
	<path class="st0" d="M143.9,208.9h-78c-35.8,0-65-29.4-65-65.5v-77c0-36.1,29.2-65.5,65-65.5h78c35.8,0,65,29.4,65,65.5v77
		C208.9,179.5,179.7,208.9,143.9,208.9z M65.9,8.9c-31.4,0-57,25.8-57,57.5v77c0,31.7,25.6,57.5,57,57.5h78c31.4,0,57-25.8,57-57.5
		v-77c0-31.7-25.6-57.5-57-57.5C143.9,8.9,65.9,8.9,65.9,8.9z"/>
</g>
<g>
	<path class="st0" d="M156.4,51.2c-7.3-7.3-16.9-11.3-27.1-11.3H80.5c-10.2,0-19.8,4-27.1,11.3c-7.2,7.3-11.2,16.9-11.2,27.2v49.2
		c0,10.2,4,19.9,11.2,27.2c7.3,7.3,16.9,11.3,27.1,11.3h48.8c10.2,0,19.8-4,27.1-11.4c7.2-7.3,11.2-16.9,11.2-27.2V78.4
		C167.6,68.2,163.6,58.5,156.4,51.2z M108.5,138.4c-1.4,0.2-2.8,0.3-4.1,0.3c-7.6,0-14.9-2.5-20.8-7.2c-7.1-5.7-11.8-14.2-12.8-23.3
		c-2.1-19.1,11.1-35.7,30.2-38c8.9-1,17.6,1.4,24.5,7c7.2,5.8,12,14.3,13,23.4C140.6,119.3,127.1,136.3,108.5,138.4z M139.4,75.2
		c-3.9,0-7-3.2-7-7.1c-0.1-3.9,3.1-7.1,7-7.1c3.9,0,7,3.2,7,7.1S143.2,75.2,139.4,75.2z"/>
	<path class="st0" d="M118.1,86.6c-3.2-2.5-8.5-5.3-15.8-4.4C91.4,83.4,81.1,93,82.7,106.9c0.7,6,3.7,11.5,8.4,15.2
		c3.2,2.5,8.5,5.3,16,4.5c10.5-1.2,21-10.9,19.5-24.6C125.9,96,122.8,90.4,118.1,86.6z"/>
</g>
</svg>
