<?xml version="1.0" encoding="UTF-8"?>
<!DOCTYPE svg PUBLIC "-//W3C//DTD SVG 1.1//EN" "http://www.w3.org/Graphics/SVG/1.1/DTD/svg11.dtd">
<!-- Creator: CorelDRAW X7 -->
<svg xmlns="http://www.w3.org/2000/svg" xml:space="preserve" width="433px" height="210px" version="1.1" style="shape-rendering:geometricPrecision; text-rendering:geometricPrecision; image-rendering:optimizeQuality; fill-rule:evenodd; clip-rule:evenodd"
viewBox="0 0 4330000 2099980"
 xmlns:xlink="http://www.w3.org/1999/xlink">
 <defs>
  <style type="text/css">
   <![CDATA[
    .fil0 {fill:#0061A3}
    .fil1 {fill:#0061A3;fill-rule:nonzero}
   ]]>
  </style>
 </defs>
 <g id="Слой_x0020_1">
  <metadata id="CorelCorpID_0Corel-Layer"/>
  <g id="_624658416">
   <g>
    <path class="fil0" d="M3360502 512741c135225,-301087 458694,-505879 850065,-505879l121394 0 0 397607 -90497 0c-222957,0 -405839,109890 -479410,269611 -2799,-283 -5752,-555 -8870,-815 -73500,-6071 -112607,-17705 -181300,-35374 -27791,-7146 -77267,-18791 -101374,-32681 -7925,-4583 -34559,-31300 -35220,-47055 -733,-17008 33295,-36473 56126,-54449 27649,-21780 26102,-25087 59114,-38327 34252,-24733 35646,-31110 59965,-64843 41681,-39614 103972,-92280 148335,-128835l-145571 89197c-35127,21768 -33875,9591 -67666,18508 -20941,5528 -44587,34264 -48390,52607 -29976,40571 -85465,82216 -136701,80728z"/>
    <path class="fil0" d="M2226559 397099l591604 0c-744,-472 -1512,-1004 -2339,-1618 -4157,-6945 -1500,-13276 -4831,-19866 -2055,-4051 -8279,-7713 -12153,-11977 -4843,-10429 13264,-25795 720,-26740 -13890,-1027 -23929,2362 -36189,-7051 -6177,-4760 -7063,-10748 -12874,-13394 -5516,-2504 -12059,-1866 -19181,-5244 -7370,-24212 2256,-20551 -26421,-25831 -3048,-26362 -1181,-19807 -23705,-25665 -22417,-5823 -15413,-10878 -20008,-29209 -44835,-21720 -36910,-3815 -35693,-31760 -8256,-5586 -41906,-9437 -60272,-21448 13158,-14469 52040,-10843 68185,-16678 -6685,-8409 -47846,-8681 -61736,-10724 -12590,-1843 -50220,-9768 -58276,-15295 52052,-15969 120863,-8504 133784,-13359 -3413,-4299 -10795,-4429 -16299,-5043l-55488 -5362c-19441,-2421 -48969,-7890 -61642,-19004 40724,-16394 87319,-910 123201,-5020 -5268,-8090 -57414,-13346 -70052,-16535 -13405,-3390 -51082,-17185 -53610,-32622 56469,-5020 129638,25736 140540,19275 -21414,-17622 -77847,-14492 -113528,-40535 -5669,-4146 -11610,-10772 -16252,-17800l-297485 0 0 398505z"/>
    <path class="fil0" d="M2637288 -1406l-53610 0c43134,12910 78910,32434 126272,38245 -4937,-8906 -44221,-22701 -72662,-38245z"/>
    <path class="fil0" d="M3192136 397099l124772 0 0 -398505 -604726 0c8575,5363 16866,12178 29646,21603 34724,25559 78768,35787 117319,57673 24638,13984 48685,28937 74291,41918 37441,18980 91418,33401 125434,51106 11161,5811 26504,17161 32586,24791 16335,20481 57567,123603 74304,158977 8551,18071 17078,30638 26374,42437z"/>
    <path class="fil0" d="M5339 634548l569434 0c61795,0 108153,-51378 108153,-116161 0,-64772 -46358,-113918 -108153,-113918l-576710 0 0 -397607 662789 0c253819,0 462390,203268 461292,507060 -1099,303780 -209682,518233 -459084,518233l-222921 0 0 627687 -434800 0 0 -1025294z"/>
    <path class="fil0" d="M2215681 1539688l1429 2327 1618 2622 0 -910089 805466 0c9308,11493 15780,8245 24296,16867 9260,9378 8232,14456 24850,21082 11516,4571 15189,16205 26528,19429 14634,4146 26917,-2704 31394,14705 -1063,10252 -76489,53162 -88997,58737 -6945,3106 -22476,16275 -27035,22074 2055,12260 14220,25099 20268,33768 10252,14740 12295,22866 8008,45803 -1512,8091 -6497,11764 -10689,17469 -3686,4996 -7831,10488 -11670,16276 -11575,17385 -22098,32964 -36366,47267l-14610 13252c-33863,25926 -27461,28335 -49394,62138 -1500,2327 -3567,5362 -5811,8740l-261438 0 0 230068 686423 0 0 397619 -1081230 0 -39993 0 -1618 0 -1429 0 0 -120154z"/>
    <path class="fil0" d="M4331961 1659842l-121394 0c-443411,0 -799679,-262867 -893742,-630840 1559,1039 3153,2090 4783,3153l-353658 0c4819,-3637 9851,-6992 14835,-10322 14988,-10028 21413,-15898 29409,-32918 7654,-16299 32564,-35386 46997,-48071 3413,-3000 3885,-4287 7027,-7665l25524 -23669c14811,-15296 15165,-23552 39165,-16630 14800,4275 35280,18082 46181,18744 10335,-25760 20859,-53410 31087,-82205 6083,-17150 7949,-26977 24036,-33319 5232,-2067 41811,-18083 42366,-10854l2575 15543c4523,30106 6295,14823 15378,23421l-12 1075c28098,3118 20834,18602 45390,22807 732,118 1405,449 2043,969l0 -1619c1228,851 2539,1819 4134,2847 10583,6862 24189,10453 31335,17764 16913,17327 23834,7051 35397,13653 4807,2764 4925,7937 12933,11622 9555,4382 14587,508 22760,1949 5929,1040 19725,15189 29327,19559 17492,7973 23835,-3059 34795,14209 13559,21343 15048,8161 36461,8197l12224 16677c12697,1595 22418,-6413 29316,-5598 5137,602 12614,11716 20374,14822 11763,4713 18909,-1748 31193,1359 27118,6850 26220,-9555 42094,1937 5894,4264 5032,3508 12508,5315 10795,2598 12898,9035 18402,17728 9413,14858 14456,5020 25878,10193 7972,3614 9342,16063 17102,21083l20303 106c81260,144284 255414,241371 464977,241371l90497 0 0 397607z"/>
    <path class="fil0" d="M2221445 1659818l-1443180 0c51567,-106063 180638,-400040 180508,-397489 256135,2161 308682,-118 562879,-118 -198791,-396603 -219980,-808041 -215906,-1255372l516982 0c-8469,79287 -12933,159779 -12933,241311 0,482706 152398,929801 411650,1295861l0 115807z"/>
   </g>
   <path class="fil1" d="M71504 2097677l0 -64843 47551 0c48178,0 74115,-32126 74115,-70417 0,-38599 -25937,-70713 -74115,-70713l-109925 0 0 205973 62374 0zm39532 -119197l-39532 0 0 -32421 39532 0c10500,0 18838,5244 18838,16358 0,10819 -8338,16063 -18838,16063z"/>
   <polygon id="1" class="fil1" points="404268,2097677 404268,1891704 341894,1891704 341894,2097677 "/>
   <path id="2" class="fil1" d="M695352 2097677c41374,0 60827,-27177 60827,-55890 0,-26563 -16985,-46937 -39213,-50338 20067,-4323 35197,-21615 35197,-47245 0,-24082 -18520,-52500 -61134,-52500l-125067 0 0 205973 129390 0zm-18839 -130004l-48177 0 0 -24083 48177 0c6484,0 12354,4630 12354,11729 0,7417 -5870,12354 -12354,12354zm1854 78130l-50031 0 0 -26256 50031 0c8953,0 14504,5870 14504,13287 0,7713 -5551,12969 -14504,12969z"/>
   <polygon id="3" class="fil1" points="1108089,2097677 1108089,1891704 1045715,1891704 1045715,1964590 971907,1964590 971907,1891704 909533,1891704 909533,2097677 971907,2097677 971907,2018933 1045715,2018933 1045715,2097677 "/>
   <polygon id="4" class="fil1" points="1426030,2097677 1426030,2043323 1332156,2043323 1332156,2020787 1423869,2020787 1423869,1966433 1332156,1966433 1332156,1946059 1426030,1946059 1426030,1891704 1269782,1891704 1269782,2097677 "/>
   <polygon id="5" class="fil1" points="1780716,2097677 1780716,1891704 1718342,1891704 1718342,1964590 1644534,1964590 1644534,1891704 1582160,1891704 1582160,2097677 1644534,2097677 1644534,2018933 1718342,2018933 1718342,2097677 "/>
   <path id="6" class="fil1" d="M2044622 2101386c54035,0 81520,-32741 93567,-60225l-53729 -24697c-5255,16052 -21307,29953 -39838,29953 -29953,0 -50032,-22854 -50032,-51567 0,-28724 20079,-51579 50032,-51579 18531,0 34583,13902 39838,29965l53729 -25016c-12354,-28417 -39532,-59906 -93567,-59906 -64536,0 -113327,42922 -113327,106536 0,63295 48791,106536 113327,106536z"/>
   <path id="7" class="fil1" d="M2285981 1891704l0 205973 109925 0c48177,0 74114,-32114 74114,-70713 0,-38291 -25937,-70405 -74114,-70405l-47551 0 0 -64855 -62374 0zm101905 119197c10500,0 18839,5256 18839,16063 0,11115 -8339,16359 -18839,16359l-39531 0 0 -32422 39531 0z"/>
   <polygon id="8" class="fil1" points="2814832,2097677 2733619,1987433 2811430,1891704 2735155,1891704 2681119,1968913 2681119,1891704 2618745,1891704 2618745,2097677 2681119,2097677 2681119,2040547 2692540,2025110 2738863,2097677 "/>
   <path id="9" class="fil1" d="M3162419 2097677l-75969 -205973 -78437 0 -75968 205973 70724 0 7406 -24083 74114 0 7406 24083 70724 0zm-94807 -78437l-40760 0 20374 -66390 20386 66390z"/>
   <path id="10" class="fil1" d="M3667495 2097677l-75969 -205973 -78437 0 -75969 205973 70725 0 7405 -24083 74115 0 7405 24083 70725 0zm-94807 -78437l-40760 0 20374 -66390 20386 66390z"/>
   <polygon id="11" class="fil1" points="3963196,2097677 3963196,2043323 3869322,2043323 3869322,2020787 3961035,2020787 3961035,1966433 3869322,1966433 3869322,1946059 3963196,1946059 3963196,1891704 3806948,1891704 3806948,2097677 "/>
   <path id="12" class="fil1" d="M4221539 2101386c54036,0 81520,-32741 93567,-60225l-53728 -24697c-5256,16052 -21307,29953 -39839,29953 -29953,0 -50031,-22854 -50031,-51567 0,-28724 20078,-51579 50031,-51579 18532,0 34583,13902 39839,29965l53728 -25016c-12354,-28417 -39531,-59906 -93567,-59906 -64535,0 -113327,42922 -113327,106536 0,63295 48792,106536 113327,106536z"/>
  </g>
 </g>
</svg>
