<?xml version="1.0" encoding="utf-8"?>
<!-- Generator: Adobe Illustrator 23.0.1, SVG Export Plug-In . SVG Version: 6.00 Build 0)  -->
<svg version="1.1" id="Layer_1" xmlns="http://www.w3.org/2000/svg" xmlns:xlink="http://www.w3.org/1999/xlink" x="0px" y="0px"
	 viewBox="0 0 200 200" style="enable-background:new 0 0 200 200;" xml:space="preserve">
<style type="text/css">
	.st0{fill:#545454;}
	.st1{fill-rule:evenodd;clip-rule:evenodd;fill:#545454;}
	.st2{fill:none;}
	.st3{fill:#5B5B5B;}
</style>
<g id="Слой_x0020_1">
	<g id="_839048976">
		<g>
			<path class="st0" d="M137.8,16.7H32.4V3.3h105.3l0,0L137.8,16.7L137.8,16.7z M167.4,32.9h-13.3l0,0v-0.8l-0.1-0.8l-0.1-0.8
				l-0.1-0.8l-0.2-0.8l-0.2-0.8l-0.3-0.8l-0.3-0.7l-0.3-0.7l-0.4-0.7l-0.4-0.7l-0.4-0.7l-0.5-0.6l-0.5-0.6l-0.5-0.6l-0.5-0.6
				l-0.6-0.5l-0.6-0.5l-0.6-0.5l-0.6-0.5l-0.7-0.4l-0.7-0.4l-0.7-0.4l-0.7-0.3l-0.7-0.3l-0.8-0.3l-0.8-0.2L141,17l-0.8-0.1l-0.8-0.1
				l-0.8-0.1h-0.8V3.3h1.5l1.5,0.1l1.5,0.2l1.5,0.3l1.4,0.3l1.4,0.4l1.4,0.5l1.3,0.5l1.3,0.6l1.3,0.7l1.2,0.7l1.2,0.8l1.2,0.8
				l1.1,0.9l1.1,0.9l1,1l1,1l0.9,1.1l0.9,1.1l0.8,1.2l0.8,1.2l0.7,1.2l0.7,1.3l0.6,1.3l0.5,1.3l0.5,1.4l0.4,1.4l0.3,1.4l0.3,1.5
				l0.2,1.5l0.1,1.5L167.4,32.9L167.4,32.9z M32.4,155h8.7v13.3h-8.7l0,0V155z M2.8,138.7h13.3l0,0v0.8l0.1,0.8l0.1,0.8l0.1,0.8
				l0.2,0.8l0.2,0.8l0.3,0.8l0.3,0.7l0.3,0.7l0.4,0.7l0.4,0.7l0.4,0.7l0.5,0.6l0.5,0.6l0.5,0.6l0.5,0.6l0.6,0.5l0.6,0.5l0.6,0.5
				l0.6,0.5l0.7,0.4l0.7,0.4l0.7,0.4l0.7,0.3l0.7,0.3l0.8,0.3l0.8,0.2l0.8,0.2l0.8,0.1l0.8,0.1l0.8,0.1h0.8v13.3h-1.5l-1.5-0.1
				L28,168l-1.5-0.3l-1.4-0.3l-1.4-0.4l-1.4-0.5L21,166l-1.3-0.6l-1.3-0.7l-1.2-0.7l-1.2-0.8l-1.2-0.8l-1.1-0.9l-1.1-0.9l-1-1l-1-1
				l-0.9-1.1l-0.9-1.1L8,155.2L7.2,154l-0.7-1.2l-0.7-1.3l-0.6-1.3l-0.5-1.3l-0.5-1.4l-0.4-1.4l-0.3-1.4l-0.3-1.5L3,141.7l-0.1-1.5
				L2.8,138.7L2.8,138.7z M16.1,32.9v105.8H2.8V32.9l0,0H16.1z M32.4,3.3v13.3l0,0h-0.8l-0.8,0.1L30,16.9L29.2,17l-0.8,0.2l-0.8,0.2
				l-0.8,0.3L26.1,18l-0.7,0.3l-0.7,0.4L24,19l-0.7,0.4l-0.6,0.5l-0.6,0.5l-0.6,0.5l-0.6,0.5L20.4,22l-0.5,0.6l-0.5,0.6l-0.5,0.6
				l-0.4,0.7l-0.4,0.7l-0.4,0.7l-0.3,0.7l-0.3,0.7l-0.3,0.8l-0.2,0.8l-0.2,0.8l-0.1,0.8l-0.1,0.8l-0.1,0.8v0.8H2.8v-1.5L3,29.9
				l0.2-1.5L3.5,27l0.3-1.4l0.4-1.4l0.5-1.4l0.5-1.3l0.6-1.3l0.7-1.3l0.7-1.2L8,16.5l0.8-1.2l0.9-1.1l0.9-1.1l1-1l1-1l1.1-0.9
				l1.1-0.9L16,8.5l1.2-0.8L18.4,7l1.3-0.7L21,5.7l1.3-0.5l1.4-0.5l1.4-0.4L26.5,4L28,3.7l1.5-0.2L31,3.4L32.4,3.3L32.4,3.3z"/>
			<path class="st1" d="M38.6,60.4c0,0,2.3-12.7,6.3-16.7c3.3-3.8,14.7-5.9,14.7-5.9l101.2-2.4v-3.7C160,19.6,150,10,137.8,10H32.4
				C19.8,10,9.5,20.3,9.5,32.9v105.8c0,12.6,11.3,22.9,23.9,22.9H38L38.6,60.4z"/>
		</g>
		<g>
			<path class="st2" d="M62.2,38.3h105.3c12.6,0,22.9,10.3,22.9,22.9V167c0,12.6-10.3,22.9-22.9,22.9H62.2
				c-12.6,0-22.9-10.3-22.9-22.9V61.3C39.3,48.7,49.6,38.3,62.2,38.3z"/>
			<path class="st3" d="M167.6,45H62.2V31.7h105.3l0,0V45H167.6z M197.2,61.3h-13.3l0,0v-0.8l-0.1-0.8l-0.1-0.8l-0.1-0.8l-0.2-0.8
				l-0.2-0.8l-0.3-0.8l-0.3-0.7l-0.3-0.7l-0.4-0.7l-0.4-0.7l-0.4-0.7l-0.5-0.6l-0.5-0.6l-0.5-0.6l-0.5-0.6l-0.6-0.5l-0.6-0.5
				l-0.6-0.5l-0.6-0.5l-0.7-0.4l-0.7-0.4l-0.7-0.4l-0.7-0.3l-0.7-0.3l-0.8-0.3l-0.8-0.2l-0.8-0.2l-0.8-0.1l-0.8-0.1l-0.8-0.1h-0.8
				V31.7h1.5l1.5,0.1L172,32l1.5,0.3l1.4,0.3l1.4,0.4l1.4,0.5L179,34l1.3,0.6l1.3,0.7l1.2,0.7l1.2,0.8l1.2,0.8l1.1,0.9l1.1,0.9l1,1
				l1,1l0.9,1.1l0.9,1.1l0.8,1.2l0.8,1.2l0.7,1.2l0.7,1.3l0.6,1.3l0.5,1.3l0.5,1.4l0.4,1.4l0.3,1.4l0.3,1.5l0.2,1.5l0.1,1.5
				L197.2,61.3L197.2,61.3z M183.8,167.1V61.3h13.3v105.8l0,0H183.8z M167.6,196.7v-13.3l0,0h0.8l0.8-0.1l0.8-0.1l0.8-0.1l0.8-0.2
				l0.8-0.2l0.8-0.3l0.7-0.3l0.7-0.3l0.7-0.4l0.7-0.4l0.7-0.4l0.6-0.5l0.6-0.5l0.6-0.5l0.6-0.5l0.5-0.6l0.5-0.6l0.5-0.6l0.5-0.6
				l0.4-0.7l0.4-0.7l0.4-0.7l0.3-0.7l0.3-0.7l0.3-0.8l0.2-0.8l0.2-0.8l0.1-0.8l0.1-0.8l0.1-0.8v-0.8h13.3v1.5l-0.1,1.5l-0.2,1.5
				l-0.3,1.5l-0.3,1.4l-0.4,1.4l-0.5,1.4l-0.5,1.3l-0.6,1.3l-0.7,1.3l-0.7,1.2l-0.8,1.2l-0.8,1.2l-0.9,1.1l-0.9,1.1l-1,1l-1,1
				l-1.1,0.9l-1.1,0.9l-1.2,0.8l-1.2,0.8l-1.2,0.7l-1.3,0.7l-1.3,0.6l-1.3,0.5l-1.4,0.5l-1.4,0.4l-1.4,0.3l-1.5,0.3l-1.5,0.2
				l-1.5,0.1L167.6,196.7L167.6,196.7z M62.2,183.3h105.3v13.3H62.2l0,0V183.3z M32.6,167.1h13.3l0,0v0.8l0.1,0.8l0.1,0.8l0.1,0.8
				l0.2,0.8l0.2,0.8l0.3,0.8l0.3,0.7l0.3,0.7l0.4,0.7l0.4,0.7l0.4,0.7l0.5,0.6l0.5,0.6l0.5,0.6l0.5,0.6l0.6,0.5l0.6,0.5l0.6,0.5
				l0.6,0.5l0.7,0.4l0.7,0.4l0.7,0.4l0.7,0.3l0.7,0.3l0.8,0.3l0.8,0.2L59,183l0.8,0.1l0.8,0.1l0.8,0.1h0.8v13.3h-1.5l-1.5-0.1
				l-1.5-0.2l-1.5-0.3l-1.4-0.3l-1.4-0.4l-1.4-0.5l-1.3-0.5l-1.3-0.6l-1.3-0.7l-1.2-0.7l-1.2-0.8l-1.2-0.8l-1.1-0.9l-1.1-0.9l-1-1
				l-1-1l-0.9-1.1l-0.9-1.1l-0.8-1.2l-0.8-1.2l-0.7-1.2l-0.7-1.3l-0.6-1.3l-0.5-1.3l-0.5-1.4l-0.4-1.4l-0.3-1.4l-0.3-1.5l-0.2-1.5
				l-0.1-1.5L32.6,167.1L32.6,167.1z M45.9,61.3v105.8H32.6V61.3l0,0H45.9z M62.2,31.7V45l0,0h-0.8l-0.8,0.1l-0.8,0.1L59,45.3
				l-0.8,0.2l-0.8,0.2L56.7,46L56,46.3l-0.7,0.3L54.5,47l-0.7,0.4l-0.7,0.4l-0.6,0.5l-0.6,0.5l-0.6,0.5l-0.6,0.5l-0.5,0.6L49.7,51
				l-0.5,0.6l-0.5,0.6l-0.4,0.7l-0.4,0.7l-0.4,0.7L47.2,55l-0.3,0.7l-0.3,0.8l-0.2,0.8L46.3,58l-0.1,0.8L46,59.6v0.8v0.8H32.6v-1.5
				l0.1-1.5l0.2-1.5l0.3-1.5l0.3-1.4l0.4-1.4l0.5-1.4l0.5-1.3l0.6-1.3l0.7-1.3l0.7-1.2l0.8-1.2l0.8-1.2l0.9-1.1l0.9-1.1l1-1l1-1
				l1.1-0.9l1.1-0.9l1.2-0.8l1.2-0.8l1.2-0.7l1.3-0.7l1.3-0.6l1.3-0.5l1.4-0.5l1.4-0.4l1.4-0.3l1.5-0.3l1.5-0.2l1.5-0.1L62.2,31.7
				L62.2,31.7z"/>
		</g>
		<g>
			<path class="st3" d="M67.4,89.4c-3.7,0-6.7-3-6.7-6.7s3-6.7,6.7-6.7V89.4z M162.4,89.4h-95V76.1h95.1v13.3H162.4z M162.4,76.1
				c3.7,0,6.7,3,6.7,6.7s-3,6.7-6.7,6.7V76.1z"/>
		</g>
		<g>
			<path class="st3" d="M67.4,121.8c-3.7,0-6.7-3-6.7-6.7s3-6.7,6.7-6.7V121.8z M162.4,121.8h-95v-13.3h95.1v13.3H162.4z
				 M162.4,108.5c3.7,0,6.7,3,6.7,6.7s-3,6.7-6.7,6.7V108.5z"/>
		</g>
		<g>
			<path class="st3" d="M67.4,157c-3.7,0-6.7-3-6.7-6.7s3-6.7,6.7-6.7V157z M162.4,157h-95v-13.3h95.1V157H162.4z M162.4,143.7
				c3.7,0,6.7,3,6.7,6.7s-3,6.7-6.7,6.7V143.7z"/>
		</g>
	</g>
</g>
</svg>
