<?xml version="1.0" encoding="utf-8"?>
<!-- Generator: Adobe Illustrator 23.0.1, SVG Export Plug-In . SVG Version: 6.00 Build 0)  -->
<svg version="1.1" id="Layer_1" xmlns="http://www.w3.org/2000/svg" xmlns:xlink="http://www.w3.org/1999/xlink" x="0px" y="0px"
	 viewBox="0 0 226.8 226.8" style="enable-background:new 0 0 226.8 226.8;" xml:space="preserve">
<style type="text/css">
	.st0{fill-rule:evenodd;clip-rule:evenodd;fill:none;}
	.st1{fill:#545556;}
	.st2{fill:#5B5B5B;}
</style>
<g id="Слой_x0020_1">
	<g>
		<path class="st0" d="M43.7,13.4H183c16.8,0,30.3,13.6,30.3,30.3V183c0,16.8-13.6,30.3-30.3,30.3H43.7c-16.8,0-30.3-13.6-30.3-30.3
			V43.7C13.4,27,27,13.4,43.7,13.4z"/>
		<path class="st1" d="M183,219.4H43.7c-20,0-36.3-16.3-36.3-36.3V43.7c0-20,16.3-36.3,36.3-36.3H183c20,0,36.3,16.3,36.3,36.3V183
			C219.4,203.1,203.1,219.4,183,219.4z M43.7,19.4c-13.4,0-24.3,10.9-24.3,24.3V183c0,13.4,10.9,24.3,24.3,24.3H183
			c13.4,0,24.3-10.9,24.3-24.3V43.7c0-13.4-10.9-24.3-24.3-24.3H43.7z"/>
	</g>
	<g>
		<path class="st2" d="M53.2,78.8c-4.5,0-8.1-3.6-8.1-8.1c0-4.5,3.6-8.1,8.1-8.1h120.3c4.5,0,8.1,3.6,8.1,8.1c0,4.5-3.6,8.1-8.1,8.1
			H53.2z M53.2,119.6c-4.5,0-8.1-3.6-8.1-8.1s3.6-8.1,8.1-8.1h120.3c4.5,0,8.1,3.6,8.1,8.1s-3.6,8.1-8.1,8.1H53.2z M53.2,164.1
			c-4.5,0-8.1-3.6-8.1-8.1c0-4.5,3.6-8.1,8.1-8.1h120.3c4.5,0,8.1,3.6,8.1,8.1c0,4.5-3.6,8.1-8.1,8.1H53.2z"/>
	</g>
</g>
</svg>
