<?xml version="1.0" encoding="utf-8"?>
<!-- Generator: Adobe Illustrator 23.0.1, SVG Export Plug-In . SVG Version: 6.00 Build 0)  -->
<svg version="1.1" id="Layer_1" xmlns="http://www.w3.org/2000/svg" xmlns:xlink="http://www.w3.org/1999/xlink" x="0px" y="0px"
	 viewBox="0 0 209.8 209.8" style="enable-background:new 0 0 209.8 209.8;" xml:space="preserve">
<style type="text/css">
	.st0{fill:#555555;}
</style>
<title>news</title>
<g id="Слой_1">
	<path class="st0" d="M174.5,208.9H35.2c-19,0-34.3-15.4-34.3-34.4V35.2c0-18.9,15.4-34.3,34.3-34.3h139.4
		c18.9,0,34.2,15.3,34.2,34.2c0,0.1,0,0.1,0,0.2v139.4C208.8,193.5,193.4,208.9,174.5,208.9z M35.2,8.9C20.7,8.9,8.9,20.7,8.9,35.2
		v139.3c0,14.5,11.8,26.4,26.3,26.4h139.3c14.5,0,26.3-11.8,26.3-26.3V35.2c0.1-14.5-11.6-26.2-26.1-26.3c0,0-0.1,0-0.1,0L35.2,8.9z
		 M49.2,141.7c-1.9,0-3.5,1.6-3.5,3.5s1.6,3.5,3.5,3.5h111.4c1.9-0.1,3.5-1.7,3.5-3.6c0-1.9-1.6-3.4-3.5-3.4H49.2z M49.2,100.5
		c-1.9,0-3.5,1.6-3.5,3.5c0,1.9,1.6,3.5,3.5,3.5h111.4c2,0,3.5-1.6,3.5-3.6c0-1.9-1.6-3.4-3.5-3.4H49.2z M49.2,62.7
		c-1.9,0-3.5,1.6-3.5,3.5c0,1.9,1.6,3.5,3.5,3.5h111.4c2,0,3.5-1.6,3.5-3.6c0-1.9-1.6-3.4-3.5-3.4L49.2,62.7z"/>
</g>
</svg>
