<?xml version="1.0" encoding="utf-8"?>
<!-- Generator: Adobe Illustrator 23.0.1, SVG Export Plug-In . SVG Version: 6.00 Build 0)  -->
<svg version="1.1" id="Layer_1" xmlns="http://www.w3.org/2000/svg" xmlns:xlink="http://www.w3.org/1999/xlink" x="0px" y="0px"
	 viewBox="0 0 226.8 226.8" style="enable-background:new 0 0 226.8 226.8;" xml:space="preserve">
<style type="text/css">
	.st0{fill:none;}
</style>
<path id="Слой_x0020_1" class="st0" d="M13,44.1c0-16.7,13.6-30.3,30.3-30.3h139.4c16.8,0,30.3,13.6,30.3,30.3v139.4
	c0,16.8-13.6,30.3-30.3,30.3H43.3c-16.8,0-30.3-13.6-30.3-30.3V44.1z M182.7,219.8H43.3c-20,0-36.3-16.3-36.3-36.3V44.1
	c0-20,16.3-36.3,36.3-36.3h139.4c20,0,36.3,16.3,36.3,36.3v139.3C219.1,203.5,202.8,219.8,182.7,219.8z M19,44.1v139.4
	c0,13.4,10.9,24.3,24.3,24.3h139.4c13.4,0,24.3-10.9,24.3-24.3V44.1c0-13.4-10.9-24.3-24.3-24.3l-139.4,0C29.9,19.8,19,30.7,19,44.1
	z M53.9,78.8c-4.4,0-7.9-3.4-8-7.8c-0.1-4.5,3.8-8.2,8.3-8.2h118.2c4.5,0,8.5,3.7,8.3,8.2c-0.1,4.3-3.6,7.8-8,7.8H53.9z M53.9,119.8
	c-4.4,0-7.9-3.4-8-7.8c-0.1-4.5,3.8-8.2,8.3-8.2h118.2c4.5,0,8.5,3.7,8.3,8.2c-0.1,4.3-3.6,7.8-8,7.8H53.9z M53.9,163.8
	c-4.4,0-7.9-3.4-8-7.8c-0.1-4.5,3.8-8.2,8.3-8.2h118.2c4.5,0,8.5,3.7,8.3,8.2c-0.1,4.3-3.6,7.8-8,7.8H53.9z"/>
</svg>
