<?xml version="1.0" encoding="utf-8"?>
<!-- Generator: Adobe Illustrator 23.0.1, SVG Export Plug-In . SVG Version: 6.00 Build 0)  -->
<svg version="1.1" id="Layer_1" xmlns="http://www.w3.org/2000/svg" xmlns:xlink="http://www.w3.org/1999/xlink" x="0px" y="0px"
	 viewBox="0 0 200 200" style="enable-background:new 0 0 200 200;" xml:space="preserve">
<style type="text/css">
	.st0{fill-rule:evenodd;clip-rule:evenodd;fill:#5B5B5B;}
</style>
<g id="Слой_x0020_1">
	<path class="st0" d="M169.7,0H30.3C13.6,0,0,13.6,0,30.3v139.3C0,186.4,13.6,200,30.3,200h139.3c16.8,0,30.3-13.6,30.3-30.3V30.3
		C200,13.6,186.4,0,169.7,0z M155.7,147.8H44.3c-4.1,0-7.5-3.3-7.5-7.5c0-4.1,3.3-7.5,7.5-7.5h111.4c4.1,0,7.5,3.3,7.5,7.5
		C163.1,144.4,159.8,147.8,155.7,147.8z M155.7,106.6H44.3c-4.1,0-7.5-3.3-7.5-7.5c0-4.1,3.3-7.5,7.5-7.5h111.4
		c4.1,0,7.5,3.3,7.5,7.5C163.1,103.3,159.8,106.6,155.7,106.6z M155.7,68.8H44.3c-4.1,0-7.5-3.3-7.5-7.5c0-4.1,3.3-7.5,7.5-7.5
		h111.4c4.1,0,7.5,3.3,7.5,7.5C163.1,65.5,159.8,68.8,155.7,68.8z"/>
</g>
</svg>
