<?xml version="1.0" encoding="UTF-8"?>
<!DOCTYPE svg PUBLIC "-//W3C//DTD SVG 1.1//EN" "http://www.w3.org/Graphics/SVG/1.1/DTD/svg11.dtd">
<!-- Creator: CorelDRAW X7 -->
<svg xmlns="http://www.w3.org/2000/svg" xml:space="preserve" width="420px" height="407px" version="1.1" style="shape-rendering:geometricPrecision; text-rendering:geometricPrecision; image-rendering:optimizeQuality; fill-rule:evenodd; clip-rule:evenodd"
viewBox="0 0 4200000 4070007"
 xmlns:xlink="http://www.w3.org/1999/xlink">
 <defs>
  <style type="text/css">
   <![CDATA[
    .fil0 {fill:#113D6C}
   ]]>
  </style>
 </defs>
 <g id="Слой_x0020_1">
  <metadata id="CorelCorpID_0Corel-Layer"/>
  <path class="fil0" d="M932143 1889574l3269995 0 0 -458330 -2882178 0c-16429,0 -84237,86824 -104634,106891l-49607 56161c-51555,67300 -125564,150131 -189450,233624 -8090,10571 -14445,17669 -23362,29527 -7913,10512 -17433,19690 -20764,32127zm-762406 1476339l2247568 0c2693,-11563 22902,-46442 30000,-58135l210615 -344671c13489,-20362 26008,-34701 37028,-55512l-2357753 0c-1382,16630 -162048,393274 -167458,458318zm-171875 705122l2097732 0c17221,0 37217,-77457 49111,-109548 14091,-38020 30012,-77233 45957,-117083l70878 -167116c11870,-24460 19146,-29610 19146,-64571l-2185867 0c-17362,74493 -37027,146765 -53244,224387l-34323 172820c-3189,18933 -8988,43052 -9390,61111zm1577714 -2895395l2626562 0 0 -462734 -2058059 0c-9012,0 -65776,42638 -76819,50976 -120438,91052 -206683,156096 -322904,254411 -28559,24177 -163300,136808 -168780,157347zm965131 -718350l1657025 0 0 -458318c-89268,0 -377541,29327 -484526,44292 -314163,43961 -536094,117355 -815473,242210l-180769 83658c-19488,9850 -159367,73477 -176257,88158zm-2062476 2159433l2437065 0 197245 -234627 160832 -165308c15177,-15177 46323,-37961 51780,-58382l-2582507 0c-56410,84225 -87863,142075 -137422,223950l-65327 115347c-10217,20705 -20870,37158 -30851,57296 -10134,20409 -20185,41634 -30815,61724z"/>
 </g>
</svg>
