<?xml version="1.0" encoding="UTF-8"?>
<!DOCTYPE svg PUBLIC "-//W3C//DTD SVG 1.1//EN" "http://www.w3.org/Graphics/SVG/1.1/DTD/svg11.dtd">
<!-- Creator: CorelDRAW X7 -->
<svg xmlns="http://www.w3.org/2000/svg" xml:space="preserve" width="200px" height="200px" version="1.1" style="shape-rendering:geometricPrecision; text-rendering:geometricPrecision; image-rendering:optimizeQuality; fill-rule:evenodd; clip-rule:evenodd"
viewBox="0 0 2000000 2000000"
 xmlns:xlink="http://www.w3.org/1999/xlink">
 <defs>
  <style type="text/css">
   <![CDATA[
    .fil0 {fill:#5B5B5B;fill-rule:nonzero}
   ]]>
  </style>
 </defs>
 <g id="Слой_x0020_1">
  <metadata id="CorelCorpID_0Corel-Layer"/>
  <path class="fil0" d="M881168 132485c170577,2244 324086,73347 434271,186486 110139,113091 177167,268266 174935,438689 -2244,170576 -73347,324073 -186486,434271 -113068,110138 -268266,177155 -438676,174922 -170588,-2244 -324086,-73347 -434283,-186485 -110139,-113092 -177155,-268266 -174923,-438689 2244,-170576 73347,-324073 186486,-434271 113079,-110139 268266,-177155 438676,-174923zm343279 1378995c-54426,-66933 -44280,-165320 22653,-219745 66922,-54414 165321,-44280 219734,22653l242199 298432c54426,66933 44280,165332 -22654,219746 -66921,54413 -165320,44279 -219745,-22654l-242187 -298432zm-43418 -1061760c-76772,-78827 -183545,-128363 -302069,-129922 -118690,-1547 -226845,45201 -305719,122020 -78828,76773 -128375,183557 -129923,302070 -1547,118690 45202,226856 122021,305731 76772,78827 183557,128363 302081,129922 118690,1547 226856,-45201 305719,-122021 78828,-76772 128363,-183556 129922,-302069 1536,-118690 -45213,-226856 -122032,-305731z"/>
 </g>
</svg>
