<?xml version="1.0" encoding="UTF-8"?>
<!DOCTYPE svg PUBLIC "-//W3C//DTD SVG 1.1//EN" "http://www.w3.org/Graphics/SVG/1.1/DTD/svg11.dtd">
<!-- Creator: CorelDRAW X7 -->
<svg xmlns="http://www.w3.org/2000/svg" xml:space="preserve" width="262px" height="188px" version="1.1" style="shape-rendering:geometricPrecision; text-rendering:geometricPrecision; image-rendering:optimizeQuality; fill-rule:evenodd; clip-rule:evenodd"
viewBox="0 0 2620000 1879990"
 xmlns:xlink="http://www.w3.org/1999/xlink">
 <defs>
  <style type="text/css">
   <![CDATA[
    .fil0 {fill:#FEFEFE}
   ]]>
  </style>
 </defs>
 <g id="Слой_x0020_1">
  <metadata id="CorelCorpID_0Corel-Layer"/>
  <path class="fil0" d="M176989 2492l2266022 0c97016,0 176375,79359 176375,176375l0 538655 -1222362 403123 24 71c-33957,9874 -68304,14433 -102934,14209 -35209,-237 -71386,-5445 -108343,-14989l-1185157 -379737 0 -561332c0,-97016 79359,-176375 176375,-176375zm88819 1636753l0 -237107 83268 0 0 88087 64429 -88087 94229 0 -81083 97300 83280 139807 -91607 0 -45142 -75827 -24106 28925 0 46902 -83268 0zm385241 5693c-37394,0 -68516,-12047 -93354,-36154 -24827,-24106 -37252,-53397 -37252,-87874 0,-34193 12496,-63402 37476,-87662 24980,-24248 56315,-36378 94016,-36378 37394,0 68516,12059 93355,36166 24826,24106 37252,53398 37252,87874 0,34181 -12496,63402 -37477,87650 -24980,24260 -56315,36378 -94016,36378zm886 -70559c14894,0 26870,-5114 35929,-15343 9059,-10228 13595,-22937 13595,-38126 0,-14610 -4819,-27177 -14469,-37689 -9638,-10524 -21614,-15780 -35941,-15780 -14894,0 -26882,5115 -35941,15331 -9047,10229 -13583,22937 -13583,38138 0,14610 4819,27177 14469,37689 9638,10524 21614,15780 35941,15780zm165674 134988l0 -307229 83268 0 0 31547c20161,-24543 44126,-36815 71882,-36815 29220,0 54047,11327 74504,33969 20457,22642 30685,52524 30685,89634 0,37394 -10157,67418 -30461,90059 -20315,22654 -45071,33969 -74291,33969 -28642,0 -52737,-11398 -72319,-34181l0 99047 -83268 0zm129721 -134551c13736,0 25275,-5114 34630,-15343 9354,-10228 14019,-23374 14019,-39437 0,-15496 -4665,-28276 -14019,-38350 -9355,-10087 -20894,-15130 -34630,-15130 -13441,0 -24827,5114 -34182,15342 -9354,10229 -14019,23233 -14019,39012 0,15484 4665,28335 14019,38563 9355,10229 20741,15343 34182,15343zm236681 135874c-26303,0 -51720,-6874 -76264,-20598l25855 -58300c14031,8481 26150,12709 36378,12709 8185,0 14610,-3213 19287,-9638l-92917 -232725 87224 0 47327 142878 44705 -142878 85465 0 -86776 231414c-10523,28051 -22346,47918 -35504,59599 -13146,11693 -31405,17539 -54780,17539zm204249 -71445l0 -237107 231414 0 0 237107 -83280 0 0 -170056 -64866 0 0 170056 -83268 0zm456249 48213l0 -48213 -180130 0 0 -237107 83268 0 0 170044 64866 0 0 -170044 83280 0 0 170044 27603 0 -7890 115276 -70997 0zm102993 -48213l0 -237107 83268 0 0 237107 -83268 0zm-1748 -258591l0 -61359 86776 0 0 61359 -86776 0zm114815 258591l55666 -82394c-29221,-14031 -43831,-37984 -43831,-71882 0,-23965 7311,-42803 21921,-56540 16654,-17527 42508,-26291 77575,-26291l131918 0 0 237107 -83705 0 0 -68374 -18850 0 -45579 68374 -95115 0zm126674 -126225l32870 0 0 -48212 -32870 0c-20457,0 -30685,8185 -30685,24543 0,15780 10228,23669 30685,23669zm-1591753 -756782c-69662,0 -128433,-23716 -176327,-71149 -47894,-47434 -71835,-107127 -71835,-179080 0,-70582 24177,-129921 72520,-178051 48354,-48119 108732,-72178 181146,-72178 85701,0 153059,33910 202099,101741l-97618 75614c-29788,-37122 -65068,-55677 -105863,-55677 -33449,0 -60945,12378 -82488,37122 -21544,24744 -32315,55228 -32315,91429 0,36662 10771,67253 32315,91772 21543,24520 49039,36780 82488,36780 23374,0 43311,-4925 59811,-14776 16500,-9862 32764,-24413 48804,-43653l100370 71492c-25205,34370 -54544,61063 -87992,80079 -33461,19028 -75166,28535 -125115,28535zm354592 -9626l0 -364347 -144355 0 0 -116859 422080 0 0 116859 -144355 0 0 364347 -133370 0zm730289 -63248c-49724,48579 -111484,72874 -185268,72874 -73784,0 -135308,-24177 -184572,-72531 -49275,-48343 -73901,-107575 -73901,-177698 0,-69661 24862,-128776 74587,-177354 49724,-48579 111472,-72875 185256,-72875 73795,0 135319,24178 184583,72520 49264,48355 73902,107587 73902,177709 0,69662 -24862,128776 -74587,177355zm-183898 -47433c36213,0 65658,-12602 88347,-37807 22677,-25205 34027,-55914 34027,-92115 0,-35752 -11693,-66342 -35067,-91772 -23374,-25441 -52925,-38149 -88677,-38149 -35752,0 -64961,12602 -87650,37807 -22689,25205 -34028,55913 -34028,92114 0,35752 11575,66343 34713,91772 23150,25441 52595,38150 88335,38150zm294804 110681l0 -481206 431021 0 0 481206 -133370 0 0 -364347 -164292 0 0 364347 -133359 0zm828109 95198l0 859313c0,97016 -79359,176375 -176375,176375l-2266022 0c-97016,0 -176375,-79359 -176375,-176375l0 -837286 1150515 368635 3225 921c46500,12189 92965,18851 139288,19170 46878,307 93083,-5882 138449,-19347l1854 -460 1185441 -390946z"/>
 </g>
</svg>
