<?xml version="1.0" encoding="utf-8"?>
<!-- Generator: Adobe Illustrator 23.0.1, SVG Export Plug-In . SVG Version: 6.00 Build 0)  -->
<svg version="1.1" id="Layer_1" xmlns="http://www.w3.org/2000/svg" xmlns:xlink="http://www.w3.org/1999/xlink" x="0px" y="0px"
	 viewBox="0 0 200 200" style="enable-background:new 0 0 200 200;" xml:space="preserve">
<style type="text/css">
	.st0{fill-rule:evenodd;clip-rule:evenodd;fill:#5B5B5B;}
</style>
<g id="Слой_x0020_1">
	<path class="st0" d="M61,0h78c33.6,0,61,27.7,61,61.5v77c0,33.8-27.5,61.5-61,61.5H61c-33.6,0-61-27.7-61-61.5v-77
		C0,27.7,27.5,0,61,0z M53.2,93.2c29.4-12.4,57.2-24.4,87.4-34c2-0.6,6.2-1.6,5.3,3.5l-7.4,66.8c-2.5,23.4-4.2,29-24.1,16.6
		c-6-3.7-27.9-17.4-30.4-22c-8.4-5.1,30.8-32.4,36.6-43.4c-7.8,3.6-23.2,14.6-29.1,18.6c-17.2,11.7-24,19.2-38.2,14.7
		c-6-1.9-15.5-4.2-19.4-7.9C31.5,100.3,49.5,94.8,53.2,93.2z"/>
</g>
</svg>
