<?xml version="1.0" encoding="UTF-8"?>
<!DOCTYPE svg PUBLIC "-//W3C//DTD SVG 1.1//EN" "http://www.w3.org/Graphics/SVG/1.1/DTD/svg11.dtd">
<!-- Creator: CorelDRAW X7 -->
<svg xmlns="http://www.w3.org/2000/svg" xml:space="preserve" width="200px" height="200px" version="1.1" style="shape-rendering:geometricPrecision; text-rendering:geometricPrecision; image-rendering:optimizeQuality; fill-rule:evenodd; clip-rule:evenodd"
viewBox="0 0 2000000 2000000"
 xmlns:xlink="http://www.w3.org/1999/xlink">
 <defs>
  <style type="text/css">
   <![CDATA[
    .fil0 {fill:#5B5B5B}
   ]]>
  </style>
 </defs>
 <g id="Слой_x0020_1">
  <metadata id="CorelCorpID_0Corel-Layer"/>
  <path class="fil0" d="M610032 0l779936 0c335530,0 610044,276640 610044,614769l0 770462c0,338129 -274514,614769 -610044,614769l-779936 0c-335530,0 -610044,-276640 -610044,-614769l0 -770462c0,-338129 274514,-614769 610044,-614769zm499256 1439078c33815,-17527 103218,-64914 126887,-87733 59221,-57071 92162,-92965 137328,-165533 44870,-72142 80906,-165509 96568,-250773 9862,-53776 5279,-117911 13819,-161919 34098,-27390 101871,-86351 116256,-123981 -34618,10323 -95870,35492 -133453,33260 41528,-24260 85158,-72768 103111,-132686 -32067,12130 -130761,70146 -162261,50729 -12662,-7807 -27497,-29209 -64914,-47446 -100714,-49098 -239388,-19618 -306392,73040 -45958,63580 -59682,115690 -46359,209211 -108048,-6697 -219356,-38316 -299814,-85359 -106914,-62516 -96567,-61099 -162627,-125009l-36177 -36591c-1040,-1181 -4240,-4653 -5445,-5740 -11457,-10500 7606,2362 -11079,-8256 -13004,53705 -47835,98894 -19406,196537 8552,29374 22371,54532 37099,75367 33803,47846 43288,38374 57343,60331 -40158,-1559 -75213,-12957 -104824,-29126 -11811,89528 51485,170552 115466,214171 28559,19488 48095,19724 77705,33401 -43477,11800 -62811,7477 -106654,4902 25972,99261 121383,164564 228557,172832 -87284,74682 -214490,112513 -360157,103914 36249,36993 162061,81556 224849,95694 153060,34488 346431,8362 484574,-63237z"/>
 </g>
</svg>
