<?xml version="1.0" encoding="UTF-8"?>
<!DOCTYPE svg PUBLIC "-//W3C//DTD SVG 1.1//EN" "http://www.w3.org/Graphics/SVG/1.1/DTD/svg11.dtd">
<!-- Creator: CorelDRAW X7 -->
<svg xmlns="http://www.w3.org/2000/svg" xml:space="preserve" width="100px" height="100px" version="1.1" style="shape-rendering:geometricPrecision; text-rendering:geometricPrecision; image-rendering:optimizeQuality; fill-rule:evenodd; clip-rule:evenodd"
viewBox="0 0 1000000 1000000"
 xmlns:xlink="http://www.w3.org/1999/xlink">
 <defs>
  <style type="text/css">
   <![CDATA[
    .fil0 {fill:#2B2A29}
   ]]>
  </style>
 </defs>
 <g id="Слой_x0020_1">
  <metadata id="CorelCorpID_0Corel-Layer"/>
  <path class="fil0" d="M500000 38445c254919,0 461567,206647 461567,461555 0,254919 -206648,461567 -461567,461567 -254908,0 -461555,-206648 -461555,-461567 0,-254908 206647,-461555 461555,-461555zm56150 687809c17362,-8941 53020,-33095 65197,-44729 30414,-29091 47351,-47386 70548,-84390 23044,-36768 41564,-84367 49607,-127832 5079,-27414 2728,-60119 7098,-82548 17516,-13973 52347,-44020 59729,-63213 -17776,5268 -49252,18095 -68563,16961 21342,-12367 43760,-37099 52984,-67643 -16476,6178 -67181,35753 -83374,25855 -6496,-3980 -14115,-14882 -33343,-24177 -51745,-25040 -122989,-10004 -157407,37228 -23610,32422 -30662,58985 -23811,106655 -55524,-3402 -112702,-19536 -154041,-43513 -54933,-31866 -49606,-31145 -83552,-63721l-18590 -18661c-532,-602 -2173,-2374 -2788,-2929 -5882,-5351 3898,1205 -5693,-4217 -6685,27390 -24579,50434 -9968,100194 4394,14976 11492,27815 19051,38433 17363,24390 22240,19559 29457,30756 -20634,-791 -38634,-6614 -53847,-14858 -6071,45650 26445,86953 59316,109194 14681,9933 24708,10051 39933,17031 -22347,6012 -32280,3804 -54804,2493 13347,50598 62351,83894 117427,88099 -44835,38067 -110198,57366 -185045,52984 18638,18851 83268,41576 115524,48780 78627,17587 177994,4264 248955,-32244l0 12z"/>
 </g>
</svg>
