<?xml version="1.0" encoding="utf-8"?>
<!-- Generator: Adobe Illustrator 23.0.1, SVG Export Plug-In . SVG Version: 6.00 Build 0)  -->
<svg version="1.1" id="Layer_1" xmlns="http://www.w3.org/2000/svg" xmlns:xlink="http://www.w3.org/1999/xlink" x="0px" y="0px"
	 viewBox="0 0 209.8 209.8" style="enable-background:new 0 0 209.8 209.8;" xml:space="preserve">
<style type="text/css">
	.st0{fill:#555555;}
</style>
<g id="Слой_x0020_1">
	<g>
		<path class="st0" d="M143.9,208.9h-78c-35.8,0-65-29.4-65-65.5v-77c0-36.1,29.2-65.5,65-65.5h78c35.8,0,65,29.4,65,65.5v77
			C208.9,179.5,179.7,208.9,143.9,208.9z M65.9,8.9c-31.4,0-57,25.8-57,57.5v77c0,31.7,25.6,57.5,57,57.5h78c31.4,0,57-25.8,57-57.5
			v-77c0-31.7-25.6-57.5-57-57.5C143.9,8.9,65.9,8.9,65.9,8.9z M115.9,147.9c3.4-1.8,10.3-6.5,12.7-8.8c5.9-5.7,9.2-9.3,13.7-16.6
			c4.5-7.2,8.1-16.6,9.7-25.1c1-5.4,0.5-11.8,1.4-16.2c3.4-2.7,10.2-8.6,11.6-12.4c-3.5,1-9.6,3.5-13.3,3.3
			c4.2-2.4,8.5-7.3,10.3-13.3c-3.2,1.2-13.1,7-16.2,5.1c-1.3-0.8-2.7-2.9-6.5-4.7c-10.1-4.9-23.9-2-30.6,7.3
			c-4.6,6.4-6,11.6-4.6,20.9c-10.8-0.7-21.9-3.8-30-8.5c-10.7-6.3-9.7-6.1-16.3-12.5l-3.6-3.7c-0.1-0.1-0.4-0.5-0.5-0.6
			c-1.1-1,0.8,0.2-1.1-0.8c-1.3,5.4-4.8,9.9-1.9,19.7c0.9,2.9,2.2,5.5,3.7,7.5c3.4,4.8,4.3,3.8,5.7,6c-4-0.2-7.5-1.3-10.5-2.9
			c-1.2,9,5.1,17.1,11.5,21.4c2.9,1.9,4.8,2,7.8,3.3c-4.3,1.2-6.3,0.7-10.7,0.5c2.6,9.9,12.1,16.5,22.9,17.3
			c-8.7,7.5-21.4,11.3-36,10.4c3.6,3.7,16.2,8.2,22.5,9.6C82.8,157.7,102.1,155.1,115.9,147.9z"/>
	</g>
</g>
</svg>
