<?xml version="1.0" encoding="UTF-8"?>
<!DOCTYPE svg PUBLIC "-//W3C//DTD SVG 1.1//EN" "http://www.w3.org/Graphics/SVG/1.1/DTD/svg11.dtd">
<!-- Creator: CorelDRAW X7 -->
<svg xmlns="http://www.w3.org/2000/svg" xml:space="preserve" width="200px" height="200px" version="1.1" style="shape-rendering:geometricPrecision; text-rendering:geometricPrecision; image-rendering:optimizeQuality; fill-rule:evenodd; clip-rule:evenodd"
viewBox="0 0 2000000 2000000"
 xmlns:xlink="http://www.w3.org/1999/xlink">
 <defs>
  <style type="text/css">
   <![CDATA[
    .fil0 {fill:#5B5B5B}
   ]]>
  </style>
 </defs>
 <g id="Слой_x0020_1">
  <metadata id="CorelCorpID_0Corel-Layer"/>
  <path class="fil0" d="M303439 0l1393122 0c166891,0 303451,136548 303451,303439l0 1393122c0,166891 -136560,303451 -303451,303451l-1393122 0c-166891,0 -303451,-136560 -303451,-303451l0 -1393122c0,-166891 136560,-303439 303451,-303439zm1070312 1055146l-302046 174391 -303026 174958c-38504,22300 -87804,9166 -110103,-29339 -7370,-12732 -10866,-26645 -10854,-40382l-189 0 0 -349916 0 -349904c0,-44599 36165,-80753 80764,-80753 17421,0 33555,5516 46760,14906l296341 171072 225 142 82 -142 303038 174958c38504,22300 51638,71599 29339,110103 -7524,12981 -18118,23079 -30331,29906z"/>
 </g>
</svg>
