<?xml version="1.0" encoding="utf-8"?>
<!-- Generator: Adobe Illustrator 23.0.1, SVG Export Plug-In . SVG Version: 6.00 Build 0)  -->
<svg version="1.1" id="Layer_1" xmlns="http://www.w3.org/2000/svg" xmlns:xlink="http://www.w3.org/1999/xlink" x="0px" y="0px"
	 viewBox="0 0 209.8 209.8" style="enable-background:new 0 0 209.8 209.8;" xml:space="preserve">
<style type="text/css">
	.st0{fill:#555555;}
	.st1{fill-rule:evenodd;clip-rule:evenodd;fill:#555555;}
</style>
<g id="Слой_x0020_1">
	<g>
		<path class="st0" d="M174.5,208.9H35.2c-18.9,0-34.3-15.4-34.3-34.3V35.2c0-18.9,15.4-34.3,34.3-34.3h139.3
			c18.9,0,34.3,15.4,34.3,34.3v139.3C208.9,193.5,193.5,208.9,174.5,208.9z M35.2,8.9C20.7,8.9,8.9,20.7,8.9,35.2v139.3
			c0,14.5,11.8,26.3,26.3,26.3h139.3c14.5,0,26.3-11.8,26.3-26.3V35.2c0-14.5-11.8-26.3-26.3-26.3H35.2z"/>
	</g>
	<g>
		<path class="st1" d="M146.3,109.4l-30.2,17.4l-30.3,17.5c-3.9,2.2-8.8,0.9-11-2.9c-0.7-1.3-1.1-2.7-1.1-4h0v-35v-35
			c0-4.5,3.6-8.1,8.1-8.1c1.7,0,3.4,0.6,4.7,1.5L116,77.9l0,0l0,0l30.3,17.5c3.9,2.2,5.2,7.2,2.9,11
			C148.5,107.7,147.5,108.7,146.3,109.4z"/>
		<path class="st0" d="M81.7,146.4c-3.1,0-6.2-1.6-7.9-4.5c-0.6-1.1-1-2.3-1.2-3.5h-0.1l0-1v-70c0-5,4.1-9.1,9.1-9.1
			c1.9,0,3.7,0.6,5.3,1.7l59.9,34.6c4.3,2.5,5.8,8.1,3.3,12.4c-0.8,1.4-2,2.6-3.4,3.4l-60.5,34.9C84.8,146,83.3,146.4,81.7,146.4z
			 M74.6,136.4L74.6,136.4l0,1c0,1.2,0.3,2.5,1,3.5c1.9,3.4,6.3,4.5,9.6,2.6l60.5-34.9c1.1-0.6,2-1.5,2.7-2.6c2-3.4,0.8-7.7-2.6-9.6
			l-29.5-17l0,0l-0.9-0.5L85.9,61.7c-1.3-0.9-2.7-1.4-4.2-1.4c-3.9,0-7.1,3.2-7.1,7.1V136.4z"/>
	</g>
</g>
</svg>
