<?xml version="1.0" encoding="UTF-8"?>
<!DOCTYPE svg PUBLIC "-//W3C//DTD SVG 1.1//EN" "http://www.w3.org/Graphics/SVG/1.1/DTD/svg11.dtd">
<!-- Creator: CorelDRAW X7 -->
<svg xmlns="http://www.w3.org/2000/svg" xml:space="preserve" width="200px" height="200px" version="1.1" style="shape-rendering:geometricPrecision; text-rendering:geometricPrecision; image-rendering:optimizeQuality; fill-rule:evenodd; clip-rule:evenodd"
viewBox="0 0 2000000 2000000"
 xmlns:xlink="http://www.w3.org/1999/xlink">
 <defs>
  <style type="text/css">
   <![CDATA[
    .fil0 {fill:#5B5B5B}
   ]]>
  </style>
 </defs>
 <g id="Слой_x0020_1">
  <metadata id="CorelCorpID_0Corel-Layer"/>
  <path class="fil0" d="M610032 0l779936 0c335530,0 610044,276640 610044,614769l0 770462c0,338129 -274514,614769 -610044,614769l-779936 0c-335530,0 -610044,-276640 -610044,-614769l0 -770462c0,-338129 274514,-614769 610044,-614769zm-34701 612548c285888,-25784 567867,-24035 846704,0 81343,7004 136017,68257 148430,149576 27780,181986 28701,353838 0,514492 -14457,80977 -67182,141521 -148430,149588 -282239,27992 -564465,28914 -846704,0 -81225,-8315 -137328,-68079 -148442,-149588 -24331,-178501 -25075,-350211 0,-514492 12414,-81319 67123,-142253 148442,-149576zm591194 411181l-141379 82264 -141379 82264 0 -164528 0 -164529 141379 82264 141379 82265z"/>
 </g>
</svg>
