<?xml version="1.0" encoding="utf-8"?>
<!-- Generator: Adobe Illustrator 23.0.1, SVG Export Plug-In . SVG Version: 6.00 Build 0)  -->
<svg version="1.1" id="Layer_1" xmlns="http://www.w3.org/2000/svg" xmlns:xlink="http://www.w3.org/1999/xlink" x="0px" y="0px"
	 viewBox="0 0 209.8 209.8" style="enable-background:new 0 0 209.8 209.8;" xml:space="preserve">
<style type="text/css">
	.st0{fill:#555555;}
</style>
<g>
	<path class="st0" d="M147.2,68.3c-27.9-2.4-56.1-2.6-84.7,0c-8.1,0.7-13.6,6.8-14.8,15c-2.5,16.4-2.4,33.5,0,51.4
		c1.1,8.2,6.7,14.2,14.8,15c28.3,2.9,56.5,2.8,84.7,0c8.1-0.8,13.4-6.9,14.8-15c2.9-16,2.8-33.2,0-51.4
		C160.8,75.1,155.3,69,147.2,68.3z M107.5,116.6l-14.1,8.2v-16.4V91.9l14.1,8.2l14.2,8.3L107.5,116.6z"/>
	<path class="st0" d="M144,3H66C30.2,3,1,32.4,1,68.5v77C1,181.6,30.2,211,66,211h78c35.8,0,65-29.4,65-65.5v-77
		C209,32.4,179.8,3,144,3z M201,145.5c0,31.7-25.6,57.5-57,57.5H66c-31.4,0-57-25.8-57-57.5v-77C9,36.8,34.6,11,66,11h78
		c31.4,0,57,25.8,57,57.5V145.5z"/>
</g>
</svg>
